<svg width="101" height="101" viewBox="0 0 101 101" fill="none" xmlns="http://www.w3.org/2000/svg">
<path d="M34.845 93.4232C35.4404 92.2241 35.5354 90.8377 35.1093 89.5685C34.6832 88.2993 33.7708 87.2513 32.5725 86.6546C26.1176 83.4576 20.6345 78.5925 16.6914 72.5632C12.7482 66.534 10.4883 59.56 10.1458 52.3635C9.8032 45.167 11.3904 38.0097 14.7431 31.6331C18.0957 25.2564 23.0918 19.8922 29.2138 16.0962C35.3359 12.3002 42.3613 10.2103 49.5623 10.0431C56.7633 9.87583 63.8781 11.6373 70.1697 15.1451C76.4613 18.6528 81.7009 23.7793 85.3458 29.9935C88.9906 36.2076 90.9082 43.2835 90.9 50.4881C90.9326 58.0201 88.8414 65.4086 84.8665 71.8057C80.8915 78.2028 75.1939 83.3494 68.4275 86.6546C67.2221 87.2575 66.3055 88.3146 65.8793 89.5934C65.4531 90.8723 65.5523 92.268 66.155 93.4737C66.7577 94.6794 67.8145 95.5963 69.0931 96.0225C70.3716 96.4488 71.7671 96.3496 72.9725 95.7468C83.1697 90.6784 91.3552 82.3118 96.2003 72.0048C101.045 61.6978 102.266 50.0555 99.6633 38.9674C97.0609 27.8794 90.7884 17.9965 81.8639 10.9228C72.9394 3.8492 61.8868 -1.70969e-06 50.5 -2.20743e-06C39.1132 -2.70516e-06 28.0606 3.8492 19.1361 10.9228C10.2116 17.9965 3.9391 27.8794 1.33665 38.9674C-1.2658 50.0555 -0.0454209 61.6978 4.7997 72.0048C9.64482 82.3118 17.8303 90.6784 28.0275 95.7468C28.6266 96.0478 29.2796 96.2265 29.9484 96.2724C30.6173 96.3183 31.2886 96.2306 31.9232 96.0143C32.5578 95.7981 33.143 95.4575 33.6446 95.0127C34.1463 94.5678 34.5543 94.0275 34.845 93.4232ZM55.55 95.9488L55.55 47.5079L67.1145 59.1257C67.5853 59.5966 68.1443 59.9702 68.7595 60.2251C69.3747 60.48 70.0341 60.6112 70.7 60.6112C71.3659 60.6112 72.0252 60.48 72.6404 60.2251C73.2556 59.9702 73.8146 59.5966 74.2855 59.1257C74.7563 58.6547 75.1298 58.0956 75.3847 57.4802C75.6395 56.8649 75.7706 56.2054 75.7706 55.5393C75.7706 54.8733 75.6395 54.2138 75.3847 53.5984C75.1298 52.9831 74.7563 52.424 74.2855 51.953L54.0855 31.7482C53.6052 31.2884 53.0389 30.9279 52.419 30.6875C51.1895 30.1823 49.8105 30.1823 48.581 30.6875C47.9611 30.9279 47.3948 31.2884 46.9145 31.7482L26.7145 51.953C26.2412 52.4226 25.8655 52.9812 25.6091 53.5968C25.3527 54.2123 25.2207 54.8725 25.2207 55.5393C25.2207 56.2061 25.3527 56.8664 25.6091 57.4819C25.8655 58.0974 26.2412 58.6561 26.7145 59.1257C27.184 59.5991 27.7425 59.9749 28.3579 60.2313C28.9733 60.4878 29.6334 60.6198 30.3 60.6198C30.9667 60.6198 31.6267 60.4878 32.2421 60.2313C32.8575 59.9749 33.416 59.5991 33.8855 59.1257L45.45 47.5079L45.45 95.9488C45.45 97.2885 45.9821 98.5733 46.9291 99.5205C47.8762 100.468 49.1607 101 50.5 101C51.8393 101 53.1238 100.468 54.0709 99.5205C55.0179 98.5733 55.55 97.2885 55.55 95.9488Z" fill="#7FA0AD"/>
</svg>
