<svg width="314" height="156" viewBox="0 0 314 156" fill="none" xmlns="http://www.w3.org/2000/svg">
<path d="M104.856 50.6172C102.852 51.7552 99.8589 52.7819 95.8758 53.6973C91.8927 54.5879 88.0952 55.0332 84.4832 55.0332C75.1564 55.0332 67.9572 52.7077 62.8855 48.0566C57.8139 43.3809 55.2781 36.8372 55.2781 28.4258C55.2781 22.7852 56.5522 17.7754 59.1004 13.3965C61.6733 9.01758 65.2853 5.6901 69.9363 3.41406C74.5874 1.13802 80.0672 0 86.3758 0C91.0021 0 95.9376 0.655599 101.182 1.9668V15.957C98.7332 14.8438 96.3829 14.0768 94.1316 13.6562C91.8803 13.2109 89.4187 12.9883 86.7469 12.9883C82.3432 12.9883 78.8302 14.3118 76.2078 16.959C73.6102 19.6061 72.3113 23.2428 72.3113 27.8691C72.3113 32.2975 73.3999 35.7611 75.577 38.2598C77.7788 40.7585 80.8465 42.0078 84.7801 42.0078C86.6108 42.0078 87.9591 41.9089 88.825 41.7109V34.1035H78.6199V21.9688H104.856V50.6172Z" fill="white"/>
<path d="M139.629 54.1055L135.659 42.6387C134.892 40.3874 133.89 38.6185 132.653 37.332C131.44 36.0456 130.117 35.4023 128.682 35.4023H128.051V54.1055H112.02V0.890625H133.321C140.767 0.890625 146.259 2.11523 149.797 4.56445C153.36 6.98893 155.141 10.638 155.141 15.5117C155.141 19.1732 154.102 22.2409 152.024 24.7148C149.97 27.1888 146.903 28.9824 142.821 30.0957V30.2441C145.072 30.9368 146.94 32.0625 148.424 33.6211C149.933 35.1797 151.282 37.4928 152.469 40.5605L157.701 54.1055H139.629ZM138.108 17.7754C138.108 15.9941 137.563 14.584 136.475 13.5449C135.386 12.5059 133.679 11.9863 131.354 11.9863H128.051V24.1582H130.946C133.098 24.1582 134.83 23.5521 136.141 22.3398C137.452 21.1276 138.108 19.6061 138.108 17.7754Z" fill="white"/>
<path d="M163.899 54.1055V0.890625H197.037V13.4336H179.93V21.1895H195.998V33.7324H179.93V41.5625H198.262V54.1055H163.899Z" fill="white"/>
<path d="M235.314 35.625V54.1055H219.282V35.8477L202.88 0.890625H221.286L227.038 17.627C227.434 18.765 227.706 19.7546 227.855 20.5957C228.028 21.4368 228.213 22.2904 228.411 23.1562H228.56C228.881 20.9049 229.24 19.1608 229.636 17.9238L235.314 0.890625H252.272L235.314 35.625Z" fill="white"/>
<path d="M48.7246 124.105V94.9375C48.7246 92.1914 48.8112 89.1732 48.9844 85.8828L49.0957 83.4336H48.6504C47.8587 87.6146 47.2526 90.5091 46.832 92.1172L39.002 124.105H23.9355L15.7344 92.4883C15.5117 91.6966 14.9303 88.6784 13.9902 83.4336H13.5449C13.8913 91.7461 14.0645 96.9414 14.0645 99.0195V124.105H0V70.8906H24.0098L31.3203 99.7988C31.4935 100.393 31.7161 101.605 31.9883 103.436C32.2852 105.242 32.4707 106.639 32.5449 107.629H32.7676C33.0397 105.378 33.4727 102.718 34.0664 99.6504L40.8945 70.8906H64.5332V124.105H48.7246Z" fill="white"/>
<path d="M108.396 124.105L106.059 114.309H90.1758L87.6523 124.105H70.3223L88.6543 70.8906H108.545L125.801 124.105H108.396ZM98.3027 82.4688H97.9316C97.8822 83.0625 97.709 84.0397 97.4121 85.4004C97.1152 86.7611 95.6185 92.5996 92.9219 102.916H103.09L99.3789 88.4434C98.8594 86.3158 98.5007 84.3242 98.3027 82.4688Z" fill="white"/>
<path d="M153.619 83.4336V124.105H137.514V83.4336H122.633V70.8906H168.686V83.4336H153.619Z" fill="white"/>
<path d="M205.81 83.4336V124.105H189.705V83.4336H174.824V70.8906H220.876V83.4336H205.81Z" fill="white"/>
<path d="M227.296 124.105V70.8906H260.435V83.4336H243.328V91.1895H259.396V103.732H243.328V111.562H261.66V124.105H227.296Z" fill="white"/>
<path d="M295.319 124.105L291.349 112.639C290.582 110.387 289.58 108.618 288.343 107.332C287.131 106.046 285.807 105.402 284.372 105.402H283.741V124.105H267.71V70.8906H289.011C296.457 70.8906 301.95 72.1152 305.487 74.5645C309.05 76.9889 310.831 80.638 310.831 85.5117C310.831 89.1732 309.792 92.2409 307.714 94.7148C305.66 97.1888 302.593 98.9824 298.511 100.096V100.244C300.762 100.937 302.63 102.062 304.114 103.621C305.623 105.18 306.972 107.493 308.159 110.561L313.392 124.105H295.319ZM293.798 87.7754C293.798 85.9941 293.254 84.584 292.165 83.5449C291.076 82.5059 289.369 81.9863 287.044 81.9863H283.741V94.1582H286.636C288.788 94.1582 290.52 93.5521 291.831 92.3398C293.142 91.1276 293.798 89.6061 293.798 87.7754Z" fill="white"/>
<path d="M38.1087 142.87C39.274 141.122 40.286 139.934 41.1447 139.305C42.0034 138.661 42.7547 138.339 43.3987 138.339C44.0427 138.339 44.541 138.539 44.8937 138.937C45.2464 139.321 45.4227 139.811 45.4227 140.409C45.4227 142.065 44.8247 143.599 43.6287 145.009C42.448 146.405 41.114 147.102 39.6267 147.102C38.9674 147.102 38.446 146.987 38.0627 146.757L38.6147 145.768C39.412 145.876 39.9104 145.929 40.1097 145.929C40.9377 145.929 41.712 145.446 42.4327 144.48C43.1534 143.514 43.5137 142.525 43.5137 141.513C43.5137 141.13 43.3987 140.816 43.1687 140.57C42.954 140.31 42.6704 140.179 42.3177 140.179C41.4744 140.179 40.516 140.923 39.4427 142.41C38.3847 143.898 37.388 145.738 36.4527 147.93C35.5327 150.138 34.7277 152.484 34.0377 154.968L32.6577 154.485C32.6884 154.393 32.9797 153.596 33.5317 152.093C34.0684 150.606 34.5974 149.126 35.1187 147.654C36.56 143.606 37.2807 141.391 37.2807 141.007C37.2807 140.026 37.0814 139.137 36.6827 138.339L37.8327 137.764C38.308 138.424 38.5457 139.121 38.5457 139.857C38.5457 140.578 38.4 141.582 38.1087 142.87Z" fill="white"/>
<path d="M52.6244 140.271C53.0231 140.931 53.2224 141.659 53.2224 142.456C53.2224 143.698 52.7931 144.81 51.9344 145.791C51.0757 146.757 50.0637 147.24 48.8984 147.24C48.0091 147.24 47.3114 146.987 46.8054 146.481C46.3147 145.96 46.0694 145.247 46.0694 144.342C46.0694 142.886 46.6367 141.582 47.7714 140.432C48.9061 139.267 50.1787 138.684 51.5894 138.684C51.8501 138.684 52.0341 138.692 52.1414 138.707L52.2104 139.466C50.9837 139.466 49.9641 139.819 49.1514 140.524C48.3387 141.23 47.9324 142.134 47.9324 143.238C47.9324 143.898 48.0934 144.434 48.4154 144.848C48.7374 145.247 49.2051 145.446 49.8184 145.446C50.4471 145.446 50.9454 145.17 51.3134 144.618C51.6814 144.066 51.8654 143.422 51.8654 142.686C51.8654 141.935 51.7197 141.253 51.4284 140.639L52.6244 140.271Z" fill="white"/>
<path d="M66.7477 138.155L67.3917 138.753L66.0117 140.432C64.3863 142.441 63.1827 144.434 62.4007 146.412C62.2013 146.826 61.9943 147.033 61.7797 147.033C61.5803 147.033 61.4117 147.01 61.2737 146.964C61.151 146.903 61.0053 146.704 60.8367 146.366C60.6833 146.029 60.576 145.623 60.5147 145.147C60.4533 144.672 60.3997 144.266 60.3537 143.928C60.3077 143.591 60.277 143.346 60.2617 143.192C60.2463 143.024 60.2233 142.855 60.1927 142.686C60.1773 142.502 60.162 142.364 60.1467 142.272C60.1313 142.18 60.116 142.088 60.1007 141.996C60.0853 141.904 60.0623 141.82 60.0317 141.743C60.001 141.651 59.978 141.575 59.9627 141.513C59.9473 141.437 59.909 141.314 59.8477 141.145C59.8017 140.977 59.7633 140.831 59.7327 140.708C58.9353 141.567 58.253 142.579 57.6857 143.744C57.471 144.189 57.0493 145.078 56.4207 146.412C56.2827 146.704 56.091 146.849 55.8457 146.849C55.6157 146.849 55.424 146.826 55.2707 146.78C55.1327 146.719 54.987 146.535 54.8337 146.228C54.6803 145.922 54.5653 145.462 54.4887 144.848C54.1207 141.766 53.768 139.666 53.4307 138.546C53.8753 138.424 54.32 138.362 54.7647 138.362C54.8413 138.5 54.941 138.922 55.0637 139.627C55.3243 140.992 55.654 142.594 56.0527 144.434C56.804 142.993 57.632 141.667 58.5367 140.455C59.4567 139.229 60.0623 138.615 60.3537 138.615C60.691 138.615 60.921 138.853 61.0437 139.328C61.1817 139.788 61.2967 140.57 61.3887 141.674C61.496 142.763 61.634 143.675 61.8027 144.411C63.244 141.943 64.8923 139.857 66.7477 138.155Z" fill="white"/>
<path d="M73.8473 144.388L74.3763 144.802C73.901 145.462 73.2493 146.014 72.4213 146.458C71.5933 146.888 70.7883 147.102 70.0063 147.102C69.2243 147.102 68.5956 146.872 68.1203 146.412C67.645 145.952 67.4073 145.347 67.4073 144.595C67.4073 143.185 68.151 141.797 69.6383 140.432C71.141 139.068 72.659 138.385 74.1923 138.385C75.2043 138.385 75.7103 138.784 75.7103 139.581C75.7103 140.409 75.1736 141.245 74.1003 142.088C73.0423 142.932 71.5473 143.698 69.6153 144.388C69.7533 144.741 69.968 145.017 70.2593 145.216C70.5506 145.416 70.8496 145.515 71.1563 145.515C71.8156 145.515 72.7126 145.14 73.8473 144.388ZM69.5003 143.698C70.7423 143.269 71.808 142.732 72.6973 142.088C73.5866 141.444 74.0313 140.854 74.0313 140.317C74.0313 140.118 73.9546 139.942 73.8013 139.788C73.648 139.635 73.4716 139.558 73.2723 139.558C72.5516 139.558 71.7696 140.011 70.9263 140.915C70.0983 141.805 69.623 142.732 69.5003 143.698Z" fill="white"/>
<path d="M82.6071 138.96C82.9904 138.96 83.3047 139.091 83.5501 139.351C83.7954 139.612 83.9181 139.949 83.9181 140.363C83.9181 141.191 83.4427 142.065 82.4921 142.985L81.9401 142.548C82.1547 142.073 82.2621 141.728 82.2621 141.513C82.2621 141.099 82.0321 140.892 81.5721 140.892C81.1121 140.892 80.6751 141.184 80.2611 141.766C79.8471 142.349 79.3564 143.254 78.7891 144.48C78.2371 145.692 77.8154 146.55 77.5241 147.056L76.2131 146.481C77.0564 144.565 77.5394 143.438 77.6621 143.1C78.0761 141.904 78.2831 140.386 78.2831 138.546L79.5711 138.201C79.5251 139.198 79.4561 139.972 79.3641 140.524C79.2721 141.061 79.0497 141.943 78.6971 143.169C80.2457 140.363 81.5491 138.96 82.6071 138.96Z" fill="white"/>
<path d="M90.7828 144.388L91.3118 144.802C90.8365 145.462 90.1848 146.014 89.3568 146.458C88.5288 146.888 87.7238 147.102 86.9418 147.102C86.1598 147.102 85.5312 146.872 85.0558 146.412C84.5805 145.952 84.3428 145.347 84.3428 144.595C84.3428 143.185 85.0865 141.797 86.5738 140.432C88.0765 139.068 89.5945 138.385 91.1278 138.385C92.1398 138.385 92.6458 138.784 92.6458 139.581C92.6458 140.409 92.1092 141.245 91.0358 142.088C89.9778 142.932 88.4828 143.698 86.5508 144.388C86.6888 144.741 86.9035 145.017 87.1948 145.216C87.4862 145.416 87.7852 145.515 88.0918 145.515C88.7512 145.515 89.6482 145.14 90.7828 144.388ZM86.4358 143.698C87.6778 143.269 88.7435 142.732 89.6328 142.088C90.5222 141.444 90.9668 140.854 90.9668 140.317C90.9668 140.118 90.8902 139.942 90.7368 139.788C90.5835 139.635 90.4072 139.558 90.2078 139.558C89.4872 139.558 88.7052 140.011 87.8618 140.915C87.0338 141.805 86.5585 142.732 86.4358 143.698Z" fill="white"/>
<path d="M106.075 130.105L107.248 130.519L106.926 131.117C105.239 134.261 103.805 137.304 102.625 140.248C101.843 142.18 101.452 143.629 101.452 144.595C101.452 144.841 101.513 145.04 101.636 145.193C101.758 145.331 101.95 145.4 102.211 145.4C102.487 145.4 102.801 145.224 103.154 144.871L103.568 145.262C103.368 145.707 103.023 146.121 102.533 146.504C102.042 146.872 101.567 147.056 101.107 147.056C100.217 147.056 99.7726 146.535 99.7726 145.492C99.7726 144.879 99.9413 143.936 100.279 142.663C98.4693 145.822 96.6983 147.401 94.9656 147.401C94.3676 147.401 93.8923 147.217 93.5396 146.849C93.1869 146.481 93.0106 145.983 93.0106 145.354C93.0106 144.358 93.4093 143.323 94.2066 142.249C95.0039 141.176 95.9853 140.302 97.1506 139.627C98.3159 138.937 99.4046 138.592 100.417 138.592L100.486 139.397C99.1669 139.566 97.9326 140.141 96.7826 141.122C95.6479 142.088 95.0806 143.077 95.0806 144.089C95.0806 144.519 95.1956 144.864 95.4256 145.124C95.6556 145.37 95.9546 145.492 96.3226 145.492C97.0739 145.492 98.0553 144.687 99.2666 143.077C99.7113 142.495 100.217 141.644 100.785 140.524C101.367 139.405 101.827 138.508 102.165 137.833C102.517 137.143 102.855 136.476 103.177 135.832C103.514 135.173 103.951 134.314 104.488 133.256C105.024 132.183 105.553 131.133 106.075 130.105Z" fill="white"/>
<path d="M121.049 140.777C121.785 140.026 122.429 139.512 122.981 139.236C123.548 138.945 124.077 138.799 124.568 138.799C125.074 138.799 125.488 138.976 125.81 139.328C126.147 139.666 126.316 140.11 126.316 140.662C126.316 142.088 125.718 143.591 124.522 145.17C123.326 146.734 122.038 147.516 120.658 147.516C120.244 147.516 119.853 147.44 119.485 147.286L120.037 146.274C120.282 146.336 120.474 146.366 120.612 146.366C121.547 146.366 122.398 145.845 123.165 144.802C123.932 143.76 124.315 142.732 124.315 141.72C124.315 141.398 124.208 141.138 123.993 140.938C123.794 140.724 123.533 140.616 123.211 140.616C122.506 140.616 121.678 141.184 120.727 142.318C119.792 143.453 118.971 144.933 118.266 146.757L116.863 146.182C117.323 143.836 118.243 140.977 119.623 137.603C121.003 134.23 122.153 131.846 123.073 130.45L124.246 130.864C123.234 132.75 122.153 135.089 121.003 137.879C119.868 140.67 119.201 142.564 119.002 143.56C119.631 142.456 120.313 141.529 121.049 140.777Z" fill="white"/>
<path d="M136.359 145.653L136.428 146.251C136.367 146.297 135.654 146.573 134.289 147.079C134.105 148.091 133.868 149.088 133.576 150.069C133.3 151.066 133.017 151.817 132.725 152.323C132.449 152.845 132.12 153.358 131.736 153.864C130.97 154.876 129.935 155.382 128.631 155.382C127.987 155.382 127.474 155.183 127.09 154.784C126.707 154.386 126.515 153.841 126.515 153.151C126.515 150.499 128.739 148.367 133.185 146.757L134.427 142.387C133.109 144.365 131.92 145.584 130.862 146.044C130.341 146.29 129.789 146.412 129.206 146.412C128.639 146.412 128.179 146.228 127.826 145.86C127.489 145.492 127.32 144.956 127.32 144.25C127.32 143.545 127.558 142.564 128.033 141.306C128.524 140.034 129.068 138.968 129.666 138.109L130.793 138.592C130.747 138.638 130.533 139.045 130.149 139.811C129.475 141.207 129.137 142.242 129.137 142.916C129.137 143.591 129.268 144.043 129.528 144.273C129.789 144.503 130.172 144.618 130.678 144.618C131.184 144.618 131.752 144.319 132.38 143.721C133.024 143.108 134.013 141.904 135.347 140.11L136.175 140.593C136.053 141.099 135.777 142.019 135.347 143.353C134.933 144.672 134.65 145.684 134.496 146.389L136.359 145.653ZM133.047 147.447C132.081 147.892 131.23 148.398 130.494 148.965C129.114 150.008 128.424 151.02 128.424 152.001C128.424 152.369 128.532 152.668 128.746 152.898C128.961 153.128 129.229 153.243 129.551 153.243C131.085 153.243 132.25 151.311 133.047 147.447Z" fill="white"/>
<path d="M160.731 133.026L161.398 134.015C159.819 135.058 158.117 136.722 156.292 139.006C154.467 141.276 153.041 143.622 152.014 146.044C151.799 146.55 151.608 146.888 151.439 147.056C151.286 147.225 151.056 147.309 150.749 147.309C150.458 147.309 150.189 147.21 149.944 147.01C149.714 146.796 149.599 146.481 149.599 146.067C149.599 145.638 149.653 144.833 149.76 143.652C149.883 142.456 149.944 141.613 149.944 141.122C149.944 137.672 149.561 134.889 148.794 132.773L150.473 132.313C151.347 133.831 151.784 136.568 151.784 140.524C151.784 141.812 151.761 142.84 151.715 143.606C154.168 138.577 157.174 135.05 160.731 133.026Z" fill="white"/>
<path d="M162.931 137.35C162.073 137.35 161.643 137.005 161.643 136.315C161.643 135.932 161.751 135.61 161.965 135.349C162.18 135.089 162.456 134.958 162.793 134.958C163.131 134.958 163.407 135.058 163.621 135.257C163.836 135.457 163.943 135.717 163.943 136.039C163.943 136.361 163.851 136.66 163.667 136.936C163.483 137.212 163.238 137.35 162.931 137.35ZM162.632 144.135L163.092 144.526C162.724 145.232 162.234 145.837 161.62 146.343C161.022 146.834 160.478 147.079 159.987 147.079C159.129 147.079 158.699 146.481 158.699 145.285C158.699 143.798 159.313 141.858 160.539 139.466C160.815 138.945 160.976 138.638 161.022 138.546L162.011 139.144C161.689 139.727 161.291 140.655 160.815 141.927C160.355 143.2 160.125 144.02 160.125 144.388C160.125 144.741 160.202 144.994 160.355 145.147C160.509 145.301 160.693 145.377 160.907 145.377C161.321 145.377 161.896 144.963 162.632 144.135Z" fill="white"/>
<path d="M170.834 144.388L171.363 144.802C170.887 145.462 170.236 146.014 169.408 146.458C168.58 146.888 167.775 147.102 166.993 147.102C166.211 147.102 165.582 146.872 165.107 146.412C164.631 145.952 164.394 145.347 164.394 144.595C164.394 143.185 165.137 141.797 166.625 140.432C168.127 139.068 169.645 138.385 171.179 138.385C172.191 138.385 172.697 138.784 172.697 139.581C172.697 140.409 172.16 141.245 171.087 142.088C170.029 142.932 168.534 143.698 166.602 144.388C166.74 144.741 166.954 145.017 167.246 145.216C167.537 145.416 167.836 145.515 168.143 145.515C168.802 145.515 169.699 145.14 170.834 144.388ZM166.487 143.698C167.729 143.269 168.794 142.732 169.684 142.088C170.573 141.444 171.018 140.854 171.018 140.317C171.018 140.118 170.941 139.942 170.788 139.788C170.634 139.635 170.458 139.558 170.259 139.558C169.538 139.558 168.756 140.011 167.913 140.915C167.085 141.805 166.609 142.732 166.487 143.698Z" fill="white"/>
<path d="M177.845 137.35C176.987 137.35 176.557 137.005 176.557 136.315C176.557 135.932 176.665 135.61 176.879 135.349C177.094 135.089 177.37 134.958 177.707 134.958C178.045 134.958 178.321 135.058 178.535 135.257C178.75 135.457 178.857 135.717 178.857 136.039C178.857 136.361 178.765 136.66 178.581 136.936C178.397 137.212 178.152 137.35 177.845 137.35ZM177.546 144.135L178.006 144.526C177.638 145.232 177.148 145.837 176.534 146.343C175.936 146.834 175.392 147.079 174.901 147.079C174.043 147.079 173.613 146.481 173.613 145.285C173.613 143.798 174.227 141.858 175.453 139.466C175.729 138.945 175.89 138.638 175.936 138.546L176.925 139.144C176.603 139.727 176.205 140.655 175.729 141.927C175.269 143.2 175.039 144.02 175.039 144.388C175.039 144.741 175.116 144.994 175.269 145.147C175.423 145.301 175.607 145.377 175.821 145.377C176.235 145.377 176.81 144.963 177.546 144.135Z" fill="white"/>
<path d="M185.748 138.96C186.131 138.96 186.445 139.091 186.691 139.351C186.936 139.612 187.059 139.949 187.059 140.363C187.059 141.191 186.583 142.065 185.633 142.985L185.081 142.548C185.295 142.073 185.403 141.728 185.403 141.513C185.403 141.099 185.173 140.892 184.713 140.892C184.253 140.892 183.816 141.184 183.402 141.766C182.988 142.349 182.497 143.254 181.93 144.48C181.378 145.692 180.956 146.55 180.665 147.056L179.354 146.481C180.197 144.565 180.68 143.438 180.803 143.1C181.217 141.904 181.424 140.386 181.424 138.546L182.712 138.201C182.666 139.198 182.597 139.972 182.505 140.524C182.413 141.061 182.19 141.943 181.838 143.169C183.386 140.363 184.69 138.96 185.748 138.96Z" fill="white"/>
<path d="M197.35 144.779L197.879 145.17C197.665 145.63 197.266 146.067 196.683 146.481C196.116 146.895 195.595 147.102 195.119 147.102C194.215 147.102 193.762 146.627 193.762 145.676C193.762 145.232 193.877 144.703 194.107 144.089L193.256 144.963C192.428 145.807 191.708 146.374 191.094 146.665C190.496 146.957 189.906 147.102 189.323 147.102C188.741 147.102 188.296 146.941 187.989 146.619C187.698 146.282 187.552 145.822 187.552 145.239C187.552 144.166 187.966 143.108 188.794 142.065C189.622 141.007 190.68 140.149 191.968 139.489C193.256 138.83 194.544 138.493 195.832 138.477L195.878 139.236L194.912 139.443C193.517 139.75 192.283 140.363 191.209 141.283C190.151 142.203 189.622 143.123 189.622 144.043C189.622 144.948 189.99 145.4 190.726 145.4C191.416 145.4 192.267 144.917 193.279 143.951C194.291 142.985 195.135 141.851 195.809 140.547L196.775 141.122C195.825 143.039 195.349 144.258 195.349 144.779C195.349 144.994 195.418 145.178 195.556 145.331C195.71 145.469 195.855 145.538 195.993 145.538C196.147 145.538 196.246 145.531 196.292 145.515C196.338 145.5 196.384 145.485 196.43 145.469C196.476 145.439 196.53 145.4 196.591 145.354C196.668 145.308 196.729 145.262 196.775 145.216C196.837 145.17 196.929 145.101 197.051 145.009C197.174 144.917 197.274 144.841 197.35 144.779Z" fill="white"/>
<path d="M220.586 148.597L220.701 149.678C220.271 149.755 219.896 149.793 219.574 149.793C218.853 149.793 218.163 149.31 217.504 148.344C216.844 147.394 216.323 146.274 215.939 144.986C215.571 143.698 215.342 142.456 215.25 141.26C214.483 143.254 213.754 144.703 213.064 145.607C212.39 146.497 211.692 146.941 210.971 146.941C210.603 146.941 210.312 146.796 210.098 146.504C209.883 146.198 209.775 145.799 209.775 145.308C209.775 144.174 210.297 142.732 211.34 140.984C212.398 139.236 213.632 137.803 215.043 136.683C215.073 136.591 215.204 136.032 215.434 135.004C215.679 133.977 215.824 133.41 215.87 133.302L217.204 133.187C217.204 133.448 217.135 133.992 216.997 134.82C219.067 133.241 220.77 132.451 222.104 132.451C222.732 132.451 223.231 132.628 223.599 132.98C223.967 133.318 224.15 133.778 224.15 134.36C224.15 135.817 223.415 137.289 221.943 138.776C220.471 140.248 218.899 141.115 217.228 141.375C217.35 143.599 217.734 145.339 218.378 146.596C219.037 147.854 219.773 148.521 220.586 148.597ZM213.893 140.915C214.307 139.811 214.59 138.93 214.743 138.27C213.9 139.052 213.118 140.095 212.398 141.398C211.692 142.702 211.34 143.668 211.34 144.296C211.34 144.618 211.47 144.779 211.73 144.779C212.19 144.779 212.911 143.491 213.893 140.915ZM215.456 140.593C217.082 140.593 218.539 140.026 219.827 138.891C221.115 137.757 221.758 136.63 221.758 135.51C221.758 135.096 221.651 134.774 221.437 134.544C221.237 134.314 220.915 134.199 220.471 134.199C220.026 134.199 219.382 134.452 218.538 134.958C217.695 135.449 217.09 135.855 216.722 136.177C216.246 138.063 215.824 139.535 215.456 140.593Z" fill="white"/>
<path d="M228.985 144.388L229.514 144.802C229.039 145.462 228.387 146.014 227.559 146.458C226.731 146.888 225.926 147.102 225.144 147.102C224.362 147.102 223.733 146.872 223.258 146.412C222.783 145.952 222.545 145.347 222.545 144.595C222.545 143.185 223.289 141.797 224.776 140.432C226.279 139.068 227.797 138.385 229.33 138.385C230.342 138.385 230.848 138.784 230.848 139.581C230.848 140.409 230.311 141.245 229.238 142.088C228.18 142.932 226.685 143.698 224.753 144.388C224.891 144.741 225.106 145.017 225.397 145.216C225.688 145.416 225.987 145.515 226.294 145.515C226.953 145.515 227.85 145.14 228.985 144.388ZM224.638 143.698C225.88 143.269 226.946 142.732 227.835 142.088C228.724 141.444 229.169 140.854 229.169 140.317C229.169 140.118 229.092 139.942 228.939 139.788C228.786 139.635 228.609 139.558 228.41 139.558C227.689 139.558 226.907 140.011 226.064 140.915C225.236 141.805 224.761 142.732 224.638 143.698Z" fill="white"/>
<path d="M238.454 145.4L238.431 146.366C238.078 146.382 237.595 146.397 236.982 146.412C236.368 146.428 235.939 146.443 235.694 146.458C235.464 146.458 235.142 146.474 234.728 146.504C234.022 146.55 233.371 146.642 232.773 146.78C232.021 146.949 231.615 147.033 231.554 147.033C231.262 147.033 230.963 146.857 230.657 146.504C230.365 146.152 230.22 145.807 230.22 145.469C230.22 144.825 232.52 142.886 237.12 139.65C236.92 139.635 236.46 139.627 235.74 139.627C235.034 139.627 233.8 139.781 232.037 140.087L231.899 139.305C232.941 138.677 234.889 138.362 237.741 138.362C238.339 138.362 238.76 138.408 239.006 138.5C239.266 138.592 239.397 138.799 239.397 139.121C239.397 139.474 239.197 139.796 238.799 140.087C238.722 140.149 238.592 140.233 238.408 140.34C238.239 140.448 237.925 140.662 237.465 140.984C237.005 141.306 236.537 141.644 236.062 141.996C235.602 142.334 235.011 142.847 234.291 143.537C233.57 144.227 232.88 144.986 232.221 145.814C234.337 145.477 235.763 145.308 236.499 145.308C237.25 145.308 237.902 145.339 238.454 145.4Z" fill="white"/>
<path d="M246.594 144.388L247.123 144.802C246.648 145.462 245.996 146.014 245.168 146.458C244.34 146.888 243.535 147.102 242.753 147.102C241.971 147.102 241.343 146.872 240.867 146.412C240.392 145.952 240.154 145.347 240.154 144.595C240.154 143.185 240.898 141.797 242.385 140.432C243.888 139.068 245.406 138.385 246.939 138.385C247.951 138.385 248.457 138.784 248.457 139.581C248.457 140.409 247.921 141.245 246.847 142.088C245.789 142.932 244.294 143.698 242.362 144.388C242.5 144.741 242.715 145.017 243.006 145.216C243.298 145.416 243.597 145.515 243.903 145.515C244.563 145.515 245.46 145.14 246.594 144.388ZM242.247 143.698C243.489 143.269 244.555 142.732 245.444 142.088C246.334 141.444 246.778 140.854 246.778 140.317C246.778 140.118 246.702 139.942 246.548 139.788C246.395 139.635 246.219 139.558 246.019 139.558C245.299 139.558 244.517 140.011 243.673 140.915C242.845 141.805 242.37 142.732 242.247 143.698Z" fill="white"/>
<path d="M258.551 144.319L259.034 144.687C258.697 145.362 258.229 145.929 257.631 146.389C257.048 146.849 256.519 147.079 256.044 147.079C255.569 147.079 255.193 146.941 254.917 146.665C254.641 146.389 254.503 146.044 254.503 145.63C254.503 145.216 254.764 144.496 255.285 143.468C255.822 142.426 256.09 141.659 256.09 141.168C256.09 140.954 255.998 140.762 255.814 140.593C255.645 140.409 255.438 140.317 255.193 140.317C254.411 140.317 253.621 140.915 252.824 142.111C252.027 143.292 251.137 145.002 250.156 147.24L248.776 146.757C249.067 144.979 249.481 143.246 250.018 141.559C250.57 139.857 251.076 138.638 251.536 137.902L252.479 138.201C252.05 139.29 251.505 141.168 250.846 143.836C252.962 140.218 254.909 138.408 256.688 138.408C257.071 138.408 257.386 138.539 257.631 138.799C257.892 139.06 258.022 139.367 258.022 139.719C258.022 140.072 257.976 140.394 257.884 140.685C257.792 140.961 257.501 141.621 257.01 142.663C256.535 143.691 256.297 144.335 256.297 144.595C256.297 144.856 256.374 145.063 256.527 145.216C256.68 145.354 256.826 145.423 256.964 145.423C257.102 145.423 257.217 145.4 257.309 145.354C257.401 145.308 257.501 145.239 257.608 145.147C257.731 145.055 257.838 144.971 257.93 144.894C258.022 144.818 258.129 144.718 258.252 144.595C258.39 144.457 258.49 144.365 258.551 144.319Z" fill="white"/>
<path d="M272.555 130.105L273.728 130.519L273.406 131.117C271.719 134.261 270.286 137.304 269.105 140.248C268.323 142.18 267.932 143.629 267.932 144.595C267.932 144.841 267.993 145.04 268.116 145.193C268.239 145.331 268.43 145.4 268.691 145.4C268.967 145.4 269.281 145.224 269.634 144.871L270.048 145.262C269.849 145.707 269.504 146.121 269.013 146.504C268.522 146.872 268.047 147.056 267.587 147.056C266.698 147.056 266.253 146.535 266.253 145.492C266.253 144.879 266.422 143.936 266.759 142.663C264.95 145.822 263.179 147.401 261.446 147.401C260.848 147.401 260.373 147.217 260.02 146.849C259.667 146.481 259.491 145.983 259.491 145.354C259.491 144.358 259.89 143.323 260.687 142.249C261.484 141.176 262.466 140.302 263.631 139.627C264.796 138.937 265.885 138.592 266.897 138.592L266.966 139.397C265.647 139.566 264.413 140.141 263.263 141.122C262.128 142.088 261.561 143.077 261.561 144.089C261.561 144.519 261.676 144.864 261.906 145.124C262.136 145.37 262.435 145.492 262.803 145.492C263.554 145.492 264.536 144.687 265.747 143.077C266.192 142.495 266.698 141.644 267.265 140.524C267.848 139.405 268.308 138.508 268.645 137.833C268.998 137.143 269.335 136.476 269.657 135.832C269.994 135.173 270.431 134.314 270.968 133.256C271.505 132.183 272.034 131.133 272.555 130.105Z" fill="white"/>
<path d="M278.871 144.388L279.4 144.802C278.924 145.462 278.273 146.014 277.445 146.458C276.617 146.888 275.812 147.102 275.03 147.102C274.248 147.102 273.619 146.872 273.144 146.412C272.668 145.952 272.431 145.347 272.431 144.595C272.431 143.185 273.174 141.797 274.662 140.432C276.164 139.068 277.682 138.385 279.216 138.385C280.228 138.385 280.734 138.784 280.734 139.581C280.734 140.409 280.197 141.245 279.124 142.088C278.066 142.932 276.571 143.698 274.639 144.388C274.777 144.741 274.991 145.017 275.283 145.216C275.574 145.416 275.873 145.515 276.18 145.515C276.839 145.515 277.736 145.14 278.871 144.388ZM274.524 143.698C275.766 143.269 276.831 142.732 277.721 142.088C278.61 141.444 279.055 140.854 279.055 140.317C279.055 140.118 278.978 139.942 278.825 139.788C278.671 139.635 278.495 139.558 278.296 139.558C277.575 139.558 276.793 140.011 275.95 140.915C275.122 141.805 274.646 142.732 274.524 143.698Z" fill="white"/>
</svg>
