<svg width="101" height="102" viewBox="0 0 101 102" fill="none" xmlns="http://www.w3.org/2000/svg">
<path d="M45.9091 37.6207H64.2727C65.4903 37.6207 66.658 37.137 67.519 36.2761C68.38 35.4151 68.8636 34.2474 68.8636 33.0298C68.8636 31.8122 68.38 30.6445 67.519 29.7835C66.658 28.9226 65.4903 28.4389 64.2727 28.4389H55.0909V23.848C55.0909 22.6304 54.6072 21.4627 53.7463 20.6017C52.8853 19.7408 51.7176 19.2571 50.5 19.2571C49.2824 19.2571 48.1147 19.7408 47.2537 20.6017C46.3928 21.4627 45.9091 22.6304 45.9091 23.848V28.4389C42.2563 28.4389 38.7532 29.8899 36.1703 32.4728C33.5874 35.0557 32.1364 38.5589 32.1364 42.2116C32.1364 45.8644 33.5874 49.3675 36.1703 51.9504C38.7532 54.5333 42.2563 55.9843 45.9091 55.9843H55.0909C56.3085 55.9843 57.4762 56.468 58.3372 57.329C59.1981 58.1899 59.6818 59.3577 59.6818 60.5752C59.6818 61.7928 59.1981 62.9605 58.3372 63.8215C57.4762 64.6825 56.3085 65.1662 55.0909 65.1662H36.7273C35.5097 65.1662 34.342 65.6498 33.481 66.5108C32.6201 67.3718 32.1364 68.5395 32.1364 69.7571C32.1364 70.9746 32.6201 72.1424 33.481 73.0033C34.342 73.8643 35.5097 74.348 36.7273 74.348H45.9091V78.9389C45.9091 80.1565 46.3928 81.3242 47.2537 82.1851C48.1147 83.0461 49.2824 83.5298 50.5 83.5298C51.7176 83.5298 52.8853 83.0461 53.7463 82.1851C54.6072 81.3242 55.0909 80.1565 55.0909 78.9389V74.348C58.7437 74.348 62.2468 72.8969 64.8297 70.314C67.4126 67.7311 68.8636 64.228 68.8636 60.5752C68.8636 56.9225 67.4126 53.4193 64.8297 50.8365C62.2468 48.2536 58.7437 46.8025 55.0909 46.8025H45.9091C44.6915 46.8025 43.5238 46.3188 42.6628 45.4579C41.8019 44.5969 41.3182 43.4292 41.3182 42.2116C41.3182 40.994 41.8019 39.8263 42.6628 38.9653C43.5238 38.1044 44.6915 37.6207 45.9091 37.6207ZM50.5 0.893433C40.5121 0.893433 30.7484 3.85521 22.4437 9.40422C14.139 14.9532 7.66633 22.8403 3.84411 32.0679C0.0218811 41.2956 -0.978187 51.4494 0.970366 61.2455C2.91892 71.0415 7.72858 80.0398 14.7911 87.1023C21.8537 94.1649 30.8519 98.9745 40.648 100.923C50.444 102.872 60.5979 101.872 69.8255 98.0493C79.0532 94.2271 86.9402 87.7544 92.4892 79.4497C98.0382 71.145 101 61.3814 101 51.3934C101 38 95.6795 25.1551 86.2089 15.6845C76.7383 6.21395 63.8934 0.893433 50.5 0.893433ZM50.5 92.7116C42.328 92.7116 34.3396 90.2883 27.5449 85.7482C20.7501 81.2081 15.4543 74.7551 12.327 67.2052C9.19972 59.6553 8.38148 51.3476 9.97576 43.3326C11.57 35.3177 15.5052 27.9555 21.2836 22.1771C27.0621 16.3986 34.4243 12.4634 42.4392 10.8692C50.4542 9.2749 58.7619 10.0931 66.3118 13.2204C73.8617 16.3477 80.3147 21.6435 84.8548 28.4383C89.3949 35.233 91.8182 43.2215 91.8182 51.3934C91.8182 62.3517 87.465 72.8611 79.7164 80.6098C71.9677 88.3584 61.4583 92.7116 50.5 92.7116Z" fill="#7FA0AD"/>
</svg>
