<svg width="101" height="102" viewBox="0 0 101 102" fill="none" xmlns="http://www.w3.org/2000/svg">
<path d="M25.25 26.1431C24.2512 26.1431 23.2748 26.4393 22.4444 26.9941C21.6139 27.549 20.9666 28.3377 20.5844 29.2605C20.2022 30.1832 20.1022 31.1986 20.297 32.1782C20.4919 33.1578 20.9729 34.0576 21.6791 34.7638C22.3854 35.4701 23.2852 35.9511 24.2648 36.1459C25.2444 36.3408 26.2598 36.2408 27.1826 35.8585C28.1053 35.4763 28.894 34.8291 29.4489 33.9986C30.0038 33.1681 30.3 32.1918 30.3 31.193C30.3 29.8537 29.7679 28.5692 28.8209 27.6222C27.8738 26.6751 26.5893 26.1431 25.25 26.1431ZM25.25 46.3428C24.2512 46.3428 23.2748 46.639 22.4444 47.1939C21.6139 47.7488 20.9666 48.5374 20.5844 49.4602C20.2022 50.383 20.1022 51.3983 20.297 52.3779C20.4919 53.3575 20.9729 54.2573 21.6791 54.9636C22.3854 55.6698 23.2852 56.1508 24.2648 56.3456C25.2444 56.5405 26.2598 56.4405 27.1826 56.0583C28.1053 55.676 28.894 55.0288 29.4489 54.1983C30.0038 53.3679 30.3 52.3915 30.3 51.3927C30.3 50.0534 29.7679 48.7689 28.8209 47.8219C27.8738 46.8748 26.5893 46.3428 25.25 46.3428ZM75.75 46.3428H45.45C44.1107 46.3428 42.8262 46.8748 41.8791 47.8219C40.9321 48.7689 40.4 50.0534 40.4 51.3927C40.4 52.7321 40.9321 54.0165 41.8791 54.9636C42.8262 55.9106 44.1107 56.4427 45.45 56.4427H75.75C77.0893 56.4427 78.3738 55.9106 79.3209 54.9636C80.268 54.0165 80.8 52.7321 80.8 51.3927C80.8 50.0534 80.268 48.7689 79.3209 47.8219C78.3738 46.8748 77.0893 46.3428 75.75 46.3428ZM75.75 26.1431H45.45C44.1107 26.1431 42.8262 26.6751 41.8791 27.6222C40.9321 28.5692 40.4 29.8537 40.4 31.193C40.4 32.5323 40.9321 33.8168 41.8791 34.7638C42.8262 35.7109 44.1107 36.2429 45.45 36.2429H75.75C77.0893 36.2429 78.3738 35.7109 79.3209 34.7638C80.268 33.8168 80.8 32.5323 80.8 31.193C80.8 29.8537 80.268 28.5692 79.3209 27.6222C78.3738 26.6751 77.0893 26.1431 75.75 26.1431ZM85.85 0.893433H15.15C11.132 0.893433 7.27851 2.48957 4.43733 5.3307C1.59616 8.17184 0 12.0252 0 16.0432V66.5425C0 70.5605 1.59616 74.4139 4.43733 77.255C7.27851 80.0962 11.132 81.6923 15.15 81.6923H73.6795L92.3645 100.428C92.8364 100.896 93.396 101.266 94.0113 101.517C94.6265 101.768 95.2854 101.896 95.95 101.892C96.6124 101.909 97.2697 101.771 97.869 101.488C98.7912 101.109 99.5807 100.466 100.138 99.6391C100.695 98.8123 100.995 97.8391 101 96.8421V16.0432C101 12.0252 99.4038 8.17184 96.5627 5.3307C93.7215 2.48957 89.868 0.893433 85.85 0.893433ZM90.9 84.6718L79.3355 73.0569C78.8636 72.5889 78.304 72.2186 77.6887 71.9673C77.0735 71.716 76.4146 71.5886 75.75 71.5924H15.15C13.8107 71.5924 12.5262 71.0604 11.5791 70.1134C10.6321 69.1663 10.1 67.8818 10.1 66.5425V16.0432C10.1 14.7039 10.6321 13.4194 11.5791 12.4724C12.5262 11.5253 13.8107 10.9933 15.15 10.9933H85.85C87.1893 10.9933 88.4738 11.5253 89.4209 12.4724C90.368 13.4194 90.9 14.7039 90.9 16.0432V84.6718Z" fill="#7FA0AD"/>
</svg>
