<?xml version="1.0" encoding="UTF-8" standalone="no"?>
<!-- Created with Inkscape (http://www.inkscape.org/) -->

<svg
   version="1.1"
   id="svg2"
   width="457.31186"
   height="313.7124"
   viewBox="0 0 457.31186 313.71241"
   sodipodi:docname="vr1-logo-plain.svg"
   xmlns:inkscape="http://www.inkscape.org/namespaces/inkscape"
   xmlns:sodipodi="http://sodipodi.sourceforge.net/DTD/sodipodi-0.dtd"
   xmlns="http://www.w3.org/2000/svg"
   xmlns:svg="http://www.w3.org/2000/svg">
  <defs
     id="defs6">
    <clipPath
       clipPathUnits="userSpaceOnUse"
       id="clipPath188">
      <path
         d="M 0,367.867 H 420.52 V 0 H 0 Z"
         id="path186" />
    </clipPath>
  </defs>
  <sodipodi:namedview
     id="namedview4"
     pagecolor="#ffffff"
     bordercolor="#666666"
     borderopacity="1.0"
     inkscape:showpageshadow="2"
     inkscape:pageopacity="0.0"
     inkscape:pagecheckerboard="0"
     inkscape:deskcolor="#d1d1d1"
     showgrid="false"
     inkscape:lockguides="true" />
  <g
     id="g180"
     inkscape:groupmode="layer"
     inkscape:label="Page 2"
     transform="matrix(1.3333333,0,0,-1.3333333,-51.690799,424.96932)">
    <g
       id="g182">
      <g
         id="g184"
         clip-path="url(#clipPath188)">
        <g
           id="g190"
           transform="translate(239.6795,217.5387)"
           style="fill:#ffffff">
          <path
             d="M 0,0 H -29.875 V -42.873 H 0 c 13.91,0 23.032,8.894 23.032,21.436 C 23.032,-8.894 13.91,0 0,0 m 24.628,-134.096 -31.697,64.768 h -22.806 v -64.768 h -31.7 V 28.28 H 2.053 c 33.067,0 52.679,-22.58 52.679,-49.717 0,-22.806 -13.91,-36.944 -29.646,-42.647 l 36.261,-70.012 z"
             style="fill:#ffffff;fill-opacity:1;fill-rule:nonzero;stroke:none"
             id="path192" />
        </g>
        <g
           id="g194"
           transform="translate(336.3723,83.443)"
           style="fill:#ffffff">
          <path
             d="M 0,0 V 130.446 L -33.07,101.712 V 133.64 L 0,162.375 H 29.647 V 0 Z"
             style="fill:#ffffff;fill-opacity:1;fill-rule:nonzero;stroke:none"
             id="path196" />
        </g>
        <g
           id="g198"
           transform="translate(136.8866,245.7531)"
           style="fill:#ffffff">
          <path
             d="M 0,0 22.869,-29.342 32.5,-1.477 32.989,0 Z"
             style="fill:#ffffff;fill-opacity:1;fill-rule:nonzero;stroke:none"
             id="path200" />
        </g>
        <g
           id="g202"
           transform="translate(157.7091,214.817)"
           style="fill:#ffffff">
          <path
             d="M 0,0 -21.809,27.986 -53.491,-74.815 -86.103,31.001 h -32.838 l 53.591,-162.375 h 23.718 L 1.343,-1.721 Z"
             style="fill:#ffffff;fill-opacity:1;fill-rule:nonzero;stroke:none"
             id="path204" />
        </g>
        <g
           id="g206"
           transform="translate(336.3723,213.89)"
           style="fill:#ffffff">
          <path
             d="M 0,0 -33.07,-28.735 V 3.192 L 0,31.929"
             style="fill:#ffffff;fill-opacity:1;fill-rule:nonzero;stroke:none"
             id="path208" />
        </g>
        <path
           d="m 352.98,304.777 h -5.231 v 13.95 h 5.231 z"
           style="fill:#ffffff;fill-opacity:1;fill-rule:nonzero;stroke:none"
           id="path304" />
        <g
           id="g306"
           transform="translate(343.9086,303.7523)"
           style="fill:#ffffff">
          <path
             d="m 0,0 -4.53,-2.616 -6.977,12.081 4.532,2.616 z"
             style="fill:#ffffff;fill-opacity:1;fill-rule:nonzero;stroke:none"
             id="path308" />
        </g>
        <g
           id="g310"
           transform="translate(336.5693,298.3273)"
           style="fill:#ffffff">
          <path
             d="m 0,0 -2.616,-4.534 -12.085,6.979 2.615,4.53 z"
             style="fill:#ffffff;fill-opacity:1;fill-rule:nonzero;stroke:none"
             id="path312" />
        </g>
        <path
           d="m 332.922,284.726 h -13.95 v 5.231 h 13.95 z"
           style="fill:#ffffff;fill-opacity:1;fill-rule:nonzero;stroke:none"
           id="path314" />
        <g
           id="g316"
           transform="translate(333.9536,280.8886)"
           style="fill:#ffffff">
          <path
             d="m 0,0 2.616,-4.53 -12.086,-6.975 -2.616,4.53 z"
             style="fill:#ffffff;fill-opacity:1;fill-rule:nonzero;stroke:none"
             id="path318" />
        </g>
        <g
           id="g320"
           transform="translate(339.3776,273.5483)"
           style="fill:#ffffff">
          <path
             d="m 0,0 4.53,-2.616 -6.975,-12.085 -4.53,2.615 z"
             style="fill:#ffffff;fill-opacity:1;fill-rule:nonzero;stroke:none"
             id="path322" />
        </g>
        <path
           d="m 347.749,269.904 h 5.231 v -13.95 h -5.231 z"
           style="fill:#ffffff;fill-opacity:1;fill-rule:nonzero;stroke:none"
           id="path324" />
        <g
           id="g326"
           transform="translate(356.8141,270.9292)"
           style="fill:#ffffff">
          <path
             d="M 0,0 4.532,2.618 11.505,-9.465 6.977,-12.081 Z"
             style="fill:#ffffff;fill-opacity:1;fill-rule:nonzero;stroke:none"
             id="path328" />
        </g>
        <g
           id="g330"
           transform="translate(364.1574,276.3545)"
           style="fill:#ffffff">
          <path
             d="M 0,0 2.616,4.534 14.695,-2.445 12.081,-6.971 Z"
             style="fill:#ffffff;fill-opacity:1;fill-rule:nonzero;stroke:none"
             id="path332" />
        </g>
        <g
           id="g334"
           transform="translate(367.802,284.7234)"
           style="fill:#ffffff">
          <path
             d="M 0,0 V 5.234 L 13.948,5.231 13.95,0.002 Z"
             style="fill:#ffffff;fill-opacity:1;fill-rule:nonzero;stroke:none"
             id="path336" />
        </g>
        <g
           id="g338"
           transform="translate(366.7732,293.7929)"
           style="fill:#ffffff">
          <path
             d="M 0,0 -2.616,4.534 9.463,11.505 12.081,6.98 Z"
             style="fill:#ffffff;fill-opacity:1;fill-rule:nonzero;stroke:none"
             id="path340" />
        </g>
        <g
           id="g342"
           transform="translate(361.347,301.1366)"
           style="fill:#ffffff">
          <path
             d="m 0,0 -4.532,2.616 6.977,12.081 4.53,-2.616 z"
             style="fill:#ffffff;fill-opacity:1;fill-rule:nonzero;stroke:none"
             id="path344" />
        </g>
      </g>
    </g>
  </g>
</svg>
