<svg version="1.2" xmlns="http://www.w3.org/2000/svg" viewBox="0 0 2870 1039" width="2870" height="1039">
	<title>Logo-Confiance-Invest-BRANCA-COM-AZUL-RGB-300DPI</title>
	<style>
		.s0 { fill: #a7c6fb } 
	</style>
	<path id="Path 0" fill-rule="evenodd" class="s0" d="m253.1 118c13.5 0 18 0.3 18.3 1.3 0.2 0.7 4.2 1.7 10.7 2.5 5.7 0.6 14.7 2.3 19.9 3.7 5.2 1.4 12 3.5 15 4.6 3 1.1 10.2 4.5 16 7.5 5.8 3 14 8.1 18.3 11.2 4.4 3.1 10.9 8.9 14.6 12.7 3.6 3.8 8 8.8 9.8 11 2.6 3.4 3.3 3.8 4.7 2.8 1.4-1.2 1.5-3.9 0.9-25-0.6-21.8-0.5-24 1.1-25.5 1.5-1.6 4-1.8 21.2-1.8 18.1 0 19.5 0.1 21.4 2 2 2 2 3.3 2 66.8 0 56-0.2 65-1.5 67-1.5 2.2-1.8 2.2-24 2.2-21.5 0-22.5-0.1-23.5-2-0.6-1.1-1-4.5-1-7.5 0-3-0.7-8.1-1.6-11.2-0.9-3.2-2.8-8-4.1-10.8-1.4-2.7-4.7-7.9-7.3-11.5-2.7-3.6-7.9-9.4-11.7-13-3.7-3.6-9.5-8.6-12.8-11.1-3.3-2.4-7.8-5.6-10-7-2.2-1.5-6.7-4-10-5.6-3.3-1.7-10.1-4.5-15-6.3-4.9-1.7-13.7-4.3-19.5-5.6-6.7-1.5-15.3-2.7-23.5-3-9.4-0.5-15.9-0.2-23.5 0.9-5.8 0.9-14.3 2.7-19 4.1-4.7 1.3-12.1 3.8-16.5 5.5-4.4 1.7-11.8 5.4-16.5 8.2-4.7 2.8-11.2 7.3-14.5 9.9-3.3 2.6-10.3 9.2-15.6 14.6-5.2 5.5-11.9 13.5-14.9 17.9-3 4.4-7.5 12.5-10.1 18-2.6 5.5-6 13.6-7.4 18-1.4 4.4-3.7 12.5-5 18-1.3 5.5-2.9 14.3-3.6 19.5-0.7 5.2-1.2 17.1-1.2 26.5 0 9.4 0.5 21.3 1.2 26.5 0.7 5.2 2.3 14 3.6 19.5 1.3 5.5 3.5 13.6 5 18 1.4 4.4 5.2 13.4 8.5 20 3.3 6.6 8.8 15.8 12.3 20.5 3.6 4.7 11.2 13.1 17.1 18.8 5.8 5.6 13.9 12.4 17.9 15.1 3.9 2.6 10.5 6.5 14.5 8.5 3.9 2 10.2 4.7 14 6.1 3.7 1.4 11 3.7 16.2 5 5.2 1.3 13.6 2.8 18.5 3.4 4.9 0.6 12.5 1.1 16.8 1.1 4.2 0 12.1-0.5 17.5-1 5.3-0.6 14.4-2 20.2-3.1 5.8-1.1 15.2-3.7 21-5.6 5.8-1.9 14.1-5.3 18.5-7.3 4.4-2.1 12.1-6.6 17-9.8 4.9-3.3 13-9.8 17.9-14.4 4.9-4.6 11-11 13.5-14.2 2.5-3.3 6.9-9.4 9.6-13.5 4.5-6.9 5.4-7.6 8.5-7.8 2.9-0.2 5.6 1.2 17 9 9.7 6.6 13.8 10 14.5 12 0.9 2.4 0.5 3.8-2.5 9.5-1.9 3.7-6.4 10.7-9.9 15.7-3.5 4.9-9.3 12.3-13 16.4-3.6 4.1-10.2 10.5-14.6 14.2-4.4 3.7-12.3 9.6-17.5 13.1-5.2 3.5-13.6 8.4-18.5 11-4.9 2.5-12.6 6.1-17 7.8-4.4 1.8-11.4 4.2-15.5 5.5-4.1 1.2-11.8 3.2-17 4.3-5.2 1.2-14.9 2.8-21.5 3.6-7.3 1-19.5 1.6-31 1.6-13.6 0-22.7-0.6-32-1.9-7.1-1.1-17.4-3.1-22.7-4.5-5.4-1.4-13.3-4-17.5-5.7-4.3-1.7-13.4-6-20.3-9.5-6.9-3.6-16.6-9.4-21.5-12.9-4.9-3.6-12.4-9.5-16.5-13.3-4.1-3.8-10.9-10.9-15.1-15.8-4.1-4.9-10.3-13-13.6-17.9-3.3-4.9-8.2-13.3-11-18.5-2.8-5.2-7.1-14.7-9.7-21-2.5-6.3-6.1-17.8-8.1-25.5-1.9-7.7-4.4-20.9-5.5-29.2-1.4-10.7-2-21.2-2-35 0-14 0.6-24 1.9-34.3 1.1-8 2.9-18.6 4.1-23.5 1.1-4.9 3.2-12.6 4.7-17 1.4-4.4 4.4-12.3 6.6-17.5 2.2-5.2 6.2-13.6 9-18.5 2.7-4.9 7.5-12.6 10.5-17 3.1-4.4 8.8-11.8 12.8-16.5 4-4.7 9.9-10.8 13.1-13.6 3.2-2.8 9.2-7.7 13.3-10.8 4.1-3.2 11.8-8.3 17-11.4 5.2-3.1 13.1-7.2 17.5-9.2 4.4-2 11.4-4.8 15.5-6.3 4.1-1.5 11.8-3.7 17-5.1 5.2-1.3 14.2-3 19.9-3.8 6.3-0.8 10.5-1.8 10.8-2.5 0.4-1 5-1.3 18.4-1.3zm1040.5 0c9.9 0 13.5 0.3 13.8 1.3 0.1 0.6 2.5 1.6 5.2 2 2.7 0.5 7.8 2 11.4 3.4 3.6 1.4 10.1 4.7 14.5 7.4 4.4 2.7 9.9 6.6 12.2 8.6 3.1 2.9 4.2 4.6 4.2 6.8 0.1 2.2-1.8 5.5-7.2 12.4-3.9 5.2-8.1 10-9.2 10.8-1.1 0.7-2.9 1.3-4 1.3-1.1 0-4.5-1.6-7.5-3.5-3-2-9-4.7-13.2-6-5.6-1.8-10-2.5-15.5-2.5-4.9 0-10.4 0.8-14.8 2.1-3.8 1.1-8.8 3.1-11 4.4-2.2 1.2-6.1 4.6-8.7 7.4-2.7 2.8-6.1 7.9-7.8 11.4-1.6 3.4-3.7 9.6-4.6 13.7-1.1 5-1.7 14.5-2.1 28.5-0.3 13.5-0.1 21.5 0.6 22.5 0.9 1.3 14 1.6 104.4 2 90 0.4 103.6 0.7 105.1 2 1.6 1.4 1.7 9.8 1.6 120.3 0 104.2 0.2 118.9 1.5 120.2 1.2 1.2 4.6 1.5 17.5 1.5 12.9 0 16.3 0.3 17.5 1.5 1.2 1.2 1.5 4.6 1.5 17 0 12.8-0.3 15.8-1.6 17-1.3 1.3-9.5 1.5-60.2 1.5-54 0.1-58.8 0-60.2-1.6-1.2-1.4-1.5-4.8-1.5-16.9 0-12.1 0.3-15.5 1.5-16.9 1.3-1.5 3.7-1.7 17.7-1.6 13 0 16.5-0.3 17.7-1.5 1.4-1.3 1.6-11.9 1.6-101.5 0-87.6-0.2-100.2-1.5-101.5-1.3-1.3-11.7-1.5-80.9-1.5-69.3 0-79.7 0.2-81 1.5-1.4 1.3-1.6 11.9-1.6 101.5 0 87.6 0.2 100.2 1.5 101.5 1.3 1.3 5.7 1.5 27.3 1.5 23-0.1 25.9 0.1 27.2 1.6 1.2 1.4 1.5 4.8 1.5 16.9 0 12.1-0.3 15.5-1.5 16.9-1.4 1.6-6.8 1.7-70 1.7-53.9-0.1-68.8-0.3-69.8-1.3-0.9-1-1.2-5.8-1.2-17.5 0-15.3 0.1-16.4 2-17.3 1.1-0.6 9.2-1 17.9-1 12.8 0 16.3-0.3 17.5-1.5 1.4-1.3 1.6-11.9 1.6-101.5 0-87.6-0.2-100.2-1.5-101.5-1.2-1.2-4.7-1.5-18.2-1.5-13 0-17.2-0.3-18.8-1.4-1.9-1.3-2-2.6-2-17 0-13.6 0.2-15.8 1.8-17.3 1.5-1.5 4.2-1.9 19.3-2.3 14.1-0.4 17.7-0.8 18.4-2 0.5-0.8 1-12 1-25 0-12.9 0.5-26.7 1-30.5 0.6-3.8 1.8-9.9 2.6-13.5 0.9-3.6 3.3-10.1 5.3-14.5 2-4.4 5.5-10.7 7.8-14 2.2-3.3 6.9-8.6 10.4-11.8 4.2-3.8 9.8-7.6 16.4-10.8 5.5-2.7 13.6-5.8 18-6.9 4.4-1.1 9.5-2 11.3-2 1.9 0 3.4-0.6 3.8-1.5 0.5-1.2 3-1.5 14-1.5zm1402 493c15.9 0 16.4 0.1 17.9 2.3 1.3 1.8 1.5 6.6 1.5 27.5 0 21.1 0.2 25.4 1.5 26.7 1.3 1.3 6.3 1.5 32.8 1.5 23.1 0 31.8 0.4 33.7 1.3 2.5 1.2 2.5 1.5 2.7 14.2 0.2 9.3-0.1 13.4-1 14.3-0.9 1-8.4 1.3-33.9 1.2-27.7 0-32.9 0.2-34.2 1.5-1.4 1.3-1.6 9.2-1.6 71.8 0 67.3 0.1 70.5 2.1 78.2 1.1 4.4 3.2 10.3 4.7 13 1.5 2.8 4.9 7.3 7.7 10 3.2 3.3 7 5.8 10.5 7.2 3 1.2 8.7 2.7 12.5 3.3 3.8 0.7 9 1 11.5 0.6 2.5-0.3 6.8-1.3 9.5-2.2 2.8-0.9 6.8-2.9 9-4.4 2.2-1.4 5-3.2 6.3-3.8 1.2-0.7 3-0.9 3.9-0.4 0.9 0.4 4.8 4.6 8.5 9.5 3.7 4.8 6.8 9.6 6.8 10.7 0 1.1-1.2 3.4-2.7 5.1-1.6 1.7-6 5.1-9.8 7.5-3.8 2.4-10.2 5.5-14 6.9-3.8 1.5-9.9 2.9-13.4 3.3-3.7 0.4-6.5 1.2-6.7 2-0.3 0.8-2.8 1.2-7.9 1.2-5.1 0-7.6-0.4-7.9-1.2-0.2-0.8-2.9-1.6-6.2-2-3.3-0.4-8.6-1.5-11.9-2.3-3.3-0.9-9.3-3.3-13.3-5.3-4.1-2-9.8-5.6-12.8-7.9-3-2.4-7.7-7.6-10.4-11.5-2.8-4-6.4-10.4-8-14.3-1.6-3.9-3.7-10.1-4.6-14-1.5-6.2-1.8-15.8-2.3-83.8-0.5-66.7-0.8-76.9-2.1-77.7-0.8-0.5-8.4-1-16.7-1-14.3 0-15.4-0.1-16.3-2-0.6-1.1-1-7.1-1-13.2 0-8.2 0.4-11.8 1.4-13.3 1.3-1.8 2.9-2 17.1-2.5 12.4-0.4 15.8-0.8 16.5-2 0.6-0.8 0.9-12.7 0.9-27.2 0-22.5 0.2-25.8 1.6-27.2 1.4-1.3 4.5-1.6 18.1-1.6zm-450.3 55.1c6.4-0.1 16.1 0.6 21.5 1.4 5.3 0.8 12.4 2.1 15.7 3 3.3 0.8 11.4 4.2 18 7.5 7.2 3.6 14.9 8.4 19.3 12 3.9 3.3 9.8 9.5 13 13.8 3.1 4.2 7.6 11.3 9.9 15.7 2.3 4.4 5.3 11.4 6.7 15.5 1.3 4.1 3.4 12.2 4.6 18 1.2 6.2 2.3 16.6 2.7 25.5 0.5 13.9 0.4 15.1-1.3 16.3-1.5 1-21.1 1.2-93.1 1.2-79.7 0-91.4 0.2-92.7 1.5-0.9 0.8-1.6 2.1-1.6 2.8 0 0.6 0.7 5.2 1.5 10.2 0.8 5 2.8 13 4.5 18 1.7 5 4.7 11.9 6.8 15.5 2 3.6 5.8 9.1 8.4 12.3 2.6 3.1 7.8 8.2 11.6 11.2 3.7 3.1 9.6 7.1 13.2 8.9 3.6 1.9 10.3 4.6 15 6.1 6.4 2 11.4 2.9 20 3.3 7.1 0.3 14.6 0 19.5-0.8 4.4-0.6 12.1-2.6 17-4.2 4.9-1.7 11.7-4.4 15-6.1 3.3-1.6 8.7-4.8 12-7 3.3-2.2 10.2-8.2 15.3-13.3 7.2-7.4 9.8-9.4 12-9.4 2.1 0 4.5 1.9 10.5 8 4.9 5.1 7.7 8.8 7.7 10.3 0 1.2-1.4 4.5-3.2 7.2-1.7 2.8-6.1 7.9-9.8 11.5-3.7 3.6-10.2 9.1-14.6 12.2-4.3 3.1-12.4 7.9-17.9 10.6-5.5 2.8-13.6 6.2-18 7.6-4.4 1.4-12.1 3.3-17 4.1-4.9 0.8-10.7 1.5-12.7 1.5-2.5 0-4 0.5-4.3 1.5-0.4 1.2-2.3 1.5-9 1.5-6.7 0-8.6-0.3-9-1.5-0.3-1-1.9-1.5-4.7-1.5-2.4 0-7-0.4-10.3-1-3.3-0.5-10.1-2.1-15-3.5-4.9-1.5-13.5-4.8-19-7.5-5.5-2.7-13.6-7.5-18-10.8-4.4-3.2-10.9-9-14.5-12.8-3.6-3.8-8.6-10-11.2-13.9-2.6-3.9-6.7-11.3-9.2-16.5-2.4-5.2-5.6-13.3-6.9-18-1.4-4.7-3.2-13.6-4.1-19.7-0.9-6.2-1.6-16.3-1.6-22.3 0-6 0.7-16.1 1.5-22.2 0.8-6.2 2.4-14.7 3.6-18.8 1.1-4.1 3.6-11.1 5.6-15.5 1.9-4.4 5.1-10.7 7.1-14 1.9-3.3 5.6-8.7 8.1-12 2.5-3.3 7.3-8.6 10.6-11.8 3.3-3.3 9.6-8.3 14-11.2 4.4-2.9 10.8-6.7 14.3-8.4 3.4-1.7 10.1-4.4 15-6.1 4.8-1.6 12.5-3.6 17.2-4.4 4.7-0.8 13.8-1.4 20.3-1.5zm-21.8 33.8c-3.8 1.1-10.2 3.6-14 5.5-3.8 1.9-9.3 5.4-12.2 7.8-2.9 2.3-7.5 7-10.3 10.3-2.8 3.3-6.6 8.9-8.4 12.5-1.8 3.6-4.3 9.4-5.5 13-1.1 3.6-2.5 8.6-3.1 11.3-0.8 3.8-0.7 5 0.5 6.2 1.3 1.3 10.8 1.5 72.9 1.5 66.8 0 71.6-0.1 73.1-1.7 1.4-1.4 1.6-2.8 1-6.8-0.4-2.7-1.8-8.8-3.2-13.5-1.3-4.7-3.9-11.4-5.6-15-2.2-4.6-5.6-9-11.7-15-5.4-5.4-10.5-9.5-14-11.2-3-1.4-9.3-3.8-14-5.1-4.8-1.4-12.4-2.7-17.5-3-4.9-0.3-11.7-0.2-15 0.3-3.3 0.4-9.2 1.7-13 2.9zm268.3-33.8c6.1 0 15.8 0.6 21.5 1.4 5.6 0.9 13.4 2.7 17.2 4.1 3.8 1.3 10.2 4.3 14 6.6 3.8 2.3 9.6 6.7 12.7 9.7 5.2 5 5.9 5.4 7.3 4.1 1.2-1.2 1.6-3.7 1.5-11.2 0-7.9 0.3-9.9 1.5-10.3 0.8-0.3 6.2-0.5 12-0.5 9.5 0 10.6 0.2 11.5 2 0.6 1.2 1 16.3 1 38.8 0 27.5-0.3 37-1.2 38-0.8 0.8-5.2 1.2-14.5 1.2-9.6 0-13.5-0.3-14-1.2-0.4-0.7-1-4.9-1.4-9.3q-0.6-8-2.9-13c-1.3-2.7-5.3-8-8.9-11.6-4.1-4.1-9.1-7.9-13.1-9.9-3.6-1.8-10.8-4.4-16-5.7-7.4-2-12-2.5-21-2.5-9.8 0-12.7 0.4-20 2.7-4.7 1.5-10.1 3.8-12 5-1.9 1.3-5.5 4.2-8 6.6-2.5 2.4-5.9 7.1-7.5 10.4-2 4.1-3 8.1-3.3 12.5-0.3 4.3 0.1 8.2 1.1 11.5 0.9 2.9 3.4 7.1 6 10 2.5 2.8 6.9 6.5 9.8 8.2 3 1.8 10.6 5.1 16.9 7.4 6.3 2.2 20.9 6.5 32.5 9.6 11.6 3 25.3 6.8 30.5 8.5 5.2 1.7 13.8 5 19 7.5 5.2 2.4 12.6 6.5 16.4 9.1 3.9 2.6 8.7 7 10.7 9.7 2.1 2.8 5.2 8.1 7 12 3 6.3 3.4 8.1 3.7 18.5 0.4 8.7 0 13.5-1.3 19.5-1 4.4-3.4 11.1-5.3 15-2.4 4.9-5.8 9.3-11.1 14.5-6.2 6.2-9.5 8.5-18.1 12.8-6 2.9-14.1 6-19 7.2-4.7 1.1-12.3 2.3-16.9 2.7-5.3 0.5-8.5 1.3-8.7 2.1-0.3 0.8-3.3 1.2-10.4 1.2-7.1 0-10.1-0.4-10.4-1.2-0.2-0.8-3.1-1.6-7.2-2-3.8-0.4-10.8-1.9-15.6-3.3-4.9-1.4-12.5-4.4-17-6.6-4.6-2.3-10.5-5.8-13.3-7.9-2.7-2-6.9-5.9-9.3-8.6-2.3-2.7-4.3-5.2-4.2-5.6 0-0.5-1-0.7-2.2-0.5-2.3 0.2-2.3 0.4-2 13 0.1 7-0.2 13.6-0.8 14.7-0.9 1.8-2 2-12.7 2-8.2 0-12.2-0.4-13.1-1.2-0.9-1-1.2-10.4-1.2-41.5 0-35.3 0.2-40.5 1.6-41.8 1.2-1.2 4.2-1.5 13-1.5 6.3 0 12.3 0.5 13.4 1 1.7 0.8 2 2 2 7.3 0 3.8 0.7 7.8 1.8 10.2 1 2.2 3.2 6 4.9 8.5 1.7 2.5 5.6 7.1 8.7 10.3 3.1 3.1 8.2 7.4 11.4 9.5 3.1 2.2 8.6 5.1 12.2 6.5 3.6 1.4 9.7 3.4 13.5 4.3 5 1.3 10.9 1.8 21 1.8 9.7 0 15.8-0.5 20-1.6 3.3-0.9 8.7-2.7 12-3.9 4.2-1.6 7.8-4.1 12.3-8.3 5.1-5 6.8-7.3 8.8-12.8 1.4-4 2.4-8.9 2.4-12 0-2.9-0.6-7.1-1.3-9.3-0.7-2.2-3.2-5.9-5.7-8.5-2.5-2.5-7.3-5.9-10.5-7.7-3.3-1.7-12.3-5.2-20-7.7-7.7-2.5-21.7-6.6-31-9.2-9.3-2.5-21.5-6.2-27-8.1-5.5-1.9-13.6-5.3-18-7.5-4.4-2.3-10.5-5.8-13.5-7.8-3-2.1-7.6-6-10.2-8.7-2.6-2.6-6.5-8.2-8.6-12.3-3-5.7-4.2-9.6-5.2-16.5-0.8-5.5-1-11.9-0.6-16.5 0.4-4.1 1.2-9.5 1.8-12 0.5-2.5 2.9-8.3 5.1-13 3.2-6.6 5.8-10.2 11.7-16 5.5-5.5 9.9-8.7 16.5-12.2 4.9-2.6 12.4-5.6 16.5-6.7 4.1-1.2 10.2-2.5 13.5-3 3.3-0.5 11.1-0.9 17.3-1zm-1053.3-507.8c5.7 0.3 8.2 1 13.4 3.8 3.5 1.9 7.6 5 9.2 6.9 1.5 1.9 3.7 5.8 4.9 8.5 1.7 3.8 2.2 6.9 2.2 13 0 6.8-0.5 8.9-3 14-1.7 3.4-4.7 7.4-6.8 9.2-2.2 1.7-5.9 4.1-8.4 5.2-3.4 1.6-6.6 2.1-13 2.1-7.3 0-9.4-0.4-14.5-2.8-3.3-1.6-7.5-4.6-9.4-6.8-1.9-2.1-4.4-5.9-5.5-8.4-1.6-3.4-2-6.5-2-13 0-7.5 0.4-9.2 3.1-14.5 1.7-3.3 4.4-7.2 6-8.6 1.5-1.5 3.9-3.4 5.3-4.3 1.4-0.9 4.5-2.3 7-3.1 2.8-0.9 7.1-1.4 11.5-1.2zm-826 61.8c8.2 0 19.7 0.6 25.5 1.4 5.8 0.7 14.3 2.3 19 3.4 4.7 1.1 13 3.6 18.5 5.6 5.5 2 14.5 5.9 20 8.8 5.5 2.8 14.5 8.1 20 11.8 5.5 3.7 13.7 10 18.2 14.1 4.5 4 10.8 10.3 14 13.9 3.2 3.7 8.5 10.4 11.8 15 3.3 4.6 8.4 12.6 11.3 17.9 2.8 5.2 7.2 14.2 9.7 20 2.4 5.8 5 12.8 5.6 15.5 1 4.1 1 5.6-0.2 8.4-0.8 1.9-2.8 4.3-4.4 5.3-1.7 1-4.9 1.8-7.5 1.8-2.7 0-5.8-0.8-7.8-2-2.6-1.6-3.9-3.7-6.9-11.7-2-5.4-5.1-12.7-6.8-16.3-1.7-3.6-4.8-9.4-7-13-2.1-3.6-5.9-9.2-8.4-12.5-2.5-3.3-8.3-10-13-14.9-4.7-4.8-12.2-11.6-16.6-15-4.4-3.5-10.7-7.9-14-9.8-3.3-2-9.1-5.1-13-7.1-3.9-1.9-11.7-5-17.5-7-5.8-1.9-14.1-4.3-18.5-5.2-4.4-0.9-13.2-2.1-19.5-2.7-8.4-0.7-14.9-0.7-24 0.2-6.9 0.6-16.2 2-20.8 3.1-4.5 1-10.3 1.9-13 1.9-2.6 0-5.7-0.7-7-1.5-1.2-0.8-2.9-2.8-3.7-4.5-0.8-1.6-1.5-4.9-1.5-7.2 0-2.4 0.7-5.3 1.5-6.5 0.8-1.3 2.7-2.9 4.2-3.7 1.6-0.8 7.3-2.4 12.8-3.5 5.5-1.1 13.1-2.5 17-2.9 3.9-0.5 13.7-1 22-1.1zm-90.3 26.9c3.8 0 7.2 0.7 9.8 2 3 1.5 4.6 3.3 6.5 7.3 1.4 2.8 2.5 6.7 2.5 8.5 0 1.7-0.7 4.9-1.6 7-0.8 2-2.3 4.5-3.2 5.6-0.9 1-3.4 2.7-5.5 3.7-2 1-5.7 1.9-8.2 1.9-2.5 0-6.2-0.9-8.3-1.9-2-1-4.5-2.7-5.4-3.7-0.9-1.1-2.4-3.6-3.2-5.6-0.9-2.1-1.6-5.1-1.6-6.8 0-1.6 1-5.3 2.2-8.1 1.7-3.8 3.4-5.8 6.3-7.5 2.9-1.8 5.5-2.4 9.7-2.4zm456.8 1.6c3 0.2 8.6 0.6 12.5 0.9 3.8 0.3 10.6 1.5 15 2.6 4.4 1.1 12 3.9 17 6.3 5 2.4 11.9 6.6 15.5 9.3 3.6 2.7 8.7 7.6 11.4 10.9 2.6 3.2 6.5 8.8 8.6 12.4 2 3.6 5 9.7 6.5 13.5 1.5 3.9 3.7 10.8 4.8 15.5 2 8.1 2.1 12 2.6 91.3 0.5 72.1 0.8 82.9 2.1 83.7 0.8 0.5 8.9 1 18 0.9 14.3 0 16.7 0.2 18 1.7 1.2 1.4 1.5 4.8 1.5 16.9 0 12.1-0.3 15.5-1.5 16.9-1.4 1.5-4.7 1.7-35.5 1.6-30.8 0-34.4-0.2-38-1.9-2.2-1-4.8-2.7-5.7-3.7-1-1-2.4-3.7-3.2-5.9-1.3-3.4-1.5-16.5-1.6-85 0-49.8-0.4-84.3-1-89.5-0.6-4.7-2.2-12.1-3.5-16.5-1.3-4.4-4.1-10.9-6.2-14.4-2.1-3.5-6.5-8.8-9.8-11.9-3.3-3-8.7-6.8-12-8.3-3.3-1.6-8.9-3.6-12.5-4.6-4.7-1.3-10-1.8-19-1.7-8.4 0-14.8 0.6-19.5 1.8-3.9 0.9-10.4 3.1-14.5 4.9-4.1 1.7-10.7 5.5-14.5 8.4-3.9 2.9-9.8 8.5-13.3 12.5-3.5 4-8 10-13.7 19.3l-0.3 78.3c-0.2 68.4 0 78.4 1.3 79.7 1.2 1.2 4.6 1.5 17.5 1.5 15.5 0 16 0.1 17.5 2.3 1.2 1.7 1.5 5.5 1.5 17 0 12-0.3 15-1.6 16.2-1.3 1.3-9.5 1.5-119.4 1.5l-1.5-2.2c-1.2-1.8-1.5-5.5-1.5-16.3 0-10.8 0.3-14.5 1.5-16.2 1.5-2.2 2-2.3 17.9-2.3 13.3 0 16.8-0.3 18-1.5 1.4-1.3 1.6-11.9 1.6-101.5 0-87.6-0.2-100.2-1.5-101.5-1.2-1.2-4.6-1.5-17.5-1.5-14.7 0-16.2-0.2-18-2-1.8-1.8-2-3.3-2-15.7 0-7.6 0.4-14.8 0.8-16.1 0.4-1.3 2-2.7 3.7-3.2 1.8-0.6 17.1-1 37-1 25.4 0 34.6 0.3 39 2.6l0.1 19.9c0.2 18.7 0.3 20 2 20.2 1.3 0.2 2.9-1.2 4.9-4.5 1.6-2.6 6.1-8 10-12.1 3.8-4 9.9-9.3 13.5-11.6 3.6-2.4 10.3-6.2 15-8.4 4.7-2.2 12.5-5 17.5-6.1 5-1.2 13.5-2.5 19-3 5.5-0.4 12.5-0.6 15.5-0.4zm707 0.2c5.8 0.2 15.7 1 22 1.9 6.3 0.8 15.1 2.5 19.5 3.8 4.4 1.3 11.2 3.8 15 5.5 3.8 1.7 10.6 5.5 15 8.4 4.4 3 10.2 7.8 12.9 10.7 2.7 3 6.8 8.3 9.2 11.9 2.3 3.6 5.4 9.2 6.9 12.5 1.4 3.3 3.7 9.8 5.1 14.5 1.3 4.7 3.1 13.6 3.9 19.8 1.2 9 1.5 25.6 1.5 83.2 0 62.7 0.2 72.2 1.5 73.5 1.2 1.2 4.7 1.5 18.5 1.5 16 0 17.1 0.1 18 2 0.5 1.1 1 8.6 1 16.8 0 10.3-0.3 15.2-1.2 16.5-1.2 1.7-3.5 1.8-67.3 1.2l-3.9-2.5q-4-2.5-5.9-7c-1.5-3.6-2.1-7.9-2.6-21-0.5-14.6-0.8-16.5-2.4-16.7-0.9-0.2-2.7 0.9-3.9 2.5-1.2 1.5-5.2 5.8-8.8 9.6-3.6 3.8-9.9 9.6-14 12.9-4.1 3.3-10.4 7.7-14 9.7-3.6 2.1-10.3 5.5-15 7.5-4.7 2-11.9 4.5-16 5.6-4.1 1.1-12.2 2.6-18 3.4-5.8 0.8-15 1.5-20.5 1.4-5.5 0-13.4-0.4-17.5-0.9-4.1-0.6-11.1-1.9-15.5-3.1-4.4-1.1-11.4-3.6-15.5-5.5-4.1-2-10.4-5.5-14-7.8-3.6-2.4-8.9-7-11.9-10.2-2.9-3.3-7.1-8.8-9.1-12.4-2.1-3.6-5.1-10.1-6.6-14.5-2.6-7.4-2.8-9.2-2.8-24-0.1-12.4 0.3-17.5 1.7-22.5 1-3.6 3-9.2 4.6-12.5 1.5-3.3 4.2-8 6-10.5 1.7-2.5 5.3-6.7 7.9-9.4 2.6-2.7 8.1-7.1 12.2-9.9 4.1-2.8 11.1-6.8 15.5-8.8 4.4-2.1 11.6-5 16-6.4 4.4-1.5 13.2-3.8 19.5-5.1 6.3-1.3 17.1-3.1 24-4 8.8-1.1 24.2-1.8 51.5-2.2 33.5-0.5 39.2-0.8 40.4-2.1 1.1-1.3 1.3-3.9 0.8-12.6-0.4-7.5-1.4-13.9-3.2-20-1.5-4.9-3.8-11.2-5.3-14-1.5-2.7-5.6-7.9-9.2-11.6-4.6-4.6-8.7-7.7-14-10.3-4.1-2-11.7-4.5-16.8-5.6-5-1.1-13.6-2.3-19-2.6-5.3-0.4-15.3-0.1-22.2 0.5-6.9 0.7-16.3 2.1-21 3.2-4.7 1.1-11.4 2.9-15 4.1-3.6 1.1-10.3 4-15 6.4-4.7 2.3-11.2 6.1-14.5 8.3-3.3 2.3-7.1 4.1-8.5 4.1-1.4 0.1-3.5-0.7-4.7-1.7-1.2-1-5.4-5.8-9.4-10.8-3.9-4.9-7.6-10-8.3-11.3-0.9-1.9-0.7-3 0.9-5.8 1.1-2 4.5-5.4 7.5-7.8 3-2.3 8.2-5.8 11.5-7.8 3.3-2 9.4-5.2 13.5-7.1 4.1-1.9 11.3-4.7 16-6.1 4.7-1.5 12.5-3.6 17.5-4.6 5-1 13.5-2.3 19-2.9 5.5-0.6 13.6-1.2 18-1.4 4.4-0.1 12.7-0.1 18.5 0.1zm-35 156.7c-5.2 0.9-13.5 3-18.5 4.6-5 1.7-11 4.3-13.5 5.7-2.4 1.5-6.6 4.7-9.3 7.2-2.9 2.7-6.1 7-7.8 10.5-1.6 3.3-3.3 8.9-3.8 12.5-0.5 3.6-0.5 8.8-0.1 11.5 0.5 2.8 1.6 7 2.5 9.5 0.9 2.5 3.3 6.7 5.3 9.3 2 2.7 5.7 6.4 8.2 8.3 2.5 2 7.2 4.8 10.5 6.4 3.3 1.6 9.2 3.7 13 4.6 5 1.3 10.8 1.8 20.5 1.7 11.3-0.1 15.1-0.5 23.2-2.7 5.4-1.4 12.6-3.7 16-5.1 3.5-1.4 9.9-4.7 14.3-7.3 4.4-2.6 10.5-6.7 13.5-9.1 3-2.4 7.7-6.5 10.4-9 2.6-2.5 7-7.2 9.7-10.3l4.9-5.8c0-39.3-0.3-43.3-1.5-44.5-1.3-1.3-6.5-1.5-35.3-1.4-18.5 0.1-38 0.5-43.2 1-5.2 0.4-13.8 1.5-19 2.4zm412-156.9c3 0.2 8.7 0.6 12.5 0.9 3.8 0.3 10.6 1.5 15 2.6 4.4 1.1 12.1 3.9 17 6.4 4.9 2.4 11.8 6.4 15.2 8.9 3.5 2.5 8.5 7.2 11.1 10.4 2.6 3.1 6.6 8.9 8.9 12.7 2.2 3.9 4.9 9 6 11.5 1.1 2.5 2.7 7 3.6 10 0.9 3 2.3 10 3.2 15.5 1.2 8.3 1.5 23.2 1.5 87.8 0 67.7 0.2 77.9 1.5 79.2 1.2 1.2 4.7 1.5 18.5 1.5 16.5 0 17 0.1 18.5 2.3 1.2 1.7 1.5 5.4 1.5 16.2 0 10.8-0.3 14.5-3 18.5h-34c-28.5 0-34.6-0.3-37.8-1.6-2-0.8-4.5-2.3-5.6-3.2-1-0.9-2.5-3-3.5-4.7-1.4-2.7-1.7-11.9-2.1-91.5-0.6-87.6-0.6-88.6-2.8-96.5-1.2-4.4-3.8-11.4-5.8-15.5-2.6-5.4-5.5-9.4-10.2-14.1-3.7-3.6-9-7.8-11.7-9.1-2.8-1.4-8.4-3.6-12.5-4.9-6.3-2-9.6-2.4-20.5-2.4-10.3 0.1-14.7 0.5-21.5 2.3-4.7 1.3-11.7 3.8-15.5 5.7-3.8 1.8-9.7 5.5-13.1 8.1-3.4 2.7-8.3 7.4-11 10.4-2.7 3-6.1 7.1-7.6 9-1.4 1.9-3.8 6-7.8 14.5v76.8c0 66.8 0.2 76.9 1.5 78.2 1.2 1.2 4.6 1.5 17.5 1.5 12.9 0 16.3 0.3 17.5 1.5 1.2 1.2 1.5 4.6 1.5 17 0 12.8-0.3 15.8-1.6 17-1.3 1.3-9.5 1.5-119.4 1.5l-1.5-2.2c-1.2-1.8-1.5-5.5-1.5-16.3 0-10.8 0.3-14.5 1.5-16.2 1.5-2.2 2-2.3 17.9-2.3 13.3 0 16.8-0.3 18-1.5 1.4-1.3 1.6-11.9 1.6-101.5 0-87.6-0.2-100.2-1.5-101.5-1.2-1.2-4.6-1.5-17.3-1.5-12.1 0-16.2-0.3-17.7-1.4-1.8-1.3-2-2.8-2.3-16.3-0.3-13.6-0.2-15 3.6-19.8h37.1c34.2 0 37.2 0.1 38.8 1.8 1.6 1.6 1.8 3.6 1.5 19.5-0.2 9.7-0.1 18.5 0.2 19.5 0.4 1.1 1.1 1.5 2.2 1 0.9-0.5 3.6-3.5 5.9-6.8 2.3-3.3 7.1-8.7 10.6-12 3.6-3.3 9.1-7.8 12.4-9.9 3.3-2.2 9.6-5.7 14-7.7 4.4-2 12-4.7 17-5.9 5-1.2 13.5-2.6 19-3 5.5-0.4 12.5-0.6 15.5-0.4zm311 0.1c4.7 0.2 12.8 1.1 18 1.9 5.2 0.8 12.9 2.6 17 4 4.1 1.4 11.3 4.6 16 7 4.7 2.5 11.6 6.9 15.4 9.7 3.8 2.9 8.8 7.5 11.2 10.2 3.8 4.5 4.4 4.9 5.8 3.5 1.4-1.3 1.7-3.7 1.6-15 0-10.4 0.3-14 1.5-15.7 1.4-2.2 2.1-2.3 16-2.3 11.6 0 14.8 0.3 16 1.5 1.3 1.3 1.5 8.7 1.5 106.5l-2.3 1.5c-1.7 1.2-5.5 1.5-17.2 1.5-11.7 0-15.5-0.3-17.3-1.5-1.9-1.3-2.2-2.3-2.2-8.7 0-4-0.7-10-1.6-13.3-0.8-3.3-3-8.7-4.7-12-1.8-3.2-6.6-9.3-10.7-13.5-4.1-4.2-10.2-9.4-13.5-11.5-3.3-2.2-9.2-5.2-13-6.8-3.8-1.5-10.4-3.7-14.5-4.8-4.1-1.1-12.2-2.3-18-2.6-6.4-0.4-13.2-0.1-17.5 0.6-3.8 0.7-11.1 2.6-16 4.3-4.9 1.6-12.5 5.1-16.9 7.7-4.3 2.5-11.7 8.2-16.3 12.6-4.7 4.4-10.6 10.7-13 14-2.5 3.3-6.1 9.2-8 13-2 3.9-4.8 10.8-6.3 15.5-1.6 4.7-3.5 13.2-4.4 19-0.9 5.8-1.6 13.7-1.6 17.5 0 3.9 0.7 11.7 1.6 17.5 0.9 5.8 2.7 14.1 4.1 18.5 1.4 4.4 3.7 10.7 5.2 14 1.5 3.3 5.2 9.6 8.1 13.9 3 4.3 9.3 11.5 14 15.9 4.7 4.4 11.9 9.9 16 12.3 4.1 2.4 11.1 5.7 15.5 7.3 4.4 1.6 12.1 3.7 17 4.6 6.6 1.3 11.6 1.6 19 1.2 5.5-0.4 13.2-1.3 17-2.1 3.8-0.9 9.7-2.4 13-3.4 3.3-1.1 8.5-3 11.5-4.3 3-1.3 8.9-4.3 13-6.8 4.1-2.4 10.4-6.7 14-9.6 3.6-2.9 8.5-7.5 11-10.2 2.5-2.7 5.7-6.4 7.2-8.1 1.8-2 3.7-3.2 5.3-3.2q2.5 0 10.2 6.8c4.3 3.8 9 8.3 10.5 10 1.8 2.1 2.8 4.3 2.8 6.5 0 2-1.2 4.9-3.2 7.7-1.8 2.5-5.3 7-7.8 9.9-2.5 2.9-7.9 8.1-12 11.6-4.1 3.4-10.4 8.1-14 10.4-3.6 2.3-11 6.4-16.5 9.1-5.5 2.7-13.6 6.1-18 7.5-4.4 1.4-10.9 3.2-14.5 4-3.6 0.8-10 1.9-14.3 2.5-4.2 0.5-14.3 1-22.5 1-8.1 0-18.8-0.7-23.7-1.4-4.9-0.8-12.2-2.2-16-3.1-3.8-0.9-10.8-3.2-15.5-5.1-4.7-1.9-12.6-5.7-17.5-8.5-4.9-2.9-12.4-7.7-16.5-10.9-4.1-3.1-10.5-9-14.3-13.1-3.7-4.1-9-10.8-11.8-14.9-2.8-4.1-7.5-12.4-10.5-18.5-2.9-6-6.4-15-7.9-20-1.4-4.9-3.3-12.8-4.2-17.5-0.8-4.7-1.8-16.4-2.1-26-0.3-10.8 0-21.3 0.7-27.5 0.7-5.5 2.4-14.7 3.8-20.5 1.3-5.8 4.2-14.7 6.4-19.7 2.1-5.1 6.1-13 8.8-17.5 2.7-4.6 6.8-10.8 9.1-13.8 2.4-3 6.6-7.9 9.4-10.8 2.8-3 8.5-8 12.6-11.1 4.1-3.2 10.2-7.4 13.5-9.3 3.3-2 9.2-5.1 13-6.8 3.8-1.8 9.9-4.2 13.5-5.5 3.6-1.2 10.3-3 15-4 4.7-1 12.8-2.1 18-2.4 5.2-0.4 13.3-0.6 18-0.4zm314 0c5.2 0.2 12.7 0.9 16.5 1.4 3.8 0.5 10.2 1.7 14 2.6 3.8 0.9 11.3 3.3 16.5 5.5 5.2 2.1 13.1 6 17.4 8.6 4.9 2.9 11.7 8.4 17.6 14.2 5.4 5.2 11.5 12.2 13.7 15.5 2.2 3.3 5.9 9.7 8.2 14.3 2.2 4.5 5.2 11 6.5 14.5 1.3 3.4 3.5 11.4 4.9 17.7 1.4 6.3 3.1 16.5 3.6 22.5 0.6 6.1 1.1 14.8 1.1 19.5 0 5.9-0.4 9.2-3 13h-103.9c-91 0-104.2 0.2-105.5 1.5-1.2 1.2-1.5 2.7-1 6.8 0.3 2.8 1.3 8.6 2.1 12.7 0.8 4.1 2.9 11.3 4.5 16 1.6 4.7 4.5 11.2 6.3 14.5 1.8 3.3 5.6 8.9 8.4 12.5 2.8 3.6 8.4 9.4 12.4 12.8 3.9 3.5 10.1 8.1 13.7 10.2 3.6 2.1 10.6 5.3 15.5 7 4.9 1.7 13.1 3.8 18 4.7 6.2 1 11.9 1.3 18.5 0.9 5.2-0.3 13.1-1.3 17.5-2.2 4.4-0.9 11.8-3 16.5-4.6 4.7-1.6 12.7-5.3 17.9-8.1 5.2-2.9 13.5-8.6 18.5-12.8 5-4.2 11-10.1 13.3-13.2 4-5.3 4.6-5.7 8.3-5.7 3.5 0 4.8 0.7 10.7 6.3 3.6 3.4 7.9 8 9.5 10.2 1.6 2.2 2.9 5.1 2.9 6.5 0 1.4-2.1 5.3-4.7 9-2.6 3.6-8 9.7-11.9 13.5-3.9 3.9-11.1 9.8-16.1 13.3-4.9 3.5-13.8 8.8-19.9 11.7-6.1 3-14.6 6.6-19 8-4.4 1.4-12.1 3.5-17 4.6-6.5 1.5-14.4 2.2-28 2.6-14.5 0.4-21.5 0.2-29.5-1-5.8-0.9-14.6-2.8-19.5-4.2-4.9-1.5-12.6-4.2-17-6.2-4.4-1.9-11.2-5.3-15-7.6-3.8-2.2-9.7-6.1-13-8.6-3.3-2.5-9.2-7.7-13-11.6-3.8-3.9-9.1-10-11.6-13.5-2.5-3.6-6.4-9.6-8.6-13.5-2.3-3.8-5.7-10.8-7.6-15.5-2-4.7-4.7-12.8-6.1-18-1.5-5.2-3.3-14.9-4.1-21.5-0.8-6.6-1.5-17.2-1.5-23.5 0-6.3 0.6-16.7 1.4-23 0.8-6.3 2.4-15.3 3.6-20 1.2-4.7 3.2-11.2 4.5-14.5 1.2-3.3 3.9-9.4 6-13.5 2-4.1 6.3-11.3 9.4-16 3.1-4.6 9-12.1 13.2-16.5 4.2-4.4 11.2-10.6 15.5-13.7 4.4-3.1 12.6-8.1 18.4-11.1 5.8-3 13.9-6.6 18-8 4.1-1.4 11.1-3.3 15.5-4.2 4.4-0.9 12.3-2 17.5-2.5 5.2-0.4 13.8-0.5 19-0.3zm-30.3 40.4c-4.2 1-10.5 3.2-14 4.7-3.4 1.5-8.5 4.3-11.2 6.2-2.8 1.9-7.6 5.9-10.9 8.9-3.2 3.1-7.7 8.1-9.9 11.1-2.3 3-5.6 8.7-7.3 12.5-1.8 3.9-4.5 11.1-5.9 16-1.4 5-2.5 9.9-2.5 11 0 1.1 0.5 2.6 1.2 3.3 1 1 18 1.2 81 1.2 69.4 0 79.9-0.2 81.2-1.5 1.1-1.1 1.4-2.6 1-5.2-0.3-2.1-1.2-7.2-2.1-11.3-0.8-4.1-2.8-10.8-4.4-14.7-1.6-4-4-9-5.3-11-1.3-2.1-4.2-6-6.5-8.8-2.3-2.7-6.5-6.9-9.4-9.3-2.9-2.4-7.5-5.5-10.2-6.9-2.8-1.4-7.5-3.4-10.5-4.5-3-1-8.5-2.6-12.3-3.3-3.9-0.9-11.5-1.5-18.5-1.4-6.4 0.1-12.6 0.3-13.7 0.6-1.1 0.2-5.5 1.3-9.8 2.4zm-2033.7-12.7c13.8 0.3 18.1 0.8 26.5 3 5.7 1.5 14.5 4.8 20.5 7.8 5.8 2.9 13.2 7.2 16.5 9.6 3.3 2.5 8.6 7 11.8 10.1 3.3 3.1 7.8 8.1 10.1 11.1 2.3 3 5.9 8.2 7.8 11.5 2 3.3 5.3 9.8 7.3 14.5 2 4.7 4.5 12.6 5.6 17.5 1 5 2.2 13.3 2.5 18.5 0.4 5.7 0.2 13.7-0.6 20-0.7 5.8-2.4 14.3-3.7 19-1.3 4.7-4.9 13.2-7.8 19-3 5.8-7.4 13.2-9.8 16.5-2.4 3.3-7 8.9-10.3 12.4-3.2 3.5-9.5 8.7-13.9 11.6-4.4 2.9-11.1 6.9-15 8.8-3.8 1.9-10.6 4.6-15 6-4.4 1.4-10.7 3.2-14 3.9-3.3 0.7-12.7 1.2-21 1.2-8.2 0-17.9-0.6-21.5-1.3-3.6-0.6-9.6-2.2-13.5-3.4-3.8-1.2-11-4.2-16-6.7-5-2.5-11.9-6.6-15.5-9.2-3.6-2.5-9.6-7.7-13.4-11.5-3.7-3.7-9.1-10.2-11.9-14.3-2.8-4.1-7-11.5-9.4-16.5-2.3-4.9-5.4-13.5-6.8-19-1.5-6-2.8-14.4-3.2-21-0.3-6.6-0.1-15.2 0.7-21.5 0.6-5.8 2.2-14.1 3.5-18.5 1.3-4.4 4-11.6 6-16 2-4.4 6-11.6 8.9-16 3-4.4 8.7-11.4 12.8-15.5 4.1-4.1 10.8-9.7 14.9-12.5 4.1-2.7 10.8-6.6 14.9-8.6 4.1-2 10.3-4.6 13.8-5.8 3.4-1.2 9.7-2.8 14-3.6 5.4-1 12.5-1.3 24.2-1.1zm-25.5 28.1c-3.3 1-9.1 3.2-13 4.9-3.8 1.8-9.2 4.7-12 6.6-2.7 1.9-7.9 6.1-11.4 9.4-3.5 3.4-8.3 8.8-10.6 12.1-2.4 3.3-5.7 8.9-7.4 12.5-1.6 3.6-4.1 10.3-5.5 15-1.3 4.7-2.8 12.6-3.1 17.5-0.5 6.5-0.3 11.6 0.9 18.3 0.9 5 3 13.1 4.8 18 1.8 4.8 5.3 11.9 7.9 15.7 2.6 3.9 8 10.2 12.1 14.1 4 3.9 10.2 9 13.8 11.3 3.6 2.3 10.1 5.6 14.5 7.2 4.4 1.7 11.6 3.8 16 4.6 5.6 1.1 11.4 1.4 19 1 7.7-0.4 13.7-1.3 20-3.2 5-1.4 12.8-4.5 17.5-6.8 6.2-3 10.6-6.2 16.4-11.7 4.3-4.1 9.8-10.2 12.1-13.5 2.3-3.3 5.6-8.7 7.3-12 1.6-3.3 4.2-9.8 5.6-14.5 1.4-4.7 3-12.1 3.5-16.5 0.4-4.5 0.4-11.7-0.1-16.5-0.5-4.7-2.3-12.5-3.9-17.5-1.7-4.9-4.5-11.5-6.2-14.5-1.7-3-5.7-8.6-8.8-12.5-3.1-3.8-8.7-9.5-12.4-12.5-3.7-3-8.8-6.7-11.3-8.2-2.6-1.5-8.4-4.1-12.9-5.8-4.6-1.6-12.2-3.7-17-4.5-4.9-0.8-11-1.5-13.8-1.4-2.7 0.1-7.5 0.5-10.5 0.9-3 0.5-8.2 1.6-11.5 2.5zm-112.7-14.5c2.3 0 5.5 0.8 7.2 1.8 1.6 0.9 3.6 2.9 4.5 4.5 0.8 1.5 1.5 4.4 1.5 6.5 0 2.1-1.3 6.5-3.1 10.2-1.7 3.6-4.6 11-6.5 16.5-1.9 5.5-4.2 12.7-5 16-0.9 3.3-2.2 10.1-3 15-0.7 5-1.4 14.6-1.4 21.5 0 6.9 0.7 16.3 1.4 21 0.8 4.7 2.2 11.4 3.1 15 0.9 3.6 2.9 10.1 4.4 14.5 1.6 4.4 4.1 10.7 5.6 14 1.4 3.3 4.3 8.7 6.3 12 1.9 3.3 5.9 9.2 8.7 13 2.8 3.9 8.9 11 13.6 15.9 4.6 4.9 11.3 11.3 14.9 14.1 3.6 2.9 10.8 8 16 11.4 5.2 3.4 10 7.2 10.7 8.4 0.7 1.2 1.2 4 1.3 6.2 0 2.3-0.9 5.4-2 7.3-1.1 1.7-3.6 3.9-5.5 4.7-1.9 0.8-4.5 1.5-5.7 1.5-1.3 0-6.1-2.2-10.8-5-4.7-2.8-12.5-8.2-17.5-11.9-5-3.8-13.4-11.5-18.9-17.2-5.4-5.7-12.4-14-15.5-18.4-3.2-4.4-7.7-11.4-10.1-15.5-2.4-4.1-6.2-11.5-8.5-16.5-2.3-4.9-5.4-12.6-6.8-17-1.4-4.4-3.5-11.6-4.6-16-1-4.4-2.5-12-3.2-17-0.7-4.9-1.3-16.6-1.3-26 0-9.3 0.6-21 1.3-26 0.7-4.9 2.4-13.3 3.7-18.5 1.3-5.2 3.4-12.6 4.7-16.5 1.4-3.8 4.5-11.3 6.9-16.5 2.4-5.3 5.5-10.3 6.8-11.3 1.5-1 4.3-1.7 6.8-1.7zm291.7 99c5.1-0.1 6.6 0.4 10.3 3 2.3 1.6 4.9 4.4 5.7 6 0.8 1.7 1.5 5.6 1.5 8.8 0 4.1-0.7 6.8-2.3 9.7-1.3 2.2-4 5-6.2 6.2-2.8 1.6-5.6 2.3-9.5 2.3-3.8-0.1-6.7-0.7-9.4-2.3-2.1-1.2-4.9-4-6.2-6.2-1.7-2.9-2.4-5.5-2.4-9.5 0-3.9 0.7-6.7 2.3-9.5 1.2-2.2 4-4.9 6.2-6.2 2.9-1.6 5.7-2.3 10-2.3zm-171.7 136c1.7 0 5.5 1 8.3 2.3 3.8 1.6 5.8 3.3 7.5 6.2 1.8 3 2.4 5.5 2.4 10 0 4.5-0.6 7-2.4 10-1.7 2.9-3.7 4.6-7.5 6.3-2.8 1.2-6.4 2.2-8.1 2.2-1.6 0-4.7-0.7-6.7-1.6-2.1-0.8-4.6-2.3-5.7-3.2-1-0.9-2.7-3.4-3.7-5.4-1-2.1-1.9-5.8-1.9-8.3 0-2.5 0.9-6.2 1.9-8.2 1-2.1 2.7-4.6 3.7-5.5 1.1-0.9 3.5-2.4 5.4-3.2 1.9-0.8 5-1.5 6.8-1.6zm839.9 30c54.9 0 63.5 0.2 64.8 1.5 1.2 1.2 1.5 4.5 1.5 16.3 0 10.2-0.3 15.1-1.2 16-0.9 0.9-6.6 1.2-21.4 1.2-16.6 0-20.5 0.3-21.8 1.5-1.4 1.3-1.6 15.7-1.6 143.3 0 87.3 0.4 142.3 1 143.2 0.8 1.2 4.7 1.6 22 2 17.3 0.4 21.2 0.8 22 2 0.5 0.8 1 8 1 16 0 10.1-0.3 14.9-1.2 15.8-0.9 0.9-15.2 1.2-64.8 1.2-49.9 0-63.8-0.2-64.8-1.2-0.9-0.9-1.2-5.4-1.2-15.8 0-8 0.5-15.2 1-16 0.8-1.2 4.7-1.6 21.5-2 16.8-0.4 20.8-0.8 21.5-2 0.6-0.9 1-55.9 1-143.2 0-124.7-0.2-142-1.5-143.3-1.2-1.2-5-1.5-21.2-1.5-14.7 0-20.1-0.3-21.1-1.2-0.9-0.9-1.3-5.7-1.4-16.3-0.2-11.9 0.1-15.4 1.2-16.3 1.1-0.9 16.9-1.2 64.7-1.2zm266.8 111.5c11.2 0.3 17 0.9 23 2.4 4.4 1.2 10.7 3.4 14 4.9 3.3 1.6 8.7 4.7 12 6.9 3.3 2.3 7.9 6.1 10.2 8.5 2.2 2.3 6 7.2 8.2 10.8 2.3 3.6 5.5 9.7 7.1 13.5 1.6 3.9 3.7 10.2 4.6 14 1.5 6.2 1.8 15.7 2.3 80.7 0.3 40.5 1 74 1.4 74.5 0.5 0.4 7.8 1 16.3 1.3 12.3 0.4 15.7 0.8 16.4 2 0.5 0.8 1 7 1 13.8 0 6.7-0.2 12.9-0.5 13.7-0.4 1.3-4.7 1.5-30.7 1.5-27.8 0-30.6-0.2-34.3-2-2.8-1.3-4.5-3-5.7-5.7-1.6-3.5-1.8-10.4-2.4-156.8l-2.7-10c-1.5-5.5-4-12.2-5.5-15-1.5-2.7-5.4-7.7-8.7-11-3.4-3.5-8.4-7.2-11.5-8.7-3-1.4-8.4-3.4-12-4.3-4.3-1.2-10-1.7-17-1.7-7.2 0-13 0.7-18.5 2.1-4.4 1.2-11.2 3.6-15 5.4-3.8 1.9-9.7 5.6-13 8.4-3.3 2.7-9 9-12.7 13.9-3.6 4.9-7.1 10.1-7.7 11.7-0.8 1.8-1.1 24.6-1.1 71.2 0 59.6 0.2 68.7 1.5 70 1.2 1.2 4.2 1.5 14 1.5 6.9 0 13.6 0.5 17.5 2l-0.5 28.5-52 0.2c-39.9 0.2-52.3 0-53.3-1-0.9-0.9-1.3-4.7-1.2-13.7 0-6.9 0.5-13.2 1-14 0.7-1.2 4.1-1.6 16.5-2 12.4-0.4 15.8-0.8 16.5-2 0.6-0.9 1-36.2 1-90.2 0-77.6-0.2-89-1.5-90.3-1.2-1.2-4.5-1.5-16.2-1.5-10.6 0-15.2-0.3-16.1-1.2-0.9-0.9-1.2-5-1.2-13.8 0-6.9 0.5-13.2 1-14 0.8-1.3 5.7-1.5 33.9-1.5 18.1 0 33.3 0.4 33.8 0.8 0.4 0.5 0.8 9 0.8 19 0 17.4 0.1 18.2 2 18.5 1.4 0.1 2.7-1 4.5-4 1.4-2.3 5.4-7.3 9-11.1 3.6-3.9 9.7-9.1 13.5-11.6 3.8-2.6 10.4-6.1 14.5-7.8 4.1-1.8 10.9-3.9 15-4.7 4.1-0.8 8.8-1.7 10.5-2 1.7-0.2 9.8-0.3 18-0.1zm167.8 2.9c42.2 0.1 48.9 0.3 49.7 1.6 0.5 0.8 1 7 1 13.8 0 6.7-0.2 12.9-0.5 13.7-0.4 1.2-2.7 1.5-12.4 1.5-9.3 0-12.3 0.3-13.5 1.5-1.5 1.4-1.4 2.1 0.8 7.8 1.3 3.4 14.8 39.1 30.1 79.2 15.2 40.2 28.6 75.4 29.6 78.3 1.5 4.2 2.3 5.2 4 5 1.7-0.3 6.7-12.4 34.5-84.3 22.6-58.5 32.2-84.5 31.6-85.5-0.7-1.2-3.8-1.6-26.7-2.5l-0.5-28.5 2.8-1c1.8-0.7 19-1 51-0.8 41.6 0.3 48.4 0.5 49.2 1.8 0.5 0.8 1 7.1 1 14 0 8.5-0.4 12.9-1.2 13.8-0.8 0.8-5.4 1.2-15.8 1.2-10.2 0-15 0.3-16.1 1.2-0.9 0.7-19.1 45.4-40.4 99.3-21.3 53.9-40 101.3-41.6 105.3-1.7 4.1-3.7 7.6-4.9 8.2-1.1 0.6-11 1-23 1-11.5 0-21.8-0.4-22.7-0.9-1-0.4-3.1-3.9-4.7-7.7-1.5-3.8-20.1-51.2-41.3-105.4-21.1-54.2-39.2-99.1-40.1-99.8-1.2-0.9-6.1-1.2-16.4-1.2-13.8 0-14.9-0.1-15.8-2-0.5-1.1-1-6.8-1-12.7 0-6 0.3-11.8 0.6-13 0.4-1.2 1.4-2.4 2.3-2.6 0.9-0.3 23.6-0.4 50.4-0.3z"/>
</svg>