<?xml version="1.0" encoding="UTF-8"?> <!-- Generator: Adobe Illustrator 26.4.1, SVG Export Plug-In . SVG Version: 6.00 Build 0) --> <svg xmlns="http://www.w3.org/2000/svg" xmlns:xlink="http://www.w3.org/1999/xlink" id="Camada_1" x="0px" y="0px" viewBox="0 0 1920 334" style="enable-background:new 0 0 1920 334;" xml:space="preserve"> <style type="text/css"> .st0{fill:#0F1A2A;} </style> <g> <path class="st0" d="M305.18,117.46c-10.88-6.25-23.71-9.38-38.47-9.38c-12.51,0-24.08,2.63-34.71,7.88 c-10.64,5.26-19.33,12.38-26.08,21.39c-6-9.25-14.01-16.45-24.02-21.58c-10.01-5.13-20.89-7.7-32.65-7.7 c-9.75,0-18.76,2.01-27.02,6c-8.26,4.01-15.39,9.26-21.39,15.76l-3.75-19.14H49.05v187.64h52.91V195.89 c0-12.76,2.82-22.51,8.44-29.27c5.63-6.75,13.82-10.13,24.58-10.13c10.51,0,18.39,3.32,23.64,9.94c5.26,6.63,7.88,16.32,7.88,29.09 v102.82h52.91v-101.7c0-13.26,2.94-23.27,8.82-30.02c5.87-6.75,14.32-10.13,25.33-10.13c10.51,0,18.63,3.32,24.39,9.94 c5.75,6.63,8.63,16.32,8.63,29.09v102.82h52.91V188.76c0-17.26-3-31.9-9.01-43.91C324.5,132.84,316.06,123.71,305.18,117.46z"></path> <path class="st0" d="M456.3,108.08c-20.52,0-37.71,4.45-51.6,13.32c-13.89,8.88-23.59,21.71-29.08,38.47l45.41,16.51 c2-7.75,6-13.7,12.01-17.83c6-4.13,13-6.19,21.01-6.19c9.25,0,16.01,2.07,20.27,6.19c4.25,4.13,6.38,8.57,6.38,13.32v12.38 l-44.66,4.88c-23.27,2.76-40.53,9.26-51.79,19.51c-11.25,10.26-16.89,23.15-16.89,38.65c0,11.26,2.63,20.89,7.88,28.89 c5.26,8.01,12.57,14.08,21.95,18.2c9.38,4.13,20.08,6.19,32.09,6.19c12.51,0,22.57-2.25,30.21-6.76 c7.63-4.5,14.69-10.75,21.2-18.76l3.75,23.27h49.16V177.5c0-21.01-6.51-37.84-19.52-50.47 C501.08,114.39,481.82,108.08,456.3,108.08z M480.69,221.41c0,8.25-1.44,15.2-4.32,20.83c-2.88,5.63-7.01,9.94-12.38,12.95 c-5.38,3-11.82,4.5-19.33,4.5c-7.26,0-12.89-1.69-16.89-5.07c-4.01-3.38-6-7.57-6-12.57c0-5.25,1.93-9.57,5.82-12.95 c3.88-3.38,9.44-5.56,16.7-6.57l36.4-4.5V221.41z"></path> <polygon class="st0" points="723.52,103.12 659.68,166.96 595.85,103.12 558.29,140.69 622.12,204.52 558.29,268.35 595.85,305.92 659.68,242.08 723.52,305.92 761.08,268.35 697.25,204.52 761.08,140.69 "></polygon> <path class="st0" d="M1056.61,117.21c-10.76-6.13-23.14-9.2-37.15-9.2c-14.26,0-27.27,3.13-39.03,9.38 c-11.76,6.25-20.52,15.76-26.27,28.52c-6-12.51-14.45-21.96-25.33-28.34c-10.88-6.38-22.96-9.57-36.21-9.57 c-13.01,0-24.21,2.69-33.59,8.07c-9.38,5.39-16.83,12.57-22.33,21.58l-1.87-27.02h-25.9v187.64h28.15v-99.82 c0-21.26,4.44-37.34,13.32-48.23c8.88-10.88,21.2-16.32,36.97-16.32c15.51,0,27.26,5.07,35.27,15.2 c8,10.13,12.01,24.95,12.01,44.47v104.7h28.15v-99.82c0-21.26,4.62-37.34,13.89-48.23c9.25-10.88,21.77-16.32,37.52-16.32 c15.51,0,27.45,5.07,35.84,15.2c8.38,10.13,12.57,24.95,12.57,44.47v104.7h28.15V190.2c0-18.26-3-33.46-9.01-45.6 C1075.75,132.47,1067.36,123.35,1056.61,117.21z"></path> <rect x="1150.8" y="110.64" class="st0" width="27.77" height="187.64"></rect> <path class="st0" d="M1165.06,33.71c-5.76,0-10.51,1.88-14.26,5.63c-3.75,3.75-5.63,8.5-5.63,14.26c0,5.51,1.88,10.13,5.63,13.89 c3.75,3.75,8.5,5.63,14.26,5.63c5.26,0,9.82-1.88,13.7-5.63c3.88-3.75,5.82-8.38,5.82-13.89c0-5.75-1.94-10.51-5.82-14.26 C1174.88,35.59,1170.32,33.71,1165.06,33.71z"></path> <rect x="1241.99" y="28.08" class="st0" width="28.15" height="270.2"></rect> <path class="st0" d="M1451.39,117.4c-10.76-6.25-23.02-9.38-36.78-9.38c-12.76,0-24.27,2.44-34.53,7.32 c-10.26,4.88-18.39,11.82-24.39,20.83V28.08h-28.15v270.2h28.15v-99.82c0-21.02,4.56-37.03,13.7-48.04 c9.13-11.01,21.82-16.51,38.09-16.51c15.76,0,27.77,5.19,36.02,15.58c8.26,10.39,12.38,25.33,12.38,44.84v103.95h30.02V190.95 c0-18.26-3.07-33.52-9.2-45.78C1470.59,132.91,1462.15,123.65,1451.39,117.4z"></path> <path class="st0" d="M1665.11,125.09c-12.38-11.38-29.71-17.08-51.98-17.08c-19.27,0-35.59,4.63-48.97,13.89 c-13.38,9.26-22.58,22.14-27.58,38.65l25.52,9.01c3.25-11.26,9.2-19.89,17.83-25.89c8.63-6,19.45-9.01,32.46-9.01 c13.26,0,23.76,3.19,31.52,9.57c7.75,6.38,11.64,14.82,11.64,25.33v15.01l-57.79,6.38c-22.27,2.25-39.28,8.44-51.04,18.58 c-11.76,10.13-17.64,23.08-17.64,38.84c0,10.76,2.56,20.08,7.69,27.96c5.13,7.88,12.44,13.95,21.95,18.2 c9.51,4.25,21.02,6.38,34.53,6.38c15.76,0,28.77-3.19,39.03-9.57c10.26-6.38,18.01-15.32,23.27-26.83l2.25,33.77h25.9V171.44 C1683.69,151.92,1677.49,136.48,1665.11,125.09z M1655.54,214.59c0,11.01-2.06,21.2-6.19,30.59c-4.13,9.38-10.57,16.83-19.33,22.33 c-8.76,5.51-20.02,8.26-33.77,8.26c-12.01,0-21.2-2.63-27.58-7.88c-6.38-5.26-9.57-12.25-9.57-21.02c0-8.75,3.25-15.82,9.76-21.2 c6.5-5.38,16.01-8.82,28.52-10.32l58.17-6.76V214.59z"></path> <path class="st0" d="M1864.75,222.66c-4.13-6.38-9.45-11.63-15.95-15.76c-6.51-4.13-13.51-7.51-21.01-10.13 c-7.51-2.63-14.89-4.81-22.14-6.57c-6.51-1.75-12.51-3.31-18.02-4.69c-5.5-1.37-10.26-3.06-14.26-5.07c-4.01-2-7.13-4.56-9.38-7.69 c-2.25-3.13-3.38-7.07-3.38-11.82c0-8.75,3.43-15.32,10.32-19.7c6.88-4.37,15.95-6.57,27.21-6.57c5.5,0,11.07,0.63,16.7,1.88 c5.63,1.25,10.76,3.63,15.39,7.13c4.63,3.51,7.82,8.51,9.57,15.01l26.27-9.01c-4.76-14.26-13.2-24.77-25.33-31.52 c-12.14-6.76-25.96-10.13-41.47-10.13c-13.51,0-25.46,2.25-35.84,6.76c-10.39,4.5-18.52,10.82-24.4,18.95 c-5.88,8.13-8.82,17.58-8.82,28.33c0,9.76,2.12,17.64,6.38,23.64c4.25,6,9.75,10.88,16.51,14.63c6.75,3.75,13.89,6.7,21.39,8.82 c7.5,2.13,14.51,3.94,21.01,5.44c8.26,2.01,15.76,4.32,22.52,6.94c6.75,2.63,12.19,5.95,16.32,9.94c4.13,4.01,6.19,9.26,6.19,15.76 c0,7.76-3.44,14.2-10.32,19.33c-6.88,5.13-16.95,7.7-30.21,7.7c-8.5,0-15.95-1.25-22.33-3.75c-6.38-2.5-11.57-6.19-15.57-11.07 c-4.01-4.88-6.76-11.07-8.26-18.58l-27.02,9.01c4.25,16.77,12.7,29.46,25.33,38.09c12.63,8.63,28.58,12.95,47.84,12.95 c14.01,0,26.33-2.25,36.97-6.75c10.63-4.5,18.95-10.82,24.95-18.95c6.01-8.12,9.01-17.7,9.01-28.7 C1870.95,236.99,1868.88,229.04,1864.75,222.66z"></path> </g> </svg> 