<!-- Generator: Adobe Illustrator 25.0.1, SVG Export Plug-In  -->
<svg version="1.1" xmlns="http://www.w3.org/2000/svg" xmlns:xlink="http://www.w3.org/1999/xlink" x="0px" y="0px"
	 width="472.29px" height="87.74px" viewBox="0 0 472.29 87.74" style="overflow:visible;enable-background:new 0 0 472.29 87.74;"
	 xml:space="preserve">
<style type="text/css">
	.st0{fill:#7B2D65;}
	.st1{fill:#FF8444;}
	.st2{display:none;}
	.st3{display:inline;fill:#FF8444;}
</style>
<defs>
</defs>
<g>
	<g>
		<g>
			<path class="st0" d="M139.52,32.44c4.2,0,7.73,1.62,10.56,4.85c2.84,3.23,4.26,8.58,4.26,16.04v13.8c0,1.21-0.04,2.12-0.12,2.72
				c-0.08,0.6-0.32,1.3-0.71,2.09c-0.39,0.79-1.09,1.34-2.09,1.66c-1,0.32-2.34,0.47-4.02,0.47c-1.63,0-2.94-0.17-3.94-0.51
				c-1-0.34-1.69-0.91-2.09-1.69c-0.39-0.79-0.63-1.48-0.71-2.09c-0.08-0.6-0.12-1.51-0.12-2.72v-13.8c0-4.57-1.63-6.86-4.89-6.86
				c-1.84,0-3.09,0.6-3.74,1.81c-0.66,1.21-0.99,2.92-0.99,5.12v13.8c0,1.26-0.04,2.18-0.12,2.76c-0.08,0.58-0.33,1.26-0.75,2.05
				c-0.42,0.79-1.13,1.34-2.13,1.66c-1,0.32-2.34,0.47-4.02,0.47c-1.63,0-2.94-0.17-3.94-0.51c-1-0.34-1.69-0.91-2.09-1.69
				c-0.39-0.79-0.63-1.48-0.71-2.09c-0.08-0.6-0.12-1.51-0.12-2.72v-13.8c0-4.57-1.63-6.86-4.89-6.86c-3.15,0-4.73,2.29-4.73,6.86
				V67.2c0,1.21-0.04,2.12-0.12,2.72c-0.08,0.6-0.33,1.29-0.75,2.05c-0.42,0.76-1.13,1.3-2.13,1.62c-1,0.32-2.34,0.47-4.02,0.47
				c-1.63,0-2.94-0.16-3.94-0.47c-1-0.32-1.69-0.87-2.09-1.66c-0.39-0.79-0.63-1.47-0.71-2.05c-0.08-0.58-0.12-1.5-0.12-2.76V39.38
				c0-1.21,0.04-2.12,0.12-2.72c0.08-0.6,0.33-1.29,0.75-2.05c0.42-0.76,1.13-1.3,2.13-1.62c1-0.32,2.34-0.47,4.02-0.47
				c2.57,0,4.31,0.47,5.2,1.42c0.89,0.95,1.34,2.31,1.34,4.1c0.1-0.16,0.24-0.35,0.39-0.59c0.16-0.24,0.52-0.68,1.1-1.34
				c0.58-0.66,1.18-1.23,1.81-1.73c0.63-0.5,1.46-0.95,2.48-1.34c1.02-0.39,2.06-0.59,3.11-0.59c5.36,0,9.35,2.29,11.98,6.86
				c0.58-0.79,1.27-1.62,2.09-2.48c0.81-0.87,2.12-1.81,3.9-2.84C135.79,32.95,137.63,32.44,139.52,32.44z"/>
			<path class="st0" d="M278.35,32.52c5.26,0,9.63,2.01,13.13,6.03c3.49,4.02,5.24,8.92,5.24,14.7v13.88c0,1.21-0.04,2.12-0.12,2.72
				c-0.08,0.6-0.32,1.29-0.71,2.05c-0.39,0.76-1.09,1.3-2.09,1.62c-1,0.32-2.34,0.47-4.02,0.47c-1.37,0-2.5-0.13-3.39-0.39
				c-0.89-0.26-1.58-0.56-2.05-0.91c-0.47-0.34-0.83-0.88-1.06-1.62c-0.24-0.74-0.37-1.34-0.39-1.81c-0.03-0.47-0.04-1.21-0.04-2.21
				V53.17c0-2.15-0.62-3.84-1.85-5.05c-1.24-1.21-2.9-1.81-5.01-1.81c-2.05,0-3.72,0.63-5.01,1.89c-1.29,1.26-1.93,2.92-1.93,4.97
				v13.95c0,1.21-0.04,2.12-0.12,2.72c-0.08,0.6-0.32,1.29-0.71,2.05c-0.39,0.76-1.09,1.3-2.09,1.62c-1,0.32-2.34,0.47-4.02,0.47
				c-1.63,0-2.94-0.16-3.94-0.47c-1-0.32-1.69-0.87-2.09-1.66c-0.39-0.79-0.63-1.48-0.71-2.09c-0.08-0.6-0.12-1.51-0.12-2.72V39.14
				c0-1.16,0.04-2.04,0.12-2.64c0.08-0.6,0.33-1.27,0.75-2.01c0.42-0.74,1.13-1.25,2.13-1.54c1-0.29,2.31-0.43,3.94-0.43
				c1.58,0,2.86,0.16,3.86,0.47c1,0.32,1.68,0.78,2.05,1.38c0.37,0.6,0.59,1.12,0.67,1.54c0.08,0.42,0.12,0.97,0.12,1.66
				c0.1-0.16,0.25-0.34,0.43-0.55c0.18-0.21,0.58-0.6,1.18-1.18c0.6-0.58,1.25-1.09,1.93-1.54c0.68-0.45,1.56-0.85,2.64-1.22
				C276.16,32.7,277.25,32.52,278.35,32.52z"/>
			<path class="st0" d="M353.8,32.83c3.36,1.47,5.04,3.29,5.04,5.44c0,0.89-0.24,1.87-0.71,2.92c-1.21,2.89-2.1,5.07-2.68,6.54
				l-8.67,21.13c-0.05,0.16-0.12,0.35-0.2,0.59c-0.08,0.24-0.3,0.67-0.67,1.3c-0.37,0.63-0.78,1.18-1.22,1.66
				c-0.45,0.47-1.06,0.91-1.85,1.3c-0.79,0.39-1.66,0.59-2.6,0.59c-1.47,0-2.77-0.46-3.9-1.38c-1.13-0.92-1.88-1.85-2.25-2.8
				l-0.63-1.34c-0.32-0.79-1.13-2.93-2.44-6.42c-1.31-3.49-2.05-5.45-2.21-5.87c-0.53,1.26-1.3,3.32-2.33,6.19
				c-1.02,2.87-1.8,4.93-2.33,6.19c-0.05,0.16-0.12,0.35-0.2,0.59c-0.08,0.24-0.3,0.67-0.67,1.3c-0.37,0.63-0.79,1.18-1.26,1.66
				c-0.47,0.47-1.12,0.91-1.93,1.3c-0.82,0.39-1.69,0.59-2.64,0.59c-1.47,0-2.76-0.46-3.86-1.38c-1.1-0.92-1.84-1.85-2.21-2.8
				l-0.63-1.34l-11.27-27.67c-0.53-1.58-0.79-2.6-0.79-3.07c0-2.1,1.5-3.76,4.49-4.97c1.68-0.68,3.1-1.02,4.26-1.02
				c0.95,0,1.75,0.22,2.4,0.67c0.66,0.45,1.12,0.89,1.38,1.34c0.26,0.45,0.55,1.04,0.87,1.77c0.05,0.16,0.91,2.46,2.56,6.9
				c1.66,4.44,2.59,6.95,2.8,7.53l4.65-12.77c0.05-0.16,0.13-0.34,0.24-0.55c0.11-0.21,0.35-0.6,0.75-1.18
				c0.39-0.58,0.81-1.09,1.26-1.54c0.45-0.45,1.06-0.85,1.85-1.22c0.79-0.37,1.6-0.55,2.44-0.55c1.47,0,2.77,0.42,3.9,1.26
				c1.13,0.84,1.9,1.68,2.33,2.52l0.63,1.34c2.63,7.36,4.18,11.56,4.65,12.61l4.81-13.09c1.26-3.36,3.15-5.05,5.68-5.05
				C351.64,32.04,352.69,32.31,353.8,32.83z"/>
			<path class="st0" d="M395.42,32.52c1.63,0,2.94,0.16,3.94,0.47c1,0.32,1.69,0.87,2.09,1.66c0.39,0.79,0.63,1.49,0.71,2.09
				c0.08,0.6,0.12,1.51,0.12,2.72v27.59c0,1.21-0.04,2.12-0.12,2.72c-0.08,0.6-0.32,1.29-0.71,2.05c-0.39,0.76-1.09,1.3-2.09,1.62
				c-1,0.32-2.34,0.47-4.02,0.47c-2.36,0-4.03-0.35-5.01-1.06c-0.97-0.71-1.54-1.75-1.69-3.11c-1.94,2.79-5.1,4.18-9.46,4.18
				c-4.73,0-9.04-2.08-12.93-6.23c-3.89-4.15-5.83-9.01-5.83-14.58c0-5.41,1.96-10.18,5.87-14.31c3.91-4.13,8.21-6.19,12.89-6.19
				c1.79,0,3.42,0.32,4.89,0.95c1.47,0.63,2.5,1.22,3.07,1.77c0.58,0.55,1.05,1.09,1.42,1.62c0.16-1.47,0.72-2.57,1.69-3.31
				C391.23,32.89,392.95,32.52,395.42,32.52z M381.31,60.11c1.89,0,3.48-0.71,4.77-2.13c1.29-1.42,1.93-3,1.93-4.73
				c0-1.68-0.62-3.26-1.85-4.73c-1.24-1.47-2.9-2.21-5.01-2.21c-2.05,0-3.72,0.74-5.01,2.21c-1.29,1.47-1.93,3.07-1.93,4.81
				c0,1.73,0.68,3.3,2.05,4.69C377.63,59.41,379.31,60.11,381.31,60.11z"/>
			<path class="st0" d="M408.59,19.9c0-1.21,0.04-2.12,0.12-2.72c0.08-0.6,0.32-1.3,0.71-2.09c0.39-0.79,1.09-1.34,2.09-1.66
				c1-0.32,2.34-0.47,4.02-0.47c1.63,0,2.93,0.17,3.9,0.51c0.97,0.34,1.67,0.89,2.09,1.66c0.42,0.76,0.67,1.46,0.75,2.09
				s0.12,1.55,0.12,2.76v36.5c0,1.89,0.16,3.09,0.47,3.59c0.32,0.5,1.18,0.75,2.6,0.75c0.74,0,1.29,0.04,1.66,0.12
				c0.37,0.08,0.83,0.3,1.38,0.67c0.55,0.37,0.95,1.01,1.18,1.93c0.24,0.92,0.35,2.14,0.35,3.67c0,1.63-0.12,2.94-0.35,3.94
				c-0.24,1-0.63,1.69-1.18,2.09c-0.55,0.39-1.02,0.63-1.42,0.71c-0.39,0.08-0.96,0.12-1.69,0.12c-2.79,0-5.02-0.1-6.7-0.32
				c-1.68-0.21-3.24-0.62-4.69-1.22c-1.45-0.6-2.52-1.54-3.23-2.8c-0.71-1.26-1.25-2.86-1.62-4.81c-0.37-1.94-0.55-4.44-0.55-7.49
				V19.9z"/>
			<path class="st0" d="M458.81,53.25l10.48,8.67c0.68,0.58,1.2,1.02,1.54,1.34c0.34,0.32,0.67,0.74,0.99,1.26
				c0.32,0.53,0.47,1.05,0.47,1.58c0,1.26-0.82,2.97-2.44,5.12c-1.79,2.21-3.47,3.31-5.04,3.31c-1.1,0-2.5-0.68-4.18-2.05
				l-0.32-0.24l-0.79-0.55c-1.21-1-3.07-2.75-5.6-5.24c-2.52-2.5-4.44-4.27-5.75-5.32v6.07c0,1.21-0.04,2.12-0.12,2.72
				c-0.08,0.6-0.32,1.29-0.71,2.05c-0.39,0.76-1.09,1.3-2.09,1.62c-1,0.32-2.34,0.47-4.02,0.47c-1.63,0-2.94-0.16-3.94-0.47
				c-1-0.32-1.69-0.87-2.09-1.66c-0.39-0.79-0.63-1.48-0.71-2.09c-0.08-0.6-0.12-1.51-0.12-2.72V19.9c0-1.21,0.04-2.12,0.12-2.72
				c0.08-0.6,0.32-1.3,0.71-2.09c0.39-0.79,1.09-1.34,2.09-1.66c1-0.32,2.34-0.47,4.02-0.47c1.31,0,2.43,0.13,3.35,0.39
				c0.92,0.26,1.6,0.58,2.05,0.95c0.45,0.37,0.79,0.91,1.02,1.62c0.24,0.71,0.37,1.31,0.39,1.81c0.03,0.5,0.04,1.25,0.04,2.25v24.99
				c0.95-0.79,2.38-2.13,4.3-4.02c1.92-1.89,3.35-3.23,4.3-4.02l0.95-0.63c1.84-1.42,3.28-2.13,4.34-2.13
				c1.58,0,3.21,1.02,4.89,3.07c1.73,2.21,2.6,3.92,2.6,5.12c0,1.21-0.97,2.63-2.92,4.26L458.81,53.25z"/>
			<g>
				<g>
					<path class="st0" d="M238.53,34.04l-9.1,11.48c0.82,0.11,1.61,0.32,2.37,0.66l8.68-10.96C239.85,34.79,239.2,34.4,238.53,34.04
						z"/>
					<path class="st0" d="M234.58,48.14c0.52,0.59,0.91,1.29,1.17,2.09l9-11.36c-0.37-0.4-0.76-0.8-1.17-1.18
						c-0.14-0.13-0.28-0.25-0.42-0.38L234.58,48.14z"/>
					<path class="st0" d="M246.9,41.61l-11.04,13.93c-0.39,1.4-1.15,2.52-2.29,3.38c-1.73,1.31-3.47,1.97-5.2,1.97
						c-1.73,0-3.44-0.64-5.12-1.93c-1.68-1.29-2.52-3.22-2.52-5.79c0-2.52,0.81-4.44,2.44-5.75c0.34-0.27,0.68-0.51,1.03-0.73
						l11.11-14.03c-2.19-0.72-4.5-1.09-6.94-1.09c-5.57,0-10.56,2.05-14.98,6.15c-4.41,4.1-6.62,9.3-6.62,15.61
						c0,4.21,1.12,7.98,3.35,11.31c2.23,3.34,4.98,5.86,8.24,7.57c3.26,1.71,6.65,2.56,10.17,2.56c3.42,0,6.74-0.8,9.97-2.4
						c3.23-1.6,5.98-4.1,8.24-7.49c2.26-3.39,3.39-7.27,3.39-11.63C250.13,48.82,249.05,44.94,246.9,41.61z"/>
				</g>
				<g>
					<path class="st0" d="M191.23,34.04l-9.1,11.48c0.82,0.11,1.61,0.32,2.37,0.66l8.68-10.96C192.55,34.79,191.9,34.4,191.23,34.04
						z"/>
					<path class="st0" d="M187.28,48.14c0.52,0.59,0.91,1.29,1.17,2.09l9-11.36c-0.37-0.4-0.76-0.8-1.17-1.18
						c-0.14-0.13-0.28-0.25-0.42-0.38L187.28,48.14z"/>
					<path class="st0" d="M199.59,41.61l-11.04,13.93c-0.39,1.4-1.15,2.52-2.29,3.38c-1.73,1.31-3.47,1.97-5.2,1.97
						c-1.73,0-3.44-0.64-5.12-1.93c-1.68-1.29-2.52-3.22-2.52-5.79c0-2.52,0.81-4.44,2.44-5.75c0.34-0.27,0.68-0.51,1.03-0.73
						l11.11-14.03c-2.19-0.72-4.5-1.09-6.94-1.09c-5.57,0-10.56,2.05-14.98,6.15c-4.41,4.1-6.62,9.3-6.62,15.61
						c0,4.21,1.12,7.98,3.35,11.31c2.23,3.34,4.98,5.86,8.24,7.57c3.26,1.71,6.65,2.56,10.17,2.56c3.42,0,6.74-0.8,9.97-2.4
						c3.23-1.6,5.98-4.1,8.24-7.49c2.26-3.39,3.39-7.27,3.39-11.63C202.83,48.82,201.75,44.94,199.59,41.61z"/>
				</g>
			</g>
		</g>
	</g>
	<g>
		<path class="st1" d="M27.56,64.92c-1.16,0-2.11-0.94-2.11-2.11s0.94-2.11,2.11-2.11c0.05,0,0.1,0,0.14,0.01
			c-0.4-0.21-0.85-0.33-1.34-0.33h-1.07c-1.59,0-2.88,1.29-2.88,2.88v6.28c0,1.59,1.29,2.88,2.88,2.88h1.07
			c1.59,0,2.88-1.29,2.88-2.88v-5.47C28.86,64.59,28.25,64.92,27.56,64.92z"/>
		<path class="st1" d="M55.94,64.92c-1.16,0-2.11-0.94-2.11-2.11s0.94-2.11,2.11-2.11c0.05,0,0.1,0,0.14,0.01
			c-0.4-0.21-0.85-0.33-1.34-0.33h-1.07c-1.59,0-2.88,1.29-2.88,2.88v6.28c0,1.59,1.29,2.88,2.88,2.88h1.07
			c1.59,0,2.88-1.29,2.88-2.88v-5.47C57.24,64.59,56.63,64.92,55.94,64.92z"/>
		<g class="st2">
			<path class="st3" d="M54.8,58.41h-1.16c-2.53,0-4.58,2.06-4.58,4.58v6.82c0,2.53,2.06,4.58,4.58,4.58h1.16
				c2.53,0,4.58-2.06,4.58-4.58V63C59.38,60.47,57.33,58.41,54.8,58.41z"/>
			<path class="st3" d="M56.09,64.8c-1.26,0-2.28-1.02-2.28-2.28s1.02-2.28,2.28-2.28c0.05,0,0.1,0,0.16,0.01
				c-0.43-0.23-0.93-0.36-1.45-0.36h-1.16c-1.72,0-3.12,1.4-3.12,3.12v6.82c0,1.72,1.4,3.12,3.12,3.12h1.16
				c1.72,0,3.12-1.4,3.12-3.12v-5.94C57.5,64.43,56.84,64.8,56.09,64.8z"/>
		</g>
		<path class="st1" d="M40.26,56.15c-9.12,0-17.78-0.8-25.25-2.32v29c0,2.71,2.2,4.91,4.91,4.91H60.6c2.71,0,4.91-2.2,4.91-4.91v-29
			C58.04,55.35,49.38,56.15,40.26,56.15z M31.27,69.99c0,2.66-2.16,4.82-4.82,4.82h-1.22c-2.66,0-4.82-2.16-4.82-4.82v-7.17
			c0-2.66,2.16-4.82,4.82-4.82h1.22c2.66,0,4.82,2.16,4.82,4.82V69.99z M46.61,74.32c0,2.62-1.6,4.97-4.04,5.92
			c-1.49,0.58-3.14,0.58-4.63,0c-2.44-0.95-4.04-3.3-4.04-5.92v-0.64h12.71V74.32z M59.65,69.99c0,2.66-2.16,4.82-4.82,4.82h-1.22
			c-2.66,0-4.82-2.16-4.82-4.82v-7.17c0-2.66,2.16-4.82,4.82-4.82h1.22c2.66,0,4.82,2.16,4.82,4.82V69.99z"/>
		<path class="st1" d="M78.33,64.92c-0.89,0-1.64,0.56-1.93,1.34h-2.44c-0.11-3.45-2.6-6.31-5.88-6.97V73.7
			c2.96-0.6,5.28-2.99,5.79-5.99h2.54c0.29,0.78,1.05,1.34,1.93,1.34c1.14,0,2.07-0.93,2.07-2.07
			C80.4,65.85,79.47,64.92,78.33,64.92z"/>
		<path class="st1" d="M6.44,66.26H4c-0.29-0.78-1.05-1.34-1.93-1.34C0.93,64.92,0,65.85,0,66.99c0,1.14,0.93,2.07,2.07,2.07
			c0.89,0,1.64-0.56,1.93-1.34h2.54c0.5,3,2.82,5.38,5.79,5.99V59.29C9.04,59.96,6.55,62.81,6.44,66.26z"/>
		<path class="st0" d="M76.49,32.12l-0.05,0.03c-0.21-0.6-0.43-1.2-0.67-1.79l0.04-0.02c-0.2-0.49-0.41-0.98-0.64-1.47l-0.04,0.02
			c-0.26-0.57-0.54-1.14-0.83-1.69l0.03-0.02c-0.25-0.47-0.5-0.93-0.77-1.38l-0.03,0.02c-0.32-0.54-0.65-1.07-0.99-1.6l0.03-0.02
			c-0.29-0.44-0.59-0.88-0.9-1.3l-0.02,0.01c-0.37-0.51-0.75-1.01-1.14-1.51l0.02-0.01c-0.34-0.42-0.68-0.82-1.04-1.22l-0.01,0.01
			c-0.07-0.08-0.15-0.16-0.22-0.25l-4.96,6.26c-0.44,0.56-1.26,0.65-1.82,0.21l-0.23-0.18c-0.56-0.44-0.65-1.26-0.21-1.82l5.21-6.58
			c-0.29-0.28-0.58-0.55-0.88-0.82l-5.27,6.65c-0.44,0.56-1.26,0.65-1.82,0.21l-0.23-0.18c-0.56-0.44-0.65-1.26-0.21-1.82l5.31-6.7
			c-0.33-0.25-0.66-0.5-1-0.74l-5.29,6.67c-0.44,0.56-1.26,0.65-1.82,0.21l-0.23-0.18c-0.56-0.44-0.65-1.26-0.21-1.82l5.13-6.48
			c-1-0.61-2.03-1.18-3.09-1.7c-0.03-0.01-0.05-0.03-0.08-0.04c-0.18-0.09-0.37-0.17-0.55-0.26c-0.11-0.05-0.21-0.1-0.32-0.15
			c-0.14-0.07-0.29-0.13-0.43-0.19c-0.15-0.07-0.3-0.13-0.45-0.2c-0.12-0.05-0.24-0.1-0.36-0.15c-0.17-0.07-0.35-0.15-0.53-0.22
			c-0.11-0.04-0.22-0.08-0.32-0.13c-0.19-0.07-0.38-0.15-0.57-0.22c-0.1-0.04-0.2-0.07-0.3-0.11c-0.2-0.07-0.4-0.14-0.6-0.21
			c-0.1-0.03-0.19-0.07-0.29-0.1c-0.21-0.07-0.42-0.14-0.63-0.2c-0.1-0.03-0.19-0.06-0.29-0.09c-0.21-0.07-0.42-0.13-0.64-0.19
			c-0.1-0.03-0.19-0.05-0.29-0.08c-0.21-0.06-0.43-0.12-0.64-0.17c-0.1-0.03-0.19-0.05-0.29-0.08c-0.22-0.05-0.43-0.11-0.65-0.16
			c-0.1-0.02-0.2-0.05-0.3-0.07c-0.22-0.05-0.43-0.1-0.65-0.14c-0.1-0.02-0.21-0.04-0.31-0.06c-0.21-0.04-0.43-0.08-0.64-0.12
			c-0.11-0.02-0.21-0.04-0.32-0.06c-0.21-0.04-0.43-0.07-0.64-0.11c-0.11-0.02-0.22-0.04-0.33-0.05c-0.21-0.03-0.43-0.06-0.64-0.09
			c-0.11-0.02-0.23-0.03-0.34-0.05c-0.21-0.03-0.42-0.05-0.64-0.07c-0.12-0.01-0.23-0.03-0.35-0.04c-0.21-0.02-0.43-0.04-0.64-0.06
			c-0.12-0.01-0.23-0.02-0.35-0.03c-0.22-0.02-0.44-0.03-0.66-0.04c-0.11-0.01-0.23-0.01-0.34-0.02c-0.23-0.01-0.47-0.02-0.7-0.03
			c-0.1,0-0.2-0.01-0.3-0.01c-0.33-0.01-0.67-0.01-1.01-0.01c0,0,0,0,0,0s0,0,0,0c-21.03,0-38.14,16.28-38.14,36.3
			c0,6.09,1.59,11.82,4.38,16.87c0.01-0.01,0.01-0.01,0.02-0.02c1.49-1.77,3.54-3.05,5.88-3.54v-6.27l2.64,0.63
			c7.11,1.7,16.07,2.63,25.21,2.63c9.15,0,18.11-0.93,25.22-2.63l2.64-0.63v6.13c2.42,0.29,4.58,1.41,6.21,3.06
			c0,0,0.01,0.01,0.01,0.01c2.59-4.89,4.06-10.4,4.06-16.24C78.4,39.48,77.72,35.68,76.49,32.12z"/>
		<path class="st1" d="M78.39,0.81c-2.05-1.7-3.58-0.3-4.2,0.45c-0.62,0.75-0.89,2.28-0.89,2.28s-0.26,4.16-5.03,4.2
			c-1.67,0.02-2.83,0.22-3.65,0.48l0,0l0,0c0,0,0,0,0,0c0,0,0,0,0,0l-2.23,2.75l0.58,0.33c2.95,1.66,5.61,3.8,7.86,6.32l0.6,0.68
			l2.23-2.75c0,0,0,0,0,0c0.09-0.84,0.06-1.97-0.22-3.53c-0.84-4.7,3.19-5.72,3.19-5.72s1.45-0.54,2.07-1.29
			C79.35,4.27,80.44,2.5,78.39,0.81z"/>
	</g>
</g>
</svg>
