<svg version="1.2" xmlns="http://www.w3.org/2000/svg" viewBox="0 0 2500 600" width="2500" height="600">
	<title>logo-portfolio-privacy83-gigapixel-lines-scale-10_00x</title>
	<style>
		.s0 { opacity: 1;fill: #316e88 } 
	</style>
	<g id="Background">
		<path id="Path 0" class="s0" d="m176.5 384.4c-1.9 1.8-1.9 2.7-1.1 34 0.5 17.6 1.4 34.1 2 36.6l1.1 4.5c13.2 0 17.9-0.4 19-0.9 1.1-0.5 2.3-1 2.7-1 0.3-0.1 1-0.5 1.5-1 0.4-0.5 0.4-0.7-0.2-0.4-0.7 0.4-1.1-11.3-1.3-34-0.2-19.1-0.5-35.5-0.7-36.4-0.3-1-1.5-2-2.8-2.3-1.2-0.3-5.8-0.6-10.2-0.7-6.7-0.3-8.3 0-10 1.6z"/>
		<path id="Path 1" class="s0" d="m486.8 356.6c-1.6 0.7-3.3 1.2-3.8 0.9-0.6-0.3-1.1 0.1-1.1 0.7-0.1 0.7-0.2 4.7-0.3 8.8-0.1 4.1-0.3 14.5-0.5 23-0.3 10.7-0.6 14.3-1.1 11.5-0.4-2.2-0.7 5-0.5 16 0.1 11 0.4 21.9 0.6 24.2 0.2 2.2 0.1 3.9-0.4 3.7-0.4-0.2-0.6 0.8-0.5 2.3 0.1 1.6 0.8 3.9 1.5 5.3 0.7 1.4 1.3 4.3 1.4 6.5 0.1 2.2 0.4 5.3 0.8 6.9 0.4 2.2 1.5 3.2 4.1 4.2 1.9 0.7 5.4 1.3 7.7 1.3 2.4 0.1 5.2-0.4 6.3-0.9 1.5-0.7 2-0.7 2.1 0.2 0 0.7 0.9-0.7 1.9-3.2 1.8-4.2 1.9-7.7 1.9-51 0.1-33.1-0.3-48.3-1.2-52.7-0.9-4.5-1.8-6.5-3.2-7.2-1.1-0.5-4.5-1.2-7.5-1.5-3.8-0.3-6.4 0-8.3 1z"/>
		<path id="Path 2" class="s0" d="m721.4 348.5c0 5.5 0.1 7.5 0.3 4.5 0.2-3 0.2-7.5 0-10-0.2-2.5-0.3 0-0.3 5.5z"/>
		<path id="Path 3" class="s0" d="m300 315.6c-1.9 1-4.2 1.6-5 1.5-0.8-0.1-1.9 0.7-2.5 1.6-0.9 1.6-0.8 1.7 0.8 0.3 0.9-0.8 1.9-1.3 2.2-1 0.2 0.3-0.7 1.7-2 3.2-2.2 2.4-2.5 3.8-2.5 10 0 4 0.4 7.7 0.9 8.3 0.6 0.5 1.2 2 1.3 3.2 0.2 1.2 1.1 3.1 2 4.2 1.4 1.7 1.5 2.3 0.5 3.2-1 1-1 1.1 0 0.5 0.9-0.4 1.3 0.3 1.3 2.4 0 1.6-0.6 3.2-1.3 3.4-0.9 0.3-0.9 0.6 0 1.3 0.8 0.5 0.9 1.9 0.4 4.3-0.4 1.9-0.5 6.1-0.2 9.3 0.4 3.7 1.1 5.9 2.1 6.3 0.8 0.3 5.3 0.8 10 1.1 6.5 0.4 9.4 0.2 12.3-1.1 3-1.3 3.7-2.1 3.7-4.4 0-1.5-0.8-6.1-1.7-10.2-0.9-4.1-1.7-8.9-1.7-10.7-0.1-1.8 0.8-4.1 2-5.5 1.2-1.2 3.1-4.3 4.2-6.8 1.2-2.5 2.2-6.3 2.2-8.5 0-2.4-1-5.7-2.5-8.3-1.6-2.6-4-4.9-6.5-6.2-2.2-1.1-6.8-2.2-10.3-2.5-4.6-0.4-7.1-0.1-9.7 1.1z"/>
		<path id="Path 4" class="s0" d="m417.3 242.3c-1.8 0.7-4.2 2-5.3 2.9-1.2 1.1-2 3.1-2.1 5-0.1 1.8 0 4.9 0.1 6.8 0.1 1.9 1.2 5.7 2.5 8.5 1.2 2.7 3 7.4 3.9 10.2 0.9 2.9 1.6 5.7 1.6 6.3 0 0.6-0.3 0.8-0.8 0.6-0.4-0.2-0.5 2.4-0.2 5.7l0.4 6.2 1.1-11c1.1 12.4 1.5 48.6 1.5 88.5 0 39.9 0.4 74.7 0.8 77.3 0.4 2.7 1.4 5.5 2.2 6.2 1 0.9 5 1.5 11.5 1.7 6.1 0.2 10.1-0.1 10.3-0.7 0.2-0.6 0.9-1.6 1.5-2.4 0.9-1.2 0.9-1.3-0.1-0.8-0.6 0.4-1.3 0.1-1.5-0.6-0.2-0.6 0.1-3 0.6-5.2 0.5-2.2 1.2-4.7 1.6-5.5 0.4-0.8 0.6-26.3 0.5-56.5-0.1-30.3-0.5-61.8-0.8-70-0.4-8.3-1.1-20.4-1.7-27-0.5-6.6-1.3-12.4-1.7-13-0.4-0.6-1.4-2.8-2.1-5-0.7-2.2-1.9-5.4-2.6-7-0.7-1.6-1.8-5-2.5-7.5-0.8-2.5-3-6.2-4.9-8.4-2-2.1-5.1-4.5-6.9-5.2-1.7-0.8-3.3-1.4-3.5-1.3-0.1 0-1.6 0.6-3.4 1.2z"/>
		<path id="Path 5" class="s0" d="m295.5 230c-3.3 0.4-8.3 1.4-11 2.2-2.8 0.9-8.6 3.4-13 5.7-4.4 2.2-10.8 6.2-14.2 8.8-3.4 2.7-6.2 5.4-6.2 6-0.1 0.7-0.8 1.5-1.6 1.8-0.8 0.3-1.5 1.2-1.5 2 0 0.8-0.3 1.5-0.8 1.5-0.4-0.1-1.6 2.1-2.6 4.7-1.1 2.6-3 6-4.3 7.5-1.2 1.6-2.3 3.5-2.3 4.3 0 0.8-0.4 1.5-1 1.5-0.6 0-1.2 2.1-1.5 4.7-0.3 2.7-1.1 7.5-1.7 10.8-0.7 4-1 23.3-1 57 0.2 40 0.5 51.9 1.6 55 0.9 2.8 2.1 4.2 3.7 4.7 1.3 0.3 4.2 0.6 6.4 0.7 2.2 0 5.8-0.5 7.9-1.2 2.2-0.6 4.5-2.1 5.2-3.2 0.8-1.1 1.7-5.7 2.1-10.3 0.6-6.3 1.1-8.2 2.3-8.2 1.3 0 1.4-1.3 0.7-9.2-0.5-5.1-1.4-9.6-2-10-0.9-0.5-1.2-9.3-1.3-31-0.1-16.7 0.2-34.1 0.7-38.8 0.5-4.7 1.6-9.9 2.4-11.5 0.9-1.6 1.5-3.7 1.5-4.5 0-0.8 0.8-2.7 2-4.3 1.1-1.5 2-3.1 2-3.7 0-0.6 0.9-1.6 2-2.3 1.1-0.6 2-1.8 2-2.5 0-0.6 3-2.8 6.7-4.7 3.8-2 9.7-4.3 13.3-5.1 4.9-1.3 9.4-1.5 18-1.2 8.6 0.4 13.1 1.2 18.1 2.9 3.6 1.3 8.3 3.6 10.5 5.1 2.1 1.5 5.3 4.4 7 6.5 1.8 2.1 5.1 7.4 7.4 11.8l4.3 8c-0.2 77.1 0.1 93.7 0.7 94 0.6 0.3 1 1.1 1 1.7q0 1.3-1-0.2c-0.8-1.2-1-1.1-0.7 0.5 0.1 1.1 0.6 2.7 1.1 3.5 0.5 0.9 0.4 1.9-0.3 2.5-0.6 0.6-1.1 2-1.1 3.2 0 1.3 0.6 2.3 1.2 2.3 0.8 0 1.6 2.3 2.1 6.2 0.5 3.5 1 6.8 1 7.5 0.1 0.6 3.1 1.9 6.7 2.8 3.8 1 7.9 1.5 9.7 1.1 2.5-0.4 3.1-0.3 2.6 0.6-0.5 1-0.3 1 1 0 1.1-0.7 1.6-2.2 1.3-4-0.2-1.5 0.3-3.4 1.1-4.2 1.3-1.3 1.5-9.4 1.1-60.5l-0.4-59c-4.3-12.4-6.1-16.7-6.8-17.5-0.8-0.8-1.6-2.4-2-3.5-0.3-1.1-3.6-6.1-7.3-11-4.3-5.6-8.8-10.3-12-12.5-2.9-1.9-6.9-4.3-9-5.4-2.1-1-4.9-2.4-6.3-3-1.4-0.7-4.5-1.8-7-2.5-2.5-0.7-5.9-1.7-7.5-2.2-1.6-0.5-7.1-1.4-12-1.9-4.9-0.5-9.9-0.9-11-0.8-1.1 0-4.7 0.4-8 0.8z"/>
		<path id="Path 6" class="s0" d="m2209.5 191.6c-0.6 1.8-1.2 7.1-1.3 11.6-0.1 4.6 0.4 10 1.1 12 0.6 2.1 1.9 3.9 2.7 4.1 0.8 0.1 12.1 0 25-0.4 12.9-0.4 26.9-1.1 31-1.5 4.1-0.4 8.7-0.4 10.3 0 2.1 0.5 2.7 1.2 2.7 3.4 0 1.9-2.2 5.3-7.8 11.9-4.2 5.1-9.5 11.8-11.7 14.9-2.2 3.1-5.8 7.8-8 10.5-2.2 2.7-5.7 7.2-7.7 10.1-2.1 2.9-6 7.7-8.8 10.6-4.6 4.8-5 5.6-5 10.2 0 3.8 0.4 5.2 1.7 5.7 1 0.3 6.1 0.1 11.3-0.5 5.2-0.7 16-1.3 24-1.5l14.5-0.2c9 5.8 9.4 6.3 9.5 10 0 2.2-0.7 5.8-1.4 8-0.8 2.2-4 6.6-7 9.8-3.1 3.1-5.4 6-5.1 6.5 0.2 0.4-0.4 1.6-1.6 2.7-1.1 1.1-2 2.6-1.9 3.3 0 0.6-0.3 1.2-0.8 1.2-0.4 0-3 3-5.8 6.7-2.8 3.8-8.6 11.5-12.9 17.3-4.3 5.8-8 11.2-8.3 12-0.3 0.8-2.1 3.5-4.2 6-2 2.5-4.5 5.9-5.5 7.5-1.1 1.6-3.4 4.8-5.2 7-1.8 2.2-3.3 4.3-3.3 4.8 0 0.4-2.7 4-6 8-4.7 5.6-6.1 7.9-6 10.5v3.2c32.2 0.4 49.8 0.4 60 0.3l18.5-0.2c3.9-4.3 6.9-8.5 9-12.1 2.2-3.6 4.3-6.6 4.7-6.7 0.5-0.2 2.9-3.5 5.5-7.5 2.7-3.9 5.8-8.5 7-10.2 1.2-1.7 3.6-4.9 5.2-7.1 1.7-2.2 4.7-6.6 6.8-9.8 2.1-3.2 5.6-8.1 7.8-11 2.2-2.9 6.6-9.3 9.6-14.2 3.1-4.9 7.2-11.9 9.2-15.5 2.7-5.1 3.6-8.1 4.1-13.7 0.3-4 0.2-10.3-0.3-14-0.6-3.8-2-8.8-3.3-11.2-1.3-2.4-3.5-5.3-5-6.5-1.5-1.1-4-3.1-5.5-4.3-1.6-1.2-4.8-2.9-7.3-3.7-2.5-0.9-6.5-1.7-9-1.7-2.5-0.1-5.6-0.4-7-0.8q-2.5-0.7-2.8-3.1c-0.2-1.6 1.2-4.8 4-9 2.4-3.6 8.1-11.7 12.8-18 4.7-6.2 9.4-12.8 10.5-14.6 1.1-1.7 3.3-5.1 4.9-7.5 1.6-2.4 4.2-5.7 5.8-7.4 1.6-1.7 3.8-4.7 4.9-6.7 1-2.1 2.3-4 2.9-4.3 0.6-0.3 1-1.6 1-3 0-1.6-0.8-3-2.3-3.7-1.7-1-20.9-1.3-80.6-1.4l-78.4-0.2z"/>
		<path id="Path 7" class="s0" d="m1810.1 190.3c-1 1.7-1 3.2 0 6.7 0.6 2.5 3.7 8.8 6.9 14 3.1 5.2 7.6 13.1 10 17.5 2.3 4.4 4.6 8.4 5.1 9 0.5 0.5 0.9 1.6 0.9 2.2 0 0.7 1.1 2.8 2.5 4.5 1.3 1.8 2.5 3.6 2.5 4 0 0.5 1.5 3.2 3.4 6 1.8 2.9 4.8 8.4 6.6 12.3 1.8 3.9 4.7 9 6.5 11.5 1.8 2.5 5.6 9.2 8.5 15 2.9 5.8 5.9 11.6 6.6 13 0.9 1.9 1.2 15.1 1.1 56.7-0.2 53.7-0.2 54.3 1.8 54.4 1.1 0.1 16.6 0.1 34.5 0 17.9-0.1 32.7-0.4 33-0.8 0.3-0.3-0.4-0.3-1.5 0.1-1.6 0.5-1.6 0.3 0.5-1.5 1.4-1.1 2.1-1.9 1.5-1.6-0.7 0.3-1-18-1-54.1 0-46.5 0.3-55.1 1.5-57.2 0.8-1.4 2.4-3.6 3.6-5 1.2-1.4 2.8-4.3 3.6-6.5 0.9-2.2 3-6.3 4.7-9 1.7-2.8 3.8-6.6 4.7-8.5 0.9-1.9 2.2-4.2 2.9-5 0.8-0.8 3.6-5.8 6.3-11 2.8-5.2 7.3-13.6 10.2-18.5 2.9-4.9 6.1-10.1 7.2-11.5 1-1.4 2.4-4.1 2.9-6 0.6-1.9 2.5-5.9 4.3-8.8 1.7-2.9 3.4-5.2 3.9-5.2 0.4 0 2-2.8 3.7-6.3 1.6-3.4 3-6.8 3-7.5 0-0.6-1.2-2.1-2.7-3.3-2.6-2-3.8-2.1-16.9-1.8-12.5 0.4-14.4 0.6-16.4 2.4-1.2 1.1-3 4-4.1 6.5-1.1 2.5-1.9 4.9-1.9 5.5 0 0.6-2 4.1-4.6 8-2.6 3.8-6.1 9.9-7.7 13.5-1.6 3.6-5.1 9.8-7.8 13.7-2.7 4-4.9 7.7-4.9 8.3 0 0.6-1.1 3.1-2.5 5.7-1.4 2.7-2.5 5.4-2.5 6 0 0.7-1 3.6-2.2 6.4-1.4 2.9-3.1 5.2-4.3 5.6-1.4 0.4-2.7-0.3-4.2-2.1-1.3-1.4-2.3-3.5-2.3-4.6 0-1.1-0.4-2.2-1-2.5-0.5-0.3-1.2-1.9-1.5-3.5-0.3-1.7-0.9-3-1.5-3-0.5 0-1-0.4-1-1 0-0.6-2-5.2-4.5-10.3-2.4-5-5.1-10.3-5.9-11.7-0.8-1.4-2.9-5.4-4.7-9-1.7-3.6-4.1-7.6-5.2-9-1.2-1.4-2.8-4.6-3.6-7-0.7-2.5-2.2-6.4-3.2-8.8-1.1-2.3-3.4-5.3-5.1-6.7l-3.3-2.4-65.2-0.1z"/>
		<path id="Path 8" fill-rule="evenodd" class="s0" d="m1464 188.1c21.4-0.1 27.1 0.1 29.5 1.3 2.4 1.2 3.4 2.7 4.8 7.3 1 3.2 2.2 7.6 2.8 9.8 0.6 2.2 1.6 5.3 2.2 7 0.5 1.7 1.6 4.3 2.3 6 0.6 1.7 2 5.3 3 8 1 2.8 2.5 6.3 3.4 8 0.9 1.7 2.5 5.7 3.5 9 1 3.3 2.7 8.7 3.7 12 1.1 3.3 2.9 8 3.9 10.5 1.1 2.5 2.4 5.4 2.9 6.5 0.5 1.1 2 5.1 3.3 9 1.4 3.9 3.3 9.3 4.2 12 0.9 2.8 2.1 5.9 2.5 7 0.5 1.1 1.1 3.6 1.4 5.5 0.3 1.9 1.9 6.2 3.6 9.5 1.7 3.3 4.9 11.6 7.2 18.5 2.2 6.9 4.7 14.3 5.5 16.5 0.8 2.2 1.9 4.8 2.4 5.8 0.5 0.9 0.9 2.5 0.9 3.5 0 0.9 0.4 2.1 0.9 2.7 0.5 0.6 2.3 4.6 4.1 9 1.7 4.4 3.5 8.9 4 10 0.5 1.1 1.1 3.5 1.4 5.3 0.3 1.7 1.4 5.1 2.5 7.5 1 2.3 2.5 6 3.3 8.2 0.8 2.2 2 5.6 2.6 7.5 0.9 2.7 0.9 3.8-0.1 4.7-0.9 0.9-9.8 1.3-35.2 1.3-18.7 0-34.3-0.3-34.6-0.7-0.3-0.5-1.8-4.3-3.2-8.5-1.5-4.3-2.7-8.5-2.7-9.3 0-0.8-0.4-2.3-0.9-3.2-0.5-1-1.7-4.5-2.7-7.8-1-3.3-2.2-6.4-2.6-7-0.5-0.6-0.8-1.9-0.8-3 0-1.1-0.6-2.9-1.3-4-0.8-1.1-2.3-4.5-3.5-7.5-1.2-3-2.5-7.2-2.9-9.3-0.4-2-1.5-4-2.3-4.3-0.8-0.2-5.1-0.4-9.5-0.4-4.4 0-10.2 0.1-13 0.2-2.7 0-13.3 0-23.5-0.1-10.2-0.1-20.2-0.2-22.2-0.2-2.4 0.1-4.5 0.8-5.8 2.1-1.2 1.2-2 3.4-2 5.3 0 1.7-1.2 7.3-2.6 12.2-1.3 4.9-2.7 9.9-2.9 11-0.3 1.1-2.6 8.1-5.1 15.5-2.6 7.4-5.4 14.6-6.4 16q-1.7 2.5-6.6 3.6c-2.7 0.6-9.6 1.2-15.4 1.3-5.8 0.2-11.7 0-13.2-0.3-2.3-0.5-2.8-1.1-2.8-3.6 0-1.6 0.3-3 0.8-3 0.4 0 0.8-1 1-2.2 0.2-1.3 0.4-3.2 0.5-4.3 0.2-1.1 0.8-3.2 1.5-4.7 0.7-1.6 1.7-4 2.4-5.5 0.6-1.6 1.2-3 1.2-3.3 0.1-0.3 0.6-2.3 1.3-4.5 0.6-2.2 1.7-6 2.3-8.5 0.7-2.5 1.8-6 2.6-7.7 0.8-1.8 1.4-4.2 1.4-5.3 0-1.1 0.5-2.2 1-2.5 0.5-0.3 1-1.4 1-2.5 0-1.1 0.5-2 1-2 0.5 0 0.8-0.4 0.5-1-0.3-0.6 0-1.2 0.5-1.5 0.5-0.3 1-1.4 1-2.5 0-1.1 0.4-2.8 0.9-3.7 0.5-1 1.6-3.6 2.4-5.8 0.8-2.2 1.9-5.6 2.6-7.5 0.6-1.9 1.1-4.2 1-5 0-0.8 0.7-2.2 1.6-3 0.9-0.8 1.6-3 1.5-4.7 0-1.8 0.5-3.5 1-3.8 0.5-0.3 1 0.3 1.1 1.3 0 0.9 1.1-1.4 2.3-5.3 1.2-3.9 3.2-9 4.4-11.5 1.2-2.5 2.2-5.2 2.2-6 0-0.8 0.4-1.9 0.9-2.5 0.4-0.6 1.6-3.7 2.5-7 0.9-3.3 2.3-8 3.1-10.5 0.7-2.5 1.9-6.1 2.6-8 0.6-1.9 1.5-4.4 2-5.5 0.4-1.1 1.9-5.1 3.4-9 1.4-3.8 3.2-8.5 4-10.2 0.8-1.8 1.5-4.2 1.5-5.3 0-1.1 0.4-2.8 0.9-3.7 0.5-1 2.2-5.9 3.7-10.8 1.5-4.9 3.3-10 4-11.2 0.8-1.3 2.8-7.1 4.4-13 1.7-6 3.6-11.3 4.2-12 0.6-0.6 2.5-1.4 4.2-1.6 1.7-0.2 15-0.5 29.6-0.6zm-24.1 66.1c0.1 1-0.5 4.6-1.3 8.1-0.8 3.4-2.2 9.8-3.2 14.2-1 4.4-2.1 8.2-2.5 8.5-0.3 0.3-0.9 1.6-1.2 3-0.3 1.4-1.3 5-2.2 8-0.8 3-2.9 8.1-4.5 11.3-1.7 3.1-3 6.8-3 8.2 0 1.4 0.3 2.5 0.8 2.6 0.4 0 10.6 0.2 22.7 0.4 12.1 0.2 22.8 0.1 23.8-0.1 0.9-0.2 1.7-1.3 1.7-2.4 0-1.1-0.7-3.5-1.6-5.2-1-1.8-3.5-8.5-5.7-14.8-2.2-6.3-5-14-6.3-17-1.4-3-2.4-6.2-2.4-7 0-0.8-1.4-5.3-3-10-1.7-4.7-3.8-9.6-4.8-10.9-0.9-1.3-2.2-2.6-2.8-2.8-0.6-0.2-1.9 0.6-2.9 1.9-0.9 1.2-1.7 3-1.6 4z"/>
		<path id="Path 9" fill-rule="evenodd" class="s0" d="m917.8 188.1c26.3 0.2 54 0.6 61.7 1.1 7.7 0.4 16.6 1.5 19.8 2.3 3.1 0.8 6.6 1.5 7.7 1.5 1.1 0 4.4 0.8 7.3 1.7 2.8 0.9 7.2 2.8 9.7 4.1 2.5 1.4 7.9 5.3 12 8.7 4.1 3.5 8.5 7.4 9.7 8.6 1.2 1.3 4.3 6 6.8 10.4 2.5 4.4 4.5 8.4 4.5 9 0 0.6 1.1 3.9 2.5 7.5 2 5.3 2.5 8.2 2.5 15.5 0 5.6-0.7 11.1-1.8 14.7-0.9 3.1-2.1 6-2.5 6.5-0.4 0.4-0.7 1.8-0.7 3.1 0 1.2-1.1 3.7-2.5 5.5-1.3 1.7-2.5 3.5-2.5 4 0 0.4-1.2 2.4-2.7 4.5-1.5 2-4.2 5.2-6 7-1.8 1.7-3.8 3.2-4.3 3.2-0.5 0-6.6 2.7-13.5 6-6.9 3.3-12.7 6.3-12.9 6.8-0.3 0.4 0.1 2.5 0.9 4.7 0.8 2.2 2.6 6.5 4 9.5 1.5 3 3.5 6.4 4.5 7.5 1 1.1 3.2 4.7 5 8 1.8 3.3 4.2 7.6 5.3 9.5 1.1 1.9 3.2 5.8 4.6 8.5 1.4 2.8 3.6 6.4 4.7 8 1.2 1.6 3.2 5 4.6 7.5 1.4 2.5 4 7.2 5.8 10.5 1.8 3.3 4.1 7.4 5 9 0.9 1.6 2 4.5 2.4 6.3 0.4 2 1.4 3.5 2.7 4 2 0.7 2 0.8 0.2 2.5-1.7 1.6-4.7 1.7-37.8 1.7-26.5-0.1-36.3-0.4-37.3-1.3-0.7-0.7-2.1-3.9-3.2-7.2-1-3.3-2.4-7.6-3.2-9.5-0.7-1.9-3.3-7.6-5.9-12.5-2.5-4.9-5-9.9-5.6-11-0.6-1.1-2.2-4.5-3.6-7.5-1.4-3-4.9-10.4-7.7-16.5-2.9-6.1-5.9-11.6-6.6-12.2-0.8-0.7-1.4-2.2-1.4-3.3 0-1.1-0.4-2.8-0.9-3.7-0.4-1-1.6-3.3-2.5-5-0.9-1.8-1.6-4-1.6-4.8 0-0.8-1.1-3.3-2.5-5.5-1.4-2.2-3.2-5.7-4.1-7.7-0.8-2.1-2.1-4.1-2.7-4.5-0.7-0.4-1.5-0.5-1.9-0.2-0.5 0.2-0.6 1.9-0.3 3.7 0.2 1.7 0.7 26.4 1 54.7 0.3 28.3 0.2 52.1-0.2 52.8-0.6 1-7.9 1.3-66.3 1.2l-0.1-112.6c0-83.1 0.3-113.1 1.1-114.6 1.2-1.9 2.5-1.9 48.8-1.7zm15.9 36c1.3 63.2 2 75.6 2.7 76.1 0.6 0.4 1.3 0.4 1.6 0 0.3-0.4 1.4-0.9 2.5-1.1 1.1-0.2 7-0.7 13-1.1 6-0.5 12.8-1.2 15-1.7 2.2-0.5 6.5-2.3 9.5-4 3-1.7 6.7-4.6 8.1-6.4 1.5-1.9 3.7-5.6 4.9-8.4 1.1-2.7 2.6-8.4 3.2-12.5 0.9-5.8 0.9-8.8-0.1-13.5-0.7-3.3-2.5-8.2-4-10.8-1.4-2.7-5-7.3-7.8-10.3-2.9-3-6.3-5.6-7.5-5.8-1.3-0.2-4.8-0.9-7.8-1.5-3-0.6-10.7-1.3-17-1.6-9.5-0.5-11.9-0.3-13.9 1z"/>
		<path id="Path 10" fill-rule="evenodd" class="s0" d="m694.8 188c21.3 0 47.5 0.5 58.2 1 11.9 0.6 21.4 1.5 24.5 2.5 2.8 0.8 6.1 1.5 7.5 1.5 1.4 0 4.3 0.7 6.5 1.5 2.2 0.9 5.1 2.1 6.5 2.8 1.4 0.6 5.4 3 9 5.3 3.6 2.3 9 6.4 12 9 3 2.6 7.1 7 9 9.8 1.9 2.8 4.1 6.4 4.9 8.1 0.7 1.7 2 5 2.8 7.5 1.2 3.4 1.5 9.2 1.5 23.5 0 12.7-0.4 20.5-1.3 23.5-0.7 2.5-1.9 5.4-2.6 6.5-0.7 1.1-1.3 2.6-1.3 3.3 0 0.6-1.2 2.9-2.7 5-1.6 2.1-4.6 5.3-6.8 7.3-2.2 1.9-5.6 4.6-7.5 6-1.9 1.4-5.5 3.7-8 5.2-2.5 1.4-7.2 3.6-10.5 4.7-5.5 2-8.8 2.2-40.5 2.7-19 0.3-34.8 0.8-35.2 1.2-0.4 0.3-0.8 2-0.9 3.6 0 1.6 0 18.5 0.1 37.5 0.1 19 0.5 33.4 0.9 32 0.7-2.3 0.8-2.3 1.2-0.5 0.3 1.1 0.6 5.3 0.7 9.3 0.1 4-0.2 7.4-0.8 7.7-0.5 0.3-1-0.1-1-0.8 0-0.6-0.5-0.4-1.2 0.7-1.2 1.7-3 1.8-32.8 1.7-17.3-0.1-31.7-0.4-32-0.6-0.3-0.2-0.7-50.7-0.9-112.3-0.3-86.1-0.2-112.6 0.8-114.1 1.1-2.1 1.8-2.1 39.9-2.1zm24.9 69.2c-0.1 21.4 0.2 34.1 0.8 34.8 0.6 0.6 3 1.3 5.5 1.6 2.5 0.3 10.3-0.3 17.5-1.4 7.2-1.1 14.7-2.7 16.8-3.6 2.4-1 4.7-3.2 6.7-6.4 1.6-2.6 3-5.4 3-6.2 0-0.8 0.6-2.2 1.4-3 0.7-0.8 1.8-3.3 2.4-5.5 0.6-2.2 1.2-5.6 1.2-7.5 0-1.9-0.5-5.1-1.1-7-0.6-1.9-1.6-4.4-2.2-5.5-0.6-1.1-2.1-4-3.4-6.5-1.3-2.5-3.6-6.2-5.1-8.2-1.5-2-3.8-4.5-5.2-5.6-1.4-1-5-2.4-8-3.1-3-0.7-8.2-1.7-11.5-2.2-3.3-0.6-8-1.2-10.5-1.5-3.6-0.4-4.9-0.2-6.3 1.3-1.6 1.6-1.8 4.9-2 35.5z"/>
		<path id="Path 11" class="s0" d="m1184.8 188.2c-1.4 1.4-1.7 2.7-1.2 5.6 0.4 2 1.3 4.7 2 6 0.8 1.2 1.4 2.9 1.4 3.7 0 0.8 0.8 1.7 1.8 2 0.9 0.2 2.2 1.5 2.9 2.7 0.6 1.3 2.2 5 3.4 8.3 1.2 3.3 2.1 7.6 2.1 9.5-0.1 1.9 0.9 5.8 2.2 8.5 1.3 2.8 3.6 7.5 5 10.5 1.4 3 2.6 6.1 2.6 6.8 0 0.6 0.4 2 0.8 3 0.5 0.9 1.6 3.2 2.5 5 0.9 1.7 1.7 3.9 1.7 4.7 0 0.8 0.4 2.3 0.9 3.3 0.4 0.9 1.5 3.3 2.3 5.2 0.8 1.9 2.7 6 4.2 9 1.4 3 2.6 5.9 2.6 6.5 0 0.6 1.1 3.4 2.5 6.3 1.4 2.8 2.5 5.8 2.5 6.5 0 0.6 0.6 2.8 1.3 4.7 0.7 1.9 1.8 4.5 2.5 5.8 0.7 1.2 1.2 2.9 1.2 3.7 0 0.8 1.1 3.6 2.4 6.3 1.3 2.6 3.5 7.2 5 10.2 1.4 3 2.6 6.3 2.6 7.3 0 0.9 0.5 1.9 1 2.2 0.5 0.3 1 1.3 1 2.3-0.1 0.9 0.9 2.6 2 3.7 1.1 1.1 2.5 3.4 3.1 5 0.6 1.6 1.8 4.8 2.6 7 0.9 2.2 3.1 7.4 5 11.5 1.8 4.1 4 8.7 4.8 10.3 0.8 1.5 1.5 3.5 1.5 4.5 0 0.9 0.4 2.1 0.9 2.7 0.4 0.6 1.6 3.7 2.6 7 1 3.3 2.3 7.6 2.9 9.6 0.6 2 2.9 6.1 5.1 9.2 2.2 3.1 4.6 5.6 5.3 5.7 0.6 0 1.7-1.2 2.3-2.7 0.6-1.6 2.3-5.5 3.9-8.8 1.6-3.3 3.1-7 3.4-8.2 0.3-1.3 1.5-2.7 2.6-3.3 1.1-0.5 3.6-4.5 5.6-8.7 2-4.3 4-8.6 4.5-9.5 0.5-1 0.9-2.5 0.9-3.3 0-0.8 1.1-3.9 2.5-6.7 1.4-2.9 2.5-6.5 2.3-7.9-0.2-1.4 0.8-5 2.1-8 1.3-3 2.9-6.8 3.6-8.4 0.7-1.6 1.9-4.2 2.6-5.8 0.8-1.5 1.6-2.3 1.9-1.7 0.3 0.6 1.5-1.3 2.8-4.2 1.2-2.9 2.2-5.9 2.2-6.5 0-0.7 1.8-4.9 4-9.3 2.2-4.4 4-8.4 4-9 0-0.5 0.4-1.8 0.9-2.7 0.5-1 2.1-4.7 3.5-8.3 1.4-3.6 2.6-6.9 2.6-7.5 0-0.5 1.1-3.2 2.5-6 1.3-2.7 2.5-5.6 2.5-6.2 0-0.7 1.8-4.9 4-9.3 2.2-4.4 4-8.4 4-9 0-0.5-0.6-1.1-1.2-1.3-1-0.3-0.8-1.4 0.5-4.8 1-2.4 2.5-5.6 3.3-7.1 0.8-1.6 1.4-3.5 1.4-4.3 0-0.8 0.6-1.3 1.3-1.2 0.6 0.2 2.4-1.9 3.9-4.7 1.8-3.2 2.4-5.5 1.9-6.1-0.6-0.6-0.5-2.1 0.4-4 0.7-1.6 2-4.6 2.8-6.5 0.8-1.9 2.1-5.6 2.9-8.3 0.7-2.6 1.6-4.7 2.1-4.7 0.4 0 0.9 0.6 1.1 1.3 0.2 0.6 0.7-0.1 1.1-1.8 0.5-1.6 1.4-3.9 2.2-5 0.7-1.1 1.4-4.1 1.6-6.7 0.1-2.8-0.3-5.2-1.1-6-0.8-0.8-4.7-1.5-9.5-1.7-4.9-0.3-7.9-0.1-7.5 0.5 0.4 0.5-2.9 1.5-7.5 2.4-4.5 0.8-8.6 1.9-9.2 2.6-0.5 0.6-1.7 0.9-2.5 0.7q-1.5-0.4-2.8 3.4c-0.7 2.1-1.7 5.6-2.2 7.8-0.5 2.2-1.3 5.8-1.9 8-0.6 2.2-1.5 4.5-2.1 5-0.6 0.6-1 1.8-1 2.8 0 0.9-0.4 2.5-0.9 3.5-0.5 0.9-1.6 3.3-2.4 5.2-0.8 1.9-1.3 4.4-1 5.5 0.3 1.2-1 5.2-3.1 9.8-2.1 4.6-4.2 7.7-5.1 7.7-0.8 0-1.8 1.2-2.1 2.8-0.3 1.5-1.5 5.2-2.6 8.2-1.1 3-2.2 6.4-2.5 7.5-0.2 1.1-0.9 3.1-1.5 4.5-0.6 1.4-1.4 3.2-1.8 4-0.4 0.8-1.7 4.9-3 9-1.2 4.1-2.6 8-3.1 8.5-0.4 0.6-0.4 1.8 0.1 2.8 0.7 1.2 0.6 2-0.5 2.7-0.8 0.6-2.2 0.8-3 0.5-0.8-0.3-2.4-2.6-3.6-5.2-1.2-2.7-2.9-7.3-4-10.3-1-3-1.9-6.4-1.9-7.5 0-1.1-0.9-4.5-1.9-7.5-1.1-3-3-8.4-4.4-12-1.3-3.6-2.7-7.4-3.1-8.5-0.4-1.1 1.3 2.1 3.8 7 2.4 5 4.5 8.7 4.5 8.3 0.1-0.5-0.6-2.5-1.5-4.5-0.9-2.1-2-4.7-2.4-5.8-0.4-1.1-1.5-3.7-2.4-5.7-0.9-2.1-1.6-4.5-1.6-5.3 0-0.8-0.7-1.5-1.5-1.5-0.8 0-2.2-1.1-3-2.5-0.8-1.4-2.7-6.2-4.2-10.7-1.5-4.6-3.3-9.8-4-11.5-0.7-1.8-1.3-4-1.3-4.8 0-0.8-0.4-1.7-1-2-0.5-0.3-1-1.2-1-2 0-0.8-1.1-3.9-2.5-6.7-1.6-3.3-2.4-6.2-2-7.8 0.3-1.7-0.2-3.4-1.7-5.3l-2.3-2.9c-64.4-0.4-67.1-0.2-68.7 1.4z"/>
		<path id="Path 12" class="s0" d="m1125.2 187.4c-20.7 0.9-25.5 1.4-26.2 2.6-0.4 0.8-1.1 35.9-1.5 78-0.4 42.1-0.7 88-0.6 102 0 14 0.2 30.4 0.4 36.5l0.4 11c51-0.5 66.7-0.7 67.8-0.9 2-0.3 2-1.1 2.2-98.2 0.2-64.5-0.1-98.2-0.7-98.9-0.6-0.6-1-4.9-1-9.7 0-5.2 0.4-8.8 1-8.8 0.5 0 1-2.6 1-5.7 0.1-4.2-0.4-6.2-1.6-7.3q-1.7-1.5-8.8-1.6c-3.9-0.1-18.5 0.3-32.4 1z"/>
		<path id="Path 13" fill-rule="evenodd" class="s0" d="m2103.5 183.1c4.4 0 10.9 0.4 14.5 1 3.6 0.6 9.2 1.8 12.5 2.6 3.3 0.9 8.3 2.3 11 3.1 2.8 0.9 7.3 3 10 4.8 2.8 1.8 7.3 5.6 10.1 8.6 2.9 2.9 7.5 9 10.3 13.6 2.8 4.5 5.1 9 5.1 10 0 0.9 0.5 2.3 1.2 3q1.3 1.3 1.3 11c0 5.3-0.6 12-1.3 14.7-0.8 2.8-1.9 6.4-2.5 8-0.6 1.6-1.5 3.4-2 4-0.5 0.6-2.6 3.8-4.8 7.3-2.1 3.4-6.1 7.9-8.8 10-2.7 2-5.4 4.5-6 5.5-0.6 0.9-0.9 2.5-0.7 3.5 0.3 0.9 2 2.4 3.8 3.2 1.8 0.8 6.2 3.9 9.8 7 3.6 3 7.6 6.8 9 8.4 1.4 1.6 3.2 4.3 4 6 0.9 1.7 2.2 5.4 3 8.1 1 3.4 1.5 9.6 1.4 19.5 0 10.2-0.5 16.1-1.6 20-0.9 3-2.7 7.8-4 10.5-1.2 2.8-5.1 8.4-8.4 12.5-3.4 4.1-8.7 9.8-11.8 12.5-3.2 2.8-7.6 5.9-9.9 7-2.3 1.1-6.2 3.2-8.7 4.7-2.5 1.5-6.5 3.3-9 4.2-2.5 0.8-7.5 2.2-11.3 3-4.9 1.2-12.1 1.6-26.7 1.6-14.8 0-21.5-0.4-25.8-1.5-3.1-0.9-5.9-2-6.2-2.5-0.3-0.5-2.3-1.5-4.5-2.3-2.2-0.8-6.5-3-9.5-5-3-2.1-6.1-3.7-6.7-3.7-0.7 0-3.2-1.9-5.6-4.2-2.3-2.4-7-8.1-10.4-12.8-3.3-4.7-6.8-10.7-7.6-13.5-0.9-2.7-2.2-8.1-2.8-12-0.7-4-0.9-10.2-0.6-14.5 0.4-4.1 1-10.4 1.5-14 0.5-3.8 1.7-7.8 3-9.7 1.2-1.8 2.2-3.7 2.2-4.3 0-0.6 0.8-1.6 1.9-2.2 1-0.7 2.5-2.7 3.4-4.3 0.8-1.6 3-4.4 4.9-6.2 1.8-1.7 7.1-5 11.8-7.3 4.7-2.2 8.9-4.4 9.3-4.8 0.5-0.4 0.6-1.6 0.3-2.7-0.3-1.1-3.2-4.1-6.6-6.7-3.3-2.7-7.3-6.7-8.8-9-1.6-2.4-3.7-6.5-4.7-9.3-1-2.7-2.2-5.4-2.7-6-0.5-0.6-0.9-7.1-1-14.5-0.2-10.6 0.2-14.8 1.6-19.5 1-3.3 3-8.2 4.5-10.8 1.4-2.7 4.2-6.5 6.1-8.5 2-2.1 6-5.9 9-8.6 3-2.6 8.2-6.3 11.5-8.1 3.3-1.8 10.7-4.4 16.5-5.9 5.8-1.4 12.3-2.9 14.5-3.5 2.2-0.5 7.6-0.9 12-1zm-11.7 37.1c-1.4 1.8-3 5.1-3.6 7.3-0.6 2.2-1.6 8.1-2.3 13-1 7-1 10.5-0.1 15.8 0.7 3.7 1.2 8.7 1.2 11.2 0 2.5 0.6 5.7 1.4 7.3 0.8 1.5 3.2 4.3 5.3 6.3 2.1 2.1 5.3 4 7 4.3 2.3 0.4 4.3 0 6.5-1.3 1.8-1 3.9-2.5 4.5-3.2 0.7-0.8 1.7-3 2.2-4.9 0.5-1.9 1.7-6.2 2.6-9.5 1.2-4.4 1.7-10 1.7-20.5 0-11.7-0.3-15.6-1.8-20-1.1-3-2.4-6.2-2.9-7.1-0.6-0.8-2.6-2.7-4.5-4.2-1.9-1.4-4.4-2.7-5.5-2.7-1.1 0-3.6 1.1-5.6 2.4-1.9 1.3-4.7 3.9-6.1 5.8zm2.4 91.3c-0.4-0.2-2.1 1-3.7 2.8-1.7 1.8-3.6 4.8-4.2 6.7-0.7 1.9-1.5 5.3-1.9 7.5-0.5 2.2-0.7 4.8-0.6 5.8 0.1 0.9-0.2 1.7-0.8 1.7-0.6 0-1 5.5-1 14.5 0 9.6 0.5 16.6 1.5 20.8 0.9 3.4 2 7 2.5 8 0.6 0.9 1 2.3 1 3 0.1 0.6 1 2.3 2.2 3.7 1.6 2 3.1 2.6 7.2 2.8 3.5 0.2 6.2-0.3 8.5-1.5 2.2-1.1 4.4-3.5 5.8-6.3 1.7-3.2 2.2-5.5 1.8-8-0.4-2.4-0.3-2.9 0.3-1.5 0.8 1.8 0.9 1.7 1.6-1 0.4-1.6 1.2-7.8 1.7-13.7 0.6-7.1 0.5-14-0.1-20-0.6-5.1-1.6-11.1-2.3-13.4-0.7-2.2-2.3-5.5-3.7-7.3-1.4-1.8-3.7-3.9-5.3-4.7-1.5-0.8-4-1.4-5.7-1.4-1.6 0-3.1 0.4-3.5 1-0.3 0.6-0.8 0.8-1.3 0.5z"/>
		<path id="Path 14" class="s0" d="m1695 183.8c-0.8 0.5-4.2 1.2-7.5 1.6-3.3 0.3-8.9 1.2-12.5 2-3.6 0.7-9.4 2.1-13 3.1-3.6 0.9-10.5 3.7-15.5 6.2-5 2.4-11.9 6.7-15.5 9.5-3.6 2.7-8.8 7.1-11.5 9.7-2.8 2.7-6.8 6.8-9 9.3-2.2 2.5-5.4 6.5-7.1 8.9-1.8 2.4-5.2 8.9-7.7 14.4-2.4 5.5-5.7 12.9-7.2 16.5-1.6 3.9-3.1 10.3-3.8 16-0.6 5.2-1.1 16.2-1.2 24.5 0 8.2 0.6 18.6 1.3 23 0.8 4.4 1.8 8.4 2.3 9 0.5 0.5 0.9 1.8 0.9 2.7 0 1 0.4 2.6 1 3.5 0.5 1 1.6 3.6 2.5 5.8 1 2.2 3.3 7.4 5.3 11.5 2.1 4.1 6.3 10.6 9.6 14.5 3.2 3.8 8.4 9.7 11.5 13 3.2 3.3 8 8.1 10.7 10.6 2.7 2.5 6.8 5.5 9.2 6.7 2.3 1.2 4.7 2.2 5.2 2.2 0.5 0 2.2 0.8 3.8 1.8 1.5 1 5.6 3 9.2 4.4 3.6 1.4 8.3 3.1 10.5 3.8 2.2 0.7 6.5 1.9 9.5 2.6 3.4 0.8 13.4 1.3 26.5 1.3 17.4 0.1 22.5-0.2 30-1.8 5-1.1 9.9-2.3 11-2.6 1.1-0.4 4.3-1.7 7-3 2.8-1.3 8.4-3.9 12.5-5.8 4.1-2 10.4-5.8 14-8.5 3.6-2.7 10.7-9.3 15.8-14.8 5-5.4 9.2-10.4 9.2-10.9 0-0.6 1.2-3.5 2.7-6.5 2.3-5.1 2.4-5.8 1.2-8.9-0.8-1.8-2.6-4-4.1-4.7-1.6-0.8-2.8-1.8-2.8-2.4 0-0.6-1-1.2-2.2-1.5-1.3-0.3-4.3-2.1-6.8-4-2.5-1.9-5.4-3.5-6.5-3.5-1.1 0-2.5-0.5-3.2-1.2-1-1.1-1.7-1-3.8 0.4-1.4 1-2.8 3-3.1 4.5-0.4 1.6-1.2 3.9-1.9 5.3-0.7 1.4-2.1 4.2-3.1 6.3-1.1 2.1-3.5 5.5-5.4 7.6-1.9 2.2-6.5 6.3-10.2 9.2-3.6 3-8.6 6.6-11 8-2.3 1.5-5.9 3.2-7.8 3.8-2.1 0.7-8.9 1.1-16.5 1-8.4-0.1-14.2-0.6-16.5-1.6-1.9-0.7-4.2-1.3-5-1.3-0.8 0-2.6-1.1-4-2.5-1.4-1.4-2.8-2.5-3.2-2.5-0.5 0-2.9-2.2-5.5-4.9-2.7-2.6-5.6-5.1-6.5-5.5-1-0.3-1.8-1-1.8-1.6 0-0.6-0.9-2.2-2-3.8-1.2-1.5-2-2.3-2-1.7 0 0.6-0.8-0.2-2-1.8-1.1-1.5-2-3.3-2-4 0-0.6-0.3-1.6-0.7-2-0.5-0.5-0.9-1.8-1-2.8-0.2-1-1.6-4.5-3.3-7.7-1.6-3.1-3.4-7.8-4-10.5-0.5-2.6-1.5-6.7-2-9.2-0.5-2.5-1-13.8-1-25.3 0-11.4 0.5-22.5 1.1-24.7 0.6-2.2 1.7-6.3 2.6-9 0.8-2.8 1.9-6.1 2.5-7.5 0.6-1.4 1.4-3.3 1.9-4.3 0.5-0.9 0.9-2.3 0.9-3-0.1-0.6 0.6-1.9 1.5-2.7 0.8-0.8 1.8-2.6 2.1-4 0.3-1.4 2-4.8 3.9-7.5 1.8-2.8 4.4-5.9 5.6-7 1.3-1.1 4-3.1 5.9-4.5 1.9-1.3 4-2.9 4.5-3.6 0.5-0.6 2.9-1.9 5.3-2.8 2.3-0.9 5.2-1.6 6.5-1.6 1.3 0 2.9-0.6 3.6-1.3 0.8-0.8 4.3-1.2 10.4-1.2 8.1 0.1 10 0.4 15.7 3.1 3.6 1.6 9 4.3 12 5.9 3 1.7 7.9 5.5 11 8.5 3.1 3 8 9.1 10.8 13.5 2.8 4.4 5.2 8.7 5.2 9.5 0 0.8 0.9 2.1 2 2.7 1.1 0.7 3 1 4.3 0.7 1.2-0.3 4.6-3 7.5-6 2.8-3 7.1-6.4 9.5-7.6 2.3-1.1 5.4-3 7-4.2 1.9-1.5 2.7-3 2.7-5.1 0-1.7-0.9-4.4-1.9-6-1-1.7-5.4-6.6-9.7-11-4.3-4.4-11.2-10.8-15.4-14.3-4.1-3.4-10-7.4-13-8.8-3-1.4-6.2-2.9-7-3.3-0.8-0.4-4-1.5-7-2.4-3-0.8-7.5-2-10-2.6-2.5-0.6-7.7-1.6-11.5-2.2-3.8-0.6-12-1.3-18-1.5-6-0.3-11.7 0-12.5 0.4z"/>
		<path id="Path 15" class="s0" d="m289.5 177.5c-4.4 0.6-10.5 2-13.5 3-3 1-7.3 2.6-9.5 3.6-2.2 1-6.5 2.8-9.5 4-3 1.1-7.1 2.7-9 3.4-1.9 0.7-6.4 3-10 5-3.6 2-9.4 6.1-13 9-3.6 2.9-9.1 8-12.2 11.2-3.2 3.2-7.9 8.5-10.6 11.8-2.7 3.3-5.5 7.2-6.3 8.6-0.8 1.5-3.2 6.2-5.5 10.5-2.2 4.4-4.7 10.4-5.7 13.4-0.9 3-2.5 8.6-3.6 12.5-1.2 3.9-2.5 10.1-2.9 14-0.5 3.9-1.1 7.4-1.4 8-0.3 0.6-0.7 14.3-0.7 30.5-0.1 16.2-0.2 30.4-0.2 31.5 0.1 1.1 1.2 2.6 2.6 3.3 1.4 0.7 6.3 1.2 11.5 1.2 8.5 0 9-0.1 9.6-2.3 0.3-1.2 0.3-2.4 0-2.7-0.2-0.3 0-1.9 0.5-3.5 0.5-1.6 1.2-12.7 1.4-24.5 0.3-11.8 1.2-28 2.1-36 0.9-8 2-14.9 2.5-15.5 0.5-0.6 0.9-2.1 0.9-3.5 0-1.4 1.6-5.6 3.5-9.5 2-3.9 4.2-7.7 4.9-8.5 0.7-0.8 1.6-2.7 2-4.3 0.3-1.5 2.2-4.4 4.2-6.5 2-2 6.8-7 10.7-10.9 4-4 7.5-7.3 7.9-7.3 0.5 0 2.5-1.5 4.5-3.3 2.1-1.8 6-4.7 8.8-6.4 2.7-1.7 7-4 9.5-5.1 2.5-1.1 7.2-2.7 10.5-3.7 3.3-1 7.7-2.4 9.7-3.1 2.1-0.8 4.9-1.4 6.1-1.4 1.3 0 2.7-0.3 3.1-0.7 0.4-0.5 3.1-1 5.9-1.3 2.9-0.2 10.4-0.4 16.7-0.3 6.3 0.1 12.4 0.6 13.5 1.1 1.1 0.5 5.1 1.5 9 2.2 3.9 0.6 8.8 1.8 11 2.7 2.2 0.9 6.5 2.7 9.5 4.1 3 1.3 6.9 3.1 8.5 4 1.6 0.8 4.8 3.2 7 5.2 2.2 2 5.4 4.5 7 5.5 1.6 1.1 4.7 3.4 6.7 5.2 2.9 2.5 4.7 3.3 7.5 3.3 2.1 0 5.5-0.5 7.5-1 2.7-0.7 4.6-2.1 6.3-4.8 1.4-2 2.5-4.4 2.5-5.2 0-0.8-1.7-4-3.7-7.1-2.1-3.1-4.5-6.1-5.4-6.5-0.9-0.5-3.4-2.1-5.5-3.5-2.1-1.5-5.9-4.5-8.4-6.8-2.5-2.2-5.4-4.4-6.5-4.7-1.1-0.4-3.1-1.5-4.5-2.4-1.4-1-4.5-2.6-7-3.6-2.5-1-4.7-2-5-2.3-0.3-0.4-3.2-1.5-6.5-2.5-3.3-1.1-6.4-2.3-7-2.7-0.6-0.4-3.7-1.4-7-2.2-3.3-0.8-8.7-2-12-2.6-3.3-0.6-12.5-1-20.5-1-8 0.1-18.1 0.7-22.5 1.4z"/>
		<path id="Path 16" class="s0" d="m168.8 172.7c-1.4 1-4.4 3.8-6.5 6.3-2.2 2.5-6.8 8.3-10.4 13-3.5 4.7-7.5 10.5-8.8 13-1.3 2.5-3 5.2-3.7 6-0.7 0.8-2 3.1-2.9 5-0.9 1.9-2.5 5.1-3.5 7-1.1 1.9-2.9 6-4.1 9-1.2 3-3.5 8.9-5.1 13-1.6 4.1-3.8 10-5 13-1.1 3-2.7 10.9-3.6 17.5-1.3 9.9-1.6 27.2-1.9 99-0.3 69.1-0.1 87.9 0.9 91.4 0.7 2.4 2.2 4.8 3.3 5.3 1.1 0.6 4.5 0.8 7.5 0.6 3-0.3 6.6-0.8 8-1.2 1.4-0.3 2.9-1.1 3.5-1.7 0.6-0.6 1.3-16.7 1.6-41.2 0.4-22.1 0.8-60.4 0.8-85.2 0.1-24.7 0.6-48.1 1.2-52 0.5-3.9 1.2-8.8 1.5-11 0.4-2.2 1-4.4 1.4-5 0.4-0.5 1-2.9 1.4-5.2 0.3-2.4 1-4.5 1.6-4.8 0.6-0.3 1-1.5 1-2.7 0-1.3 0.9-4.8 1.9-7.8 1-3 2.6-7 3.5-8.7 0.9-1.8 1.6-4.2 1.6-5.3 0-1.1 0.6-2.2 1.2-2.3 0.7-0.2 1.7-1.7 2.1-3.3 0.5-1.6 2.2-4.4 3.8-6.1 1.6-1.8 3.7-5 4.6-7 1-2.1 3.3-6 5.3-8.8 1.9-2.7 4.1-5.7 4.8-6.5 0.7-0.8 2.6-3 4.2-4.7 1.7-1.8 3.7-4.4 4.5-5.8 0.8-1.4 1.3-2.9 1-3.5-0.3-0.6-0.1-1.2 0.5-1.5 0.6-0.3 1.3-2.2 1.6-4.2 0.3-2.3 0-5.2-0.9-7.3-0.8-1.9-2.4-4.4-3.7-5.5-1.4-1.2-4-2.1-6.9-2.3-3.2-0.2-5.4 0.2-7.3 1.5z"/>
		<path id="Path 17" class="s0" d="m275.5 117c-6.1 1-16.2 3.4-22.5 5.3-6.3 1.9-13.8 4-16.5 4.7-2.8 0.7-6.6 1.9-8.5 2.7-1.9 0.8-4.4 1.9-5.5 2.4-1.1 0.5-3.2 2.1-4.8 3.4-2.2 2.1-2.7 3.3-2.7 7.3 0 2.6 0.8 6.8 1.8 9.4 0.9 2.6 2.3 5.3 3 6 1 1.1 2.5 1.1 8.5 0 3.9-0.8 9.4-2.4 12.2-3.7 2.8-1.3 8.4-3.4 12.5-4.6 4.1-1.2 10.4-2.5 14-2.9 3.6-0.4 7.2-1 8-1.4 0.8-0.3 7.8-1.3 15.5-2.1 11.6-1.3 16.8-1.4 30-0.5 8.8 0.7 18.8 1.8 22.3 2.6 3.4 0.8 7.7 1.4 9.4 1.4 1.8 0 6.9 1.1 11.3 2.6 4.4 1.4 9.5 3.2 11.2 4 1.8 0.8 3.6 1.4 4 1.4 0.5 0 4.6 2 9.3 4.4 4.7 2.4 10.1 4.6 12 5 1.9 0.3 5.1 2 7 3.7 1.9 1.6 5.3 4.2 7.5 5.7 2.2 1.4 6.5 4.6 9.5 7.1 3 2.4 7.5 6.5 9.9 9 2.3 2.5 7.1 8 10.4 12.1 3.4 4.1 6.8 8.8 7.5 10.5 0.8 1.7 2.3 3.9 3.2 5 0.9 1.1 3.1 4.7 4.8 8 1.7 3.3 3.8 7.8 4.7 10 0.9 2.2 2 4.9 2.5 6 0.5 1.1 1 2.9 1.3 4 0.3 1.1 1.8 5.8 3.4 10.5 1.7 4.7 3.5 10.5 4.2 13 0.7 2.5 1.8 8.3 2.6 13 0.8 4.7 1.4 12.7 1.5 17.8 0 5 0.5 12.5 1.1 16.4 0.6 4 1.6 9.1 2.3 11.2 0.9 3.4 1.7 4.1 4.6 4.9 1.9 0.5 5.5 0.6 8 0.2 2.5-0.3 5.4-0.7 6.4-0.8 1.1-0.1 2.5-1.6 3.4-3.7 1.1-2.7 1.3-6.2 0.9-15.5-0.3-6.6-1.1-17.9-1.6-25-0.6-7.1-1.6-16.1-2.2-20-0.6-3.9-1.7-9.3-2.4-12-0.8-2.7-2.6-8.8-4.1-13.5-1.4-4.7-3-8.9-3.5-9.5-0.5-0.6-0.9-1.6-0.9-2.2 0-0.7-1.1-3.1-2.5-5.3-1.4-2.2-2.5-4.6-2.5-5.2 0-0.7-1.2-3.8-2.6-6.8-1.5-3-4.5-8.4-6.8-12-2.2-3.6-5.2-7.8-6.6-9.3-1.4-1.6-3.8-4.7-5.3-7-1.6-2.3-5.2-6.7-8.2-9.7-2.9-3-8.3-8-11.9-11-3.7-3-9.5-7.9-12.9-10.8-3.4-2.9-6.8-5.3-7.5-5.2-0.6 0-1.3-0.4-1.5-0.8-0.1-0.4-2-1.8-4.2-3-2.2-1.1-8.9-4.5-15-7.5-6.1-3-14.6-6.7-19-8.2-4.4-1.5-11.6-3.6-16-4.6-4.4-0.9-10.5-2.5-13.5-3.4-3-0.9-8.2-2.1-11.5-2.6-3.3-0.4-9.8-1.3-14.5-1.9-4.7-0.5-16.4-0.9-26-0.9-11.7 0.1-21.1 0.7-28.5 1.9z"/>
	</g>
</svg>