<svg width="131" height="146" viewBox="0 0 131 146" fill="none" xmlns="http://www.w3.org/2000/svg">
<path d="M72.7543 131.4H21.8263C19.8967 131.4 18.0462 130.631 16.6818 129.262C15.3174 127.893 14.5509 126.036 14.5509 124.1V21.9C14.5509 19.9639 15.3174 18.1071 16.6818 16.7381C18.0462 15.3691 19.8967 14.6 21.8263 14.6H58.2035V36.5C58.2035 42.3082 60.503 47.8786 64.5962 51.9856C68.6895 56.0927 74.2411 58.4 80.0298 58.4H101.856V73C101.856 74.9361 102.623 76.7929 103.987 78.1619C105.351 79.5309 107.202 80.3 109.132 80.3C111.061 80.3 112.912 79.5309 114.276 78.1619C115.64 76.7929 116.407 74.9361 116.407 73V51.1C116.407 51.1 116.407 51.1 116.407 50.662C116.331 49.9914 116.185 49.3307 115.97 48.691V48.034C115.621 47.2834 115.154 46.5935 114.588 45.99L70.9355 2.19C70.3341 1.62218 69.6464 1.15399 68.8984 0.802999C68.6812 0.772049 68.4607 0.772049 68.2436 0.802999C67.5045 0.377711 66.6883 0.104713 65.8427 0H21.8263C16.0376 0 10.486 2.30732 6.39278 6.41436C2.29955 10.5214 0 16.0918 0 21.9V124.1C0 129.908 2.29955 135.479 6.39278 139.586C10.486 143.693 16.0376 146 21.8263 146H72.7543C74.6839 146 76.5344 145.231 77.8988 143.862C79.2633 142.493 80.0298 140.636 80.0298 138.7C80.0298 136.764 79.2633 134.907 77.8988 133.538C76.5344 132.169 74.6839 131.4 72.7543 131.4ZM72.7543 24.893L91.5977 43.8H80.0298C78.1002 43.8 76.2497 43.0309 74.8853 41.6619C73.5209 40.2929 72.7543 38.4361 72.7543 36.5V24.893ZM36.3772 43.8C34.4476 43.8 32.5971 44.5691 31.2327 45.9381C29.8683 47.3071 29.1017 49.1639 29.1017 51.1C29.1017 53.0361 29.8683 54.8929 31.2327 56.2619C32.5971 57.6309 34.4476 58.4 36.3772 58.4H43.6526C45.5822 58.4 47.4327 57.6309 48.7971 56.2619C50.1615 54.8929 50.928 53.0361 50.928 51.1C50.928 49.1639 50.1615 47.3071 48.7971 45.9381C47.4327 44.5691 45.5822 43.8 43.6526 43.8H36.3772ZM80.0298 73H36.3772C34.4476 73 32.5971 73.7691 31.2327 75.1381C29.8683 76.5071 29.1017 78.3639 29.1017 80.3C29.1017 82.2361 29.8683 84.0929 31.2327 85.4619C32.5971 86.8309 34.4476 87.6 36.3772 87.6H80.0298C81.9593 87.6 83.8099 86.8309 85.1743 85.4619C86.5387 84.0929 87.3052 82.2361 87.3052 80.3C87.3052 78.3639 86.5387 76.5071 85.1743 75.1381C83.8099 73.7691 81.9593 73 80.0298 73ZM128.848 111.617L114.297 97.017C113.605 96.3524 112.789 95.8314 111.896 95.484C110.125 94.7539 108.138 94.7539 106.367 95.484C105.474 95.8314 104.658 96.3524 103.966 97.017L89.4151 111.617C88.0451 112.992 87.2754 114.856 87.2754 116.8C87.2754 118.744 88.0451 120.608 89.4151 121.983C90.7851 123.358 92.6432 124.13 94.5806 124.13C96.5181 124.13 98.3762 123.358 99.7462 121.983L101.856 119.793V138.7C101.856 140.636 102.623 142.493 103.987 143.862C105.351 145.231 107.202 146 109.132 146C111.061 146 112.912 145.231 114.276 143.862C115.64 142.493 116.407 140.636 116.407 138.7V119.793L118.517 121.983C119.193 122.667 119.998 123.21 120.884 123.581C121.771 123.952 122.722 124.142 123.682 124.142C124.643 124.142 125.594 123.952 126.48 123.581C127.367 123.21 128.172 122.667 128.848 121.983C129.53 121.304 130.071 120.497 130.44 119.607C130.81 118.718 131 117.764 131 116.8C131 115.836 130.81 114.882 130.44 113.993C130.071 113.103 129.53 112.296 128.848 111.617ZM65.4789 116.8C67.4085 116.8 69.259 116.031 70.6234 114.662C71.9878 113.293 72.7543 111.436 72.7543 109.5C72.7543 107.564 71.9878 105.707 70.6234 104.338C69.259 102.969 67.4085 102.2 65.4789 102.2H36.3772C34.4476 102.2 32.5971 102.969 31.2327 104.338C29.8683 105.707 29.1017 107.564 29.1017 109.5C29.1017 111.436 29.8683 113.293 31.2327 114.662C32.5971 116.031 34.4476 116.8 36.3772 116.8H65.4789Z" fill="#5A7992"/>
</svg>
