<svg width="150" height="27" viewBox="0 0 150 27" fill="none" xmlns="http://www.w3.org/2000/svg">
<g clip-path="url(#clip0_132_999)">
<path d="M49.656 6.97201C48.8179 6.29454 47.8439 5.80546 46.7999 5.53801C45.6001 5.22075 44.3629 5.06736 43.1219 5.08201C42.4799 5.08201 41.7179 5.08201 40.8299 5.16001C39.9706 5.21034 39.115 5.31252 38.2679 5.46601V20.85C39.1037 21.0162 39.9495 21.1265 40.7999 21.18C41.6519 21.228 42.3959 21.258 43.0379 21.258C44.3157 21.2739 45.589 21.1041 46.8179 20.754C47.8667 20.4606 48.8419 19.9495 49.68 19.254C50.4729 18.5653 51.09 17.6972 51.48 16.722C51.9329 15.5771 52.1512 14.3529 52.122 13.122C52.1529 11.8696 51.9347 10.6234 51.48 9.45601C51.0852 8.49076 50.4588 7.63762 49.656 6.97201ZM47.1599 16.86C46.3039 17.756 44.9839 18.204 43.1999 18.204H42.4139C42.1919 18.204 41.9999 18.204 41.8139 18.168V8.17801C42.0747 8.14499 42.3371 8.12696 42.5999 8.12401C42.8579 8.12401 43.1039 8.12401 43.3499 8.12401C45.1499 8.12401 46.4279 8.55001 47.2439 9.39601C48.0599 10.242 48.4439 11.502 48.4439 13.158C48.5207 14.513 48.0592 15.8435 47.1599 16.86Z" fill="white"/>
<path d="M62.7 10.068C62.2519 9.61562 61.6998 9.27984 61.092 9.09C60.28 8.84125 59.433 8.72575 58.584 8.748C58.1832 8.74563 57.7826 8.76566 57.384 8.808C56.994 8.844 56.628 8.886 56.28 8.94C55.932 8.994 55.608 9.054 55.308 9.126C55.008 9.198 54.768 9.258 54.57 9.318L55.002 12.054C55.4739 11.8842 55.9627 11.7655 56.46 11.7C57.036 11.6141 57.6176 11.572 58.2 11.574C58.8444 11.5138 59.4877 11.7004 60 12.096C60.1763 12.2809 60.3134 12.4995 60.4031 12.7387C60.4928 12.9779 60.5332 13.2328 60.522 13.488V13.8C60.2479 13.7301 59.9692 13.68 59.688 13.65C59.2892 13.6107 58.8887 13.5927 58.488 13.596C57.8531 13.5951 57.2197 13.6594 56.598 13.788C56.0459 13.9045 55.5168 14.1113 55.032 14.4C54.558 14.6951 54.1692 15.1087 53.904 15.6C53.6051 16.1515 53.4601 16.7732 53.484 17.4C53.4647 18.0332 53.5878 18.6626 53.844 19.242C54.0827 19.7271 54.4448 20.141 54.894 20.442C55.3883 20.7715 55.943 20.9999 56.526 21.114C57.2184 21.2594 57.9245 21.3298 58.632 21.324C59.6843 21.3352 60.7357 21.261 61.776 21.102C62.64 20.958 63.318 20.838 63.804 20.73V13.65C63.8117 12.9657 63.727 12.2836 63.552 11.622C63.4019 11.0411 63.109 10.5069 62.7 10.068ZM60.546 18.6C60.366 18.63 60.12 18.648 59.814 18.666C59.508 18.684 59.214 18.666 58.86 18.666C58.3518 18.6919 57.8456 18.5865 57.39 18.36C57.209 18.2405 57.0637 18.0742 56.9697 17.8787C56.8757 17.6833 56.8364 17.466 56.856 17.25C56.8481 17.0093 56.9106 16.7716 57.036 16.566C57.1628 16.3799 57.3367 16.2309 57.54 16.134C57.7736 16.025 58.0225 15.9522 58.278 15.918C58.5765 15.881 58.8771 15.863 59.178 15.864C59.4286 15.8642 59.679 15.8782 59.928 15.906C60.204 15.936 60.408 15.966 60.528 15.996L60.546 18.6Z" fill="white"/>
<path d="M72.6 18.354C72.2275 18.4193 71.8502 18.4535 71.472 18.456C71.1847 18.4946 70.8923 18.4554 70.6253 18.3425C70.3583 18.2295 70.1265 18.047 69.954 17.814C69.6798 17.2895 69.5513 16.7011 69.582 16.11V11.91H73.6561V9.06599H69.6V5.53799L66.204 6.08399V16.152C66.1973 16.8638 66.2697 17.5742 66.42 18.27C66.5477 18.8679 66.815 19.4271 67.2 19.902C67.5895 20.3696 68.0911 20.7309 68.658 20.952C69.3954 21.2213 70.1774 21.3476 70.962 21.324C71.5809 21.3352 72.199 21.2748 72.804 21.144C73.2706 21.0359 73.728 20.8914 74.1721 20.712L73.692 18.066C73.3384 18.1976 72.9726 18.294 72.6 18.354Z" fill="white"/>
<path d="M84.6721 11.622C84.5242 11.0402 84.231 10.5055 83.8201 10.068C83.3695 9.61277 82.8128 9.27669 82.2001 9.09C81.3902 8.84085 80.5451 8.72534 79.6981 8.748C79.2973 8.74602 78.8967 8.76605 78.4981 8.808C78.1081 8.844 77.7421 8.886 77.3941 8.94C77.0461 8.994 76.7221 9.054 76.4221 9.126C76.1221 9.198 75.8821 9.258 75.6841 9.318L76.1161 12.054C76.5884 11.8855 77.0771 11.7669 77.5741 11.7C78.1402 11.6158 78.7117 11.5737 79.2841 11.574C79.9286 11.5132 80.5721 11.6998 81.0841 12.096C81.2604 12.2809 81.3975 12.4995 81.4872 12.7387C81.5769 12.9779 81.6173 13.2328 81.6061 13.488V13.8C81.3342 13.7295 81.0574 13.6794 80.7781 13.65C80.3793 13.6109 79.9787 13.5929 79.5781 13.596C78.9431 13.5951 78.3098 13.6594 77.6881 13.788C77.1168 13.9064 76.5693 14.1193 76.0681 14.418C75.6197 14.7176 75.2528 15.1237 75.0001 15.6C74.7012 16.1515 74.5561 16.7732 74.5801 17.4C74.5828 18.024 74.7264 18.6392 75.0001 19.2C75.2337 19.6866 75.5944 20.1012 76.0441 20.4C76.5384 20.7295 77.093 20.9579 77.6761 21.072C78.3685 21.2174 79.0746 21.2878 79.7821 21.282C80.8343 21.2932 81.8858 21.219 82.9261 21.06C83.7961 20.916 84.4681 20.796 84.9541 20.688V13.65C84.952 12.9644 84.8572 12.2822 84.6721 11.622ZM81.6721 18.594C81.4921 18.624 81.2461 18.642 80.9461 18.66C80.6461 18.678 80.3461 18.66 79.9861 18.66C79.478 18.6843 78.9722 18.579 78.5161 18.354C78.335 18.2345 78.1898 18.0682 78.0958 17.8727C78.0017 17.6773 77.9624 17.46 77.9821 17.244C77.9741 17.0033 78.0367 16.7656 78.1621 16.56C78.2905 16.3754 78.464 16.2267 78.6661 16.128C78.8997 16.019 79.1485 15.9462 79.4041 15.912C79.7026 15.875 80.0032 15.857 80.3041 15.858C80.5566 15.8583 80.809 15.8724 81.0601 15.9C81.3281 15.932 81.5281 15.962 81.6601 15.99L81.6721 18.594Z" fill="white"/>
<path d="M49.656 6.97201C48.8179 6.29454 47.8439 5.80546 46.7999 5.53801C45.6001 5.22075 44.3629 5.06736 43.1219 5.08201C42.4799 5.08201 41.7179 5.08201 40.8299 5.16001C39.9706 5.21034 39.115 5.31252 38.2679 5.46601V20.85C39.1037 21.0162 39.9495 21.1265 40.7999 21.18C41.6519 21.228 42.3959 21.258 43.0379 21.258C44.3157 21.2739 45.589 21.1041 46.8179 20.754C47.8667 20.4606 48.8419 19.9495 49.68 19.254C50.4729 18.5653 51.09 17.6972 51.48 16.722C51.9329 15.5771 52.1512 14.3529 52.122 13.122C52.1529 11.8696 51.9347 10.6234 51.48 9.45601C51.0852 8.49076 50.4588 7.63762 49.656 6.97201ZM47.1599 16.86C46.3039 17.756 44.9839 18.204 43.1999 18.204H42.4139C42.1919 18.204 41.9999 18.204 41.8139 18.168V8.17801C42.0747 8.14499 42.3371 8.12696 42.5999 8.12401C42.8579 8.12401 43.1039 8.12401 43.3499 8.12401C45.1499 8.12401 46.4279 8.55001 47.2439 9.39601C48.0599 10.242 48.4439 11.502 48.4439 13.158C48.5207 14.513 48.0592 15.8435 47.1599 16.86Z" fill="white"/>
<path d="M62.7 10.068C62.2519 9.61562 61.6998 9.27984 61.092 9.09C60.28 8.84125 59.433 8.72575 58.584 8.748C58.1832 8.74563 57.7826 8.76566 57.384 8.808C56.994 8.844 56.628 8.886 56.28 8.94C55.932 8.994 55.608 9.054 55.308 9.126C55.008 9.198 54.768 9.258 54.57 9.318L55.002 12.054C55.4739 11.8842 55.9627 11.7655 56.46 11.7C57.036 11.6141 57.6176 11.572 58.2 11.574C58.8444 11.5138 59.4877 11.7004 60 12.096C60.1763 12.2809 60.3134 12.4995 60.4031 12.7387C60.4928 12.9779 60.5332 13.2328 60.522 13.488V13.8C60.2479 13.7301 59.9692 13.68 59.688 13.65C59.2892 13.6107 58.8887 13.5927 58.488 13.596C57.8531 13.5951 57.2197 13.6594 56.598 13.788C56.0459 13.9045 55.5168 14.1113 55.032 14.4C54.558 14.6951 54.1692 15.1087 53.904 15.6C53.6051 16.1515 53.4601 16.7732 53.484 17.4C53.4647 18.0332 53.5878 18.6626 53.844 19.242C54.0827 19.7271 54.4448 20.141 54.894 20.442C55.3883 20.7715 55.943 20.9999 56.526 21.114C57.2184 21.2594 57.9245 21.3298 58.632 21.324C59.6843 21.3352 60.7357 21.261 61.776 21.102C62.64 20.958 63.318 20.838 63.804 20.73V13.65C63.8117 12.9657 63.727 12.2836 63.552 11.622C63.4019 11.0411 63.109 10.5069 62.7 10.068ZM60.546 18.6C60.366 18.63 60.12 18.648 59.814 18.666C59.508 18.684 59.214 18.666 58.86 18.666C58.3518 18.6919 57.8456 18.5865 57.39 18.36C57.209 18.2405 57.0637 18.0742 56.9697 17.8787C56.8757 17.6833 56.8364 17.466 56.856 17.25C56.8481 17.0093 56.9106 16.7716 57.036 16.566C57.1628 16.3799 57.3367 16.2309 57.54 16.134C57.7736 16.025 58.0225 15.9522 58.278 15.918C58.5765 15.881 58.8771 15.863 59.178 15.864C59.4286 15.8642 59.679 15.8782 59.928 15.906C60.204 15.936 60.408 15.966 60.528 15.996L60.546 18.6Z" fill="white"/>
<path d="M72.6 18.354C72.2275 18.4193 71.8502 18.4535 71.472 18.456C71.1847 18.4946 70.8923 18.4554 70.6253 18.3425C70.3583 18.2295 70.1265 18.047 69.954 17.814C69.6798 17.2895 69.5513 16.7011 69.582 16.11V11.91H73.6561V9.06599H69.6V5.53799L66.204 6.08399V16.152C66.1973 16.8638 66.2697 17.5742 66.42 18.27C66.5477 18.8679 66.815 19.4271 67.2 19.902C67.5895 20.3696 68.0911 20.7309 68.658 20.952C69.3954 21.2213 70.1774 21.3476 70.962 21.324C71.5809 21.3352 72.199 21.2748 72.804 21.144C73.2706 21.0359 73.728 20.8914 74.1721 20.712L73.692 18.066C73.3384 18.1976 72.9726 18.294 72.6 18.354Z" fill="white"/>
<path d="M84.6721 11.622C84.5242 11.0402 84.231 10.5055 83.8201 10.068C83.3695 9.61277 82.8128 9.27669 82.2001 9.09C81.3902 8.84085 80.5451 8.72534 79.6981 8.748C79.2973 8.74602 78.8967 8.76605 78.4981 8.808C78.1081 8.844 77.7421 8.886 77.3941 8.94C77.0461 8.994 76.7221 9.054 76.4221 9.126C76.1221 9.198 75.8821 9.258 75.6841 9.318L76.1161 12.054C76.5884 11.8855 77.0771 11.7669 77.5741 11.7C78.1402 11.6158 78.7117 11.5737 79.2841 11.574C79.9286 11.5132 80.5721 11.6998 81.0841 12.096C81.2604 12.2809 81.3975 12.4995 81.4872 12.7387C81.5769 12.9779 81.6173 13.2328 81.6061 13.488V13.8C81.3342 13.7295 81.0574 13.6794 80.7781 13.65C80.3793 13.6109 79.9787 13.5929 79.5781 13.596C78.9431 13.5951 78.3098 13.6594 77.6881 13.788C77.1168 13.9064 76.5693 14.1193 76.0681 14.418C75.6197 14.7176 75.2528 15.1237 75.0001 15.6C74.7012 16.1515 74.5561 16.7732 74.5801 17.4C74.5828 18.024 74.7264 18.6392 75.0001 19.2C75.2337 19.6866 75.5944 20.1012 76.0441 20.4C76.5384 20.7295 77.093 20.9579 77.6761 21.072C78.3685 21.2174 79.0746 21.2878 79.7821 21.282C80.8343 21.2932 81.8858 21.219 82.9261 21.06C83.7961 20.916 84.4681 20.796 84.9541 20.688V13.65C84.952 12.9644 84.8572 12.2822 84.6721 11.622ZM81.6721 18.594C81.4921 18.624 81.2461 18.642 80.9461 18.66C80.6461 18.678 80.3461 18.66 79.9861 18.66C79.478 18.6843 78.9722 18.579 78.5161 18.354C78.335 18.2345 78.1898 18.0682 78.0958 17.8727C78.0017 17.6773 77.9624 17.46 77.9821 17.244C77.9741 17.0033 78.0367 16.7656 78.1621 16.56C78.2905 16.3754 78.464 16.2267 78.6661 16.128C78.8997 16.019 79.1485 15.9462 79.4041 15.912C79.7026 15.875 80.0032 15.857 80.3041 15.858C80.5566 15.8583 80.809 15.8724 81.0601 15.9C81.3281 15.932 81.5281 15.962 81.6601 15.99L81.6721 18.594Z" fill="white"/>
<path d="M87.432 9.48C89.0965 9.02857 90.8133 8.79859 92.538 8.796C93.4011 8.77132 94.2614 8.90556 95.076 9.192C95.7016 9.4205 96.2562 9.80951 96.684 10.32C97.0894 10.8284 97.3764 11.4207 97.524 12.054C97.6995 12.7848 97.7842 13.5345 97.776 14.286V21.054H94.38V14.694C94.4416 13.8955 94.2926 13.0949 93.948 12.372C93.7614 12.1263 93.5136 11.9338 93.2293 11.8137C92.945 11.6937 92.6343 11.6504 92.328 11.688C92.088 11.688 91.83 11.7 91.554 11.724C91.284 11.724 91.038 11.772 90.828 11.802V21.054H87.432V9.48Z" fill="white"/>
<path d="M111.492 15.036C111.501 15.9147 111.363 16.7888 111.084 17.622C110.829 18.3668 110.42 19.0496 109.884 19.626C109.366 20.1838 108.733 20.6238 108.03 20.916C107.268 21.2268 106.452 21.3818 105.63 21.372C104.807 21.3837 103.991 21.2285 103.23 20.916C102.524 20.6253 101.89 20.1853 101.37 19.626C100.839 19.0459 100.431 18.3642 100.17 17.622C99.8736 16.7925 99.7274 15.9168 99.738 15.036C99.7278 14.1581 99.8783 13.2857 100.182 12.462C100.445 11.7284 100.854 11.0551 101.382 10.482C101.91 9.93269 102.545 9.4977 103.248 9.20399C104.769 8.5957 106.467 8.5957 107.988 9.20399C108.69 9.49628 109.323 9.93152 109.848 10.482C110.378 11.0542 110.786 11.7277 111.048 12.462C111.349 13.2865 111.499 14.1583 111.492 15.036ZM108.03 15.036C108.084 14.1703 107.875 13.3084 107.43 12.564C107.233 12.272 106.963 12.0358 106.648 11.8782C106.333 11.7205 105.982 11.6468 105.63 11.664C105.278 11.6496 104.929 11.7247 104.614 11.8821C104.299 12.0395 104.029 12.2741 103.83 12.564C103.369 13.3027 103.149 14.1666 103.2 15.036C103.142 15.9096 103.352 16.78 103.8 17.532C103.995 17.828 104.263 18.0686 104.579 18.2305C104.894 18.3924 105.246 18.47 105.6 18.456C105.955 18.4724 106.307 18.3958 106.623 18.2337C106.939 18.0716 107.207 17.8297 107.4 17.532C107.853 16.781 108.073 15.9121 108.03 15.036Z" fill="white"/>
<path d="M120.126 14.694C120.187 13.8968 120.042 13.0972 119.706 12.372C119.549 12.1381 119.332 11.951 119.077 11.8305C118.823 11.7101 118.54 11.6609 118.26 11.688C118.039 11.6885 117.819 11.7005 117.6 11.724C117.372 11.724 117.15 11.772 116.94 11.802V21.054H113.544V9.47998C113.832 9.40198 114.144 9.32398 114.558 9.23998C114.972 9.15598 115.356 9.07798 115.758 9.01198C116.16 8.94598 116.634 8.88598 117.09 8.84998C117.546 8.81398 117.996 8.79598 118.434 8.79598C119.151 8.76948 119.866 8.88152 120.54 9.12598C121.026 9.3119 121.479 9.57754 121.878 9.91199C122.884 9.21659 124.07 8.82883 125.292 8.79598C126.097 8.76845 126.898 8.90312 127.65 9.19198C128.232 9.43055 128.739 9.81994 129.12 10.32C129.499 10.834 129.757 11.4266 129.876 12.054C130.016 12.7896 130.085 13.5371 130.08 14.286V21.054H126.684V14.694C126.742 13.897 126.597 13.0982 126.264 12.372C126.107 12.1385 125.889 11.9518 125.635 11.8314C125.38 11.7111 125.098 11.6615 124.818 11.688C124.557 11.702 124.299 11.7484 124.05 11.826C123.765 11.8996 123.492 12.0148 123.24 12.168C123.351 12.5269 123.422 12.8973 123.45 13.272C123.45 13.656 123.492 14.07 123.492 14.514V21.054H120.096L120.126 14.694Z" fill="white"/>
<path d="M136.332 5.60401C136.346 5.87803 136.299 6.15174 136.196 6.40577C136.092 6.65979 135.934 6.88792 135.732 7.07401C135.337 7.41878 134.831 7.60877 134.307 7.60877C133.783 7.60877 133.277 7.41878 132.882 7.07401C132.68 6.88818 132.522 6.6601 132.418 6.40601C132.314 6.15192 132.268 5.87808 132.282 5.60401C132.268 5.32994 132.314 5.0561 132.418 4.80201C132.522 4.54792 132.68 4.31983 132.882 4.13401C133.277 3.78924 133.783 3.59924 134.307 3.59924C134.831 3.59924 135.337 3.78924 135.732 4.13401C135.934 4.32009 136.092 4.54822 136.196 4.80225C136.299 5.05627 136.346 5.32998 136.332 5.60401ZM136.008 21.054H132.6V9.05401H135.996L136.008 21.054Z" fill="white"/>
<path d="M142.026 13.374L143.058 12.24C143.418 11.844 143.76 11.46 144.096 11.07C144.432 10.68 144.744 10.32 145.038 9.97201L145.8 9.06601H149.832C149.028 9.99001 148.242 10.866 147.474 11.718C146.706 12.57 145.872 13.422 144.96 14.322C145.473 14.7791 145.954 15.2702 146.4 15.792C146.886 16.362 147.36 16.95 147.816 17.562C148.272 18.174 148.686 18.762 149.07 19.362C149.454 19.962 149.766 20.526 150.024 21.03H146.118C145.878 20.63 145.602 20.192 145.29 19.716C144.978 19.24 144.648 18.76 144.3 18.276C143.955 17.7979 143.587 17.3373 143.196 16.896C142.848 16.4889 142.464 16.1135 142.05 15.774V21.03H138.654V3.91801L142.05 3.37201L142.026 13.374Z" fill="white"/>
<path d="M13.158 1.36811e-06H0V19.422H5.4C5.51554 19.4228 5.6301 19.4007 5.73707 19.3571C5.84405 19.3134 5.94133 19.249 6.02331 19.1676C6.10529 19.0861 6.17035 18.9893 6.21475 18.8826C6.25915 18.7759 6.282 18.6615 6.282 18.546V13.968C6.282 13.7532 6.36734 13.5471 6.51924 13.3952C6.67115 13.2433 6.87717 13.158 7.092 13.158H11.76C11.875 13.158 11.9889 13.1353 12.0952 13.0913C12.2015 13.0473 12.2981 12.9828 12.3794 12.9014C12.4608 12.8201 12.5253 12.7235 12.5693 12.6172C12.6133 12.511 12.636 12.397 12.636 12.282V7.842C12.6352 7.70361 12.6618 7.56643 12.7142 7.43834C12.7666 7.31026 12.8438 7.1938 12.9414 7.09566C13.039 6.99752 13.155 6.91964 13.2828 6.8665C13.4106 6.81336 13.5476 6.786 13.686 6.786H18.486C18.7661 6.786 19.0347 6.89726 19.2327 7.0953C19.4307 7.29333 19.542 7.56193 19.542 7.842V12.642C19.542 12.7804 19.5146 12.9174 19.4615 13.0452C19.4084 13.173 19.3305 13.289 19.2323 13.3866C19.1342 13.4842 19.0177 13.5614 18.8897 13.6138C18.7616 13.6662 18.6244 13.6928 18.486 13.692H14.04C13.8071 13.692 13.5837 13.7841 13.4184 13.9482C13.2532 14.1123 13.1596 14.3351 13.158 14.568V19.254C13.1588 19.3606 13.1384 19.4663 13.098 19.5649C13.0575 19.6636 12.9979 19.7532 12.9225 19.8285C12.8472 19.9039 12.7575 19.9635 12.6589 20.004C12.5603 20.0444 12.4546 20.0648 12.348 20.064H7.8C7.68296 20.0608 7.56646 20.0811 7.45739 20.1237C7.34833 20.1663 7.2489 20.2303 7.165 20.3119C7.0811 20.3936 7.01442 20.4913 6.9689 20.5991C6.92338 20.707 6.89996 20.8229 6.9 20.94V26.34H13.158C14.8882 26.34 16.6015 25.9989 18.1998 25.3362C19.7981 24.6736 21.2501 23.7023 22.4727 22.478C23.6953 21.2537 24.6646 19.8004 25.3251 18.2012C25.9856 16.602 26.3244 14.8882 26.322 13.158C26.322 11.4296 25.9815 9.71806 25.3198 8.12127C24.6582 6.52447 23.6885 5.07368 22.466 3.85177C21.2435 2.62986 19.7923 1.66077 18.1952 0.999872C16.5981 0.338973 14.8864 -0.000786793 13.158 1.36811e-06Z" fill="url(#paint0_linear_132_999)"/>
</g>
<defs>
<linearGradient id="paint0_linear_132_999" x1="-0.0960005" y1="19.29" x2="22.458" y2="3.492" gradientUnits="userSpaceOnUse">
<stop stop-color="#26F596"/>
<stop offset="0.16" stop-color="#23EF9D"/>
<stop offset="0.4" stop-color="#1CDEB2"/>
<stop offset="0.69" stop-color="#10C2D3"/>
<stop offset="1" stop-color="#009EFF"/>
</linearGradient>
<clipPath id="clip0_132_999">
<rect width="150" height="26.4" fill="white"/>
</clipPath>
</defs>
</svg>
