<svg width="169" height="37" fill="none" xmlns="http://www.w3.org/2000/svg"><path fill-rule="evenodd" clip-rule="evenodd" d="M49.117 24.955c0 .146-.027.325-.088.524a1.166 1.166 0 0 1-.337.524c-.18.169-.441.316-.77.444-.332.124-.799.19-1.383.19-.541 0-.978-.066-1.301-.19-.317-.124-.565-.275-.731-.454a1.206 1.206 0 0 1-.315-.536 2.545 2.545 0 0 1-.073-.565v-.487h-3.065v.99c0 .244.041.594.127 1.03.09.463.329.92.711 1.363.376.44.945.825 1.688 1.137.74.316 1.766.475 3.056.475 1.286 0 2.313-.16 3.052-.473.742-.314 1.31-.695 1.689-1.14.38-.443.619-.895.71-1.348.085-.436.13-.779.13-1.043V5.966h-3.1v18.99zM63.168 23.965s-.007.85-.118 1.105c-.075.179-.161.36-.326.523-.168.167-.42.318-.753.442-.332.127-.796.192-1.379.192-.564 0-1.012-.065-1.334-.192-.316-.122-.558-.275-.713-.448a1.247 1.247 0 0 1-.3-.554c-.091-.394-.104-1.068-.104-1.068V11.934h-3.068v13.05c0 .247.044.591.13 1.029.091.461.328.921.708 1.369.381.439.945.821 1.69 1.136.74.313 1.766.472 3.054.472 1.284 0 2.315-.159 3.054-.472.74-.315 1.31-.697 1.688-1.136.382-.45.617-.902.708-1.35.088-.439.132-.781.132-1.048v-13.05h-3.069v12.031zM74.749 11.934c-1.29 0-2.394.21-3.13.522-.744.316-1.313.7-1.692 1.14-.378.445-.616.902-.708 1.365-.086.44-.129.784-.129 1.028v13.022h3.096V16.523c0-.17.027-.362.076-.566.044-.182.147-.363.31-.534.172-.178.418-.34.74-.47.907-.365 2.686-.237 2.686-.237l.7-2.664-.227-.032c-.306-.044-1.368-.086-1.722-.086M78.103 28.74h3.068V11.933h-3.068V28.74zM93.932 13.093c-.462-.36-1.049-.646-1.746-.85-.69-.204-1.53-.31-2.49-.31-1.9 0-3.316.384-4.215 1.133-.909.757-1.37 1.725-1.37 2.873v1.51c0 .528.091 1.004.273 1.413.173.408.4.762.668 1.048.262.285.545.52.832.695.289.179.537.305.776.4.21.06.539.17.989.327.453.157.922.32 1.41.485.545.188 1.134.4 1.764.628.251.095.486.232.696.401.17.151.328.35.463.591.13.23.193.53.193.889 0 .739-.17 1.288-.51 1.634-.338.344-1 .52-1.969.52-.993 0-1.667-.186-2-.549-.343-.367-.517-.907-.517-1.605v-.204H84.11v1.117c0 .397.073.833.214 1.3.15.481.439.93.862 1.326.42.394.999.728 1.716.989.715.258 1.656.389 2.793.389 1.135 0 2.074-.13 2.788-.39.718-.26 1.296-.592 1.716-.988.425-.397.714-.845.862-1.326.14-.469.213-.907.213-1.3V23.76a4.19 4.19 0 0 0-.648-2.276c-.433-.684-1.058-1.178-1.865-1.467-.376-.124-.81-.27-1.294-.439l-1.405-.486a48.281 48.281 0 0 1-1.183-.424 7.356 7.356 0 0 0-.614-.21c-.08-.041-.19-.098-.324-.17a1.184 1.184 0 0 1-.337-.283 2.163 2.163 0 0 1-.306-.46 1.27 1.27 0 0 1-.12-.57v-.596c0-.185.039-.379.114-.57.072-.19.202-.369.39-.535.185-.172.442-.309.763-.414.326-.109.749-.164 1.25-.164.984 0 1.65.195 1.977.574.34.396.502.86.502 1.421v.204h3.1v-.957c0-.547-.106-1.072-.317-1.556a3.285 3.285 0 0 0-1.026-1.29M106.858 16.113h-5.629V5.967h-3.1v23.182h3.1V19.001h5.629V29.15h3.067V5.967h-3.067v10.146zM117.637 26.258c-.973 0-1.635-.177-1.974-.52-.338-.346-.511-.898-.511-1.634 0-.357.07-.654.207-.884.148-.244.311-.442.476-.592a2.9 2.9 0 0 1 .671-.406c.333-.125.692-.249 1.069-.375.318-.105.663-.225 1.034-.363.366-.136 1.353-.484 1.537-.6h.006v3.22c0 .697-.174 1.237-.517 1.604-.336.364-1.009.55-1.998.55zm.092-14.324c-.965 0-1.804.105-2.495.308-.695.204-1.281.49-1.744.851a3.32 3.32 0 0 0-1.027 1.29 3.832 3.832 0 0 0-.316 1.556v.957h3.097v-.204c0-.564.167-1.026.505-1.42.328-.38.994-.575 1.98-.575.499 0 .92.055 1.246.164.319.104.576.242.765.413.188.167.317.344.389.535.075.193.115.388.115.57v.597c0 .218-.041.412-.121.567a2.393 2.393 0 0 1-.306.463c-.217.262-.583.414-.62.439a7.25 7.25 0 0 0-.655.224c-.336.127-.731.267-1.182.424l-1.408.486c-.485.168-.916.315-1.296.44-.802.288-1.428.782-1.865 1.466a4.205 4.205 0 0 0-.644 2.276v1.478c0 .396.071.833.213 1.3.148.481.438.93.864 1.326.417.394.992.728 1.713.989.717.257 1.655.388 2.792.388 1.136 0 2.074-.13 2.789-.388.719-.26 1.294-.593 1.718-.989.421-.398.713-.845.86-1.326.143-.469.212-.908.212-1.3v-9.3c0-1.146-.458-2.116-1.369-2.873-.897-.75-2.315-1.132-4.21-1.132zM136.525 13.546c-.38-.44-.947-.823-1.69-1.14-.741-.313-1.768-.472-3.054-.472-1.286 0-2.314.159-3.053.473-.743.316-1.317.698-1.703 1.136-.391.443-.635.899-.726 1.35-.086.428-.133.782-.133 1.046v13.053h3.1V16.38c0-.148.027-.325.088-.525.052-.188.163-.359.337-.52.179-.171.445-.32.786-.445.344-.128.807-.19 1.366-.19.542 0 .979.062 1.302.188.32.125.564.276.73.45.167.176.271.356.318.537.047.206.07.396.07.567v12.55h3.102V15.94c0-.245-.044-.581-.133-1.028-.091-.464-.332-.92-.707-1.365M145.704 26.659c-.483 0-.893-.055-1.22-.163-.316-.106-.565-.243-.744-.41a1.516 1.516 0 0 1-.392-.583 2.63 2.63 0 0 1-.159-.715V18.13c0-.359.07-.655.207-.883.145-.242.308-.443.483-.6.214-.192.439-.34.662-.431.335-.124.69-.249 1.067-.375.319-.105.66-.22 1.032-.346.369-.128.71-.239 1.012-.34a1.79 1.79 0 0 0 .534-.237v10.028c0 .183-.037.383-.115.59-.073.201-.2.386-.376.551-.176.167-.427.304-.743.41-.325.108-.745.163-1.248.163zm2.575-20.692v4.821c0 .218-.042.41-.12.569a2.296 2.296 0 0 1-.305.462c-.109.127-.222.22-.337.28-.136.076-.241.13-.286.157-.124.032-.423.142-.654.224-.337.128-.724.267-1.168.425a162.887 162.887 0 0 1-2.689.926c-.819.287-1.457.78-1.891 1.467a4.179 4.179 0 0 0-.644 2.276v7.852c0 .554.103 1.076.316 1.555.209.492.556.925 1.024 1.29.462.362 1.055.65 1.764.855.7.204 1.543.304 2.508.304 1.874 0 3.279-.38 4.18-1.13.908-.759 1.38-1.723 1.399-2.874V5.966h-3.097z" fill="#62707E"/><path fill-rule="evenodd" clip-rule="evenodd" d="M22.866 2.89C22.866 1.294 24.18 0 25.8 0c1.62 0 2.936 1.294 2.936 2.89v14.597c0 5.355-4.427 9.712-9.863 9.712s-9.861-4.357-9.861-9.712c0-1.596 1.315-2.89 2.935-2.89s2.932 1.294 2.932 2.89c0 2.168 1.792 3.932 3.994 3.932 2.204 0 3.993-1.764 3.993-3.932V2.89zM2.554 27.199A18.532 18.532 0 0 1 0 17.807c0-1.595 1.313-2.89 2.934-2.89 1.62 0 2.933 1.295 2.933 2.89 0 2.286.61 4.534 1.764 6.498 2.356 4.01 6.734 6.5 11.427 6.5 4.698 0 9.078-2.49 11.431-6.498.813-1.383 2.608-1.854 4.01-1.055a2.866 2.866 0 0 1 1.069 3.949c-3.4 5.788-9.723 9.383-16.51 9.383-6.78 0-13.106-3.595-16.504-9.385z" fill="url(#a)"/><path d="M158.12 15.083H156L159.23 6h2.55l3.225 9.083h-2.12l-2.343-7.007h-.074l-2.348 7.007zm-.132-3.57h5.007v1.498h-5.007v-1.498zM168.11 6v9.083h-1.978V6h1.978z" fill="#62707E"/><defs><linearGradient id="a" x1="17.982" y1="54.876" x2="54.56" y2="18.918" gradientUnits="userSpaceOnUse"><stop stop-color="#FF6CAB"/><stop offset="1" stop-color="#7366FF"/></linearGradient></defs></svg>