<svg width="152" height="92" viewBox="0 0 152 92" fill="none" xmlns="http://www.w3.org/2000/svg">
<path d="M112.081 6.87273L123.264 18.2639L85.3663 56.8671L59.8166 30.8416C56.7879 27.7565 51.8954 27.7565 48.8667 30.8416L2.27152 78.3837C-0.757172 81.4688 -0.757172 86.4524 2.27152 89.5375C5.3002 92.6226 10.1927 92.6226 13.2214 89.5375L54.3028 47.6118L79.8525 73.6374C82.8812 76.7225 87.7737 76.7225 90.8024 73.6374L134.214 29.4968L145.396 40.8879C147.804 43.3401 151.997 41.5998 151.997 38.1192V4.10405C152.075 1.88911 150.367 0.148804 148.192 0.148804H114.877C111.382 0.148804 109.673 4.42047 112.081 6.87273Z" fill="white"/>
</svg>
