<svg width="101" height="92" viewBox="0 0 101 92" fill="none" xmlns="http://www.w3.org/2000/svg">
<path d="M100.836 54.3211C100.818 54.0509 100.774 53.7829 100.706 53.5208L90.1257 25.3228C92.0513 24.0763 93.6348 22.3677 94.7322 20.3524C95.8297 18.3371 96.4061 16.0792 96.4091 13.784C96.4091 12.5654 95.9254 11.3968 95.0644 10.5351C94.2035 9.67343 93.0358 9.18934 91.8182 9.18934C90.6006 9.18934 89.4329 9.67343 88.5719 10.5351C87.711 11.3968 87.2273 12.5654 87.2273 13.784C87.2269 14.8079 86.8849 15.8024 86.2556 16.6097C85.6263 17.417 84.7457 17.9908 83.7534 18.2403C82.7612 18.4897 81.7141 18.4004 80.7784 17.9865C79.8426 17.5727 79.0717 16.8579 78.5879 15.9557C77.4099 13.8629 75.6873 12.1286 73.6032 10.9372C71.5191 9.74583 69.1515 9.1418 66.7518 9.18934H55.0909V4.59467C55.0909 3.37609 54.6072 2.20742 53.7463 1.34575C52.8853 0.48408 51.7176 0 50.5 0C49.2824 0 48.1147 0.48408 47.2537 1.34575C46.3928 2.20742 45.9091 3.37609 45.9091 4.59467V9.18934H34.2482C31.8485 9.1418 29.4809 9.74583 27.3968 10.9372C25.3127 12.1286 23.5901 13.8629 22.4121 15.9557C21.9283 16.8579 21.1574 17.5727 20.2216 17.9865C19.2859 18.4004 18.2388 18.4897 17.2466 18.2403C16.2543 17.9908 15.3737 17.417 14.7444 16.6097C14.1151 15.8024 13.7731 14.8079 13.7727 13.784C13.7727 12.5654 13.289 11.3968 12.4281 10.5351C11.5671 9.67343 10.3994 9.18934 9.18182 9.18934C7.96423 9.18934 6.79652 9.67343 5.93555 10.5351C5.07459 11.3968 4.59091 12.5654 4.59091 13.784C4.59391 16.0792 5.17035 18.3371 6.26775 20.3524C7.36516 22.3677 8.94869 24.0763 10.8743 25.3228L0.293818 53.5208C0.2259 53.7829 0.182573 54.0509 0.1644 54.3211C0.0837769 54.5869 0.0287263 54.8598 0 55.1361C0 55.1787 0.0123497 55.2179 0.0126252 55.2606C0.0140025 55.3211 0.0263976 55.377 0.0305294 55.4372C0.10201 60.2563 2.06498 64.8538 5.49533 68.2363C8.92568 71.6189 13.548 73.515 18.3636 73.515C23.1793 73.515 27.8016 71.6189 31.2319 68.2363C34.6623 64.8538 36.6253 60.2563 36.6967 55.4372C36.7006 55.377 36.7133 55.3211 36.7146 55.2606C36.7149 55.2179 36.7273 55.1787 36.7273 55.1361C36.6986 54.8598 36.6436 54.5869 36.5631 54.3211C36.5449 54.0509 36.5016 53.7829 36.4336 53.5208L25.8407 25.29C27.7861 24.0475 29.3871 22.334 30.4955 20.3081C30.8961 19.6845 31.454 19.1777 32.1129 18.839C32.7718 18.5002 33.5084 18.3414 34.2482 18.3787H45.9091V82.7041H32.1364C30.9188 82.7041 29.7511 83.1882 28.8901 84.0498C28.0291 84.9115 27.5455 86.0802 27.5455 87.2988C27.5455 88.5174 28.0291 89.686 28.8901 90.5477C29.7511 91.4094 30.9188 91.8934 32.1364 91.8934H68.8636C70.0812 91.8934 71.2489 91.4094 72.1099 90.5477C72.9709 89.686 73.4545 88.5174 73.4545 87.2988C73.4545 86.0802 72.9709 84.9115 72.1099 84.0498C71.2489 83.1882 70.0812 82.7041 68.8636 82.7041H55.0909V18.3787H66.7518C67.4916 18.3415 68.2281 18.5002 68.887 18.839C69.5458 19.1778 70.1037 19.6845 70.5043 20.3081C71.6127 22.334 73.2137 24.0475 75.1591 25.29L64.5665 53.5208C64.4986 53.7829 64.4553 54.0509 64.4371 54.3211C64.3565 54.5869 64.3015 54.8598 64.2727 55.1361C64.2727 55.1787 64.2851 55.2179 64.2854 55.2606C64.2867 55.3211 64.2991 55.377 64.3033 55.4372C64.3747 60.2563 66.3377 64.8538 69.7681 68.2363C73.1984 71.6189 77.8207 73.515 82.6364 73.515C87.452 73.515 92.0743 71.6189 95.5047 68.2363C98.935 64.8538 100.898 60.2563 100.969 55.4372C100.973 55.377 100.986 55.3211 100.987 55.2606C100.988 55.2179 101 55.1787 101 55.1361C100.971 54.8598 100.916 54.5869 100.836 54.3211ZM18.3636 31.4989L25.5089 50.5414H11.2183L18.3636 31.4989ZM26.2722 59.7307C25.462 61.1143 24.3079 62.2646 22.9221 63.0697C21.5363 63.8748 19.9659 64.3074 18.3636 64.3254C16.7524 64.3248 15.1696 63.8999 13.7744 63.0934C12.3791 62.2869 11.2204 61.1272 10.4147 59.7307H26.2722ZM82.6364 31.4989L89.7817 50.5414H75.4911L82.6364 31.4989ZM82.6364 64.3254C81.0251 64.3248 79.4424 63.8999 78.0471 63.0934C76.6518 62.2869 75.4932 61.1272 74.6874 59.7307H90.5449C89.7347 61.1143 88.5806 62.2646 87.1948 63.0697C85.809 63.8748 84.2386 64.3074 82.6364 64.3254Z" fill="#7FA0AD"/>
</svg>
