<svg width="146" height="152" viewBox="0 0 146 152" fill="none" xmlns="http://www.w3.org/2000/svg">
<path d="M145.032 44.1388L137.798 16.1427C137.061 13.3624 135.779 10.7564 134.026 8.476C132.273 6.19564 130.084 4.28646 127.587 2.85945C125.09 1.43244 122.334 0.516057 119.479 0.163581C116.625 -0.188895 113.728 0.0295632 110.959 0.806257L96.9971 4.56801C96.0734 4.81139 95.2071 5.23527 94.4481 5.8152C93.6892 6.39513 93.0526 7.11962 92.575 7.94687C92.0975 8.77411 91.7886 9.68774 91.666 10.635C91.5434 11.5823 91.6096 12.5445 91.8608 13.466L93.7417 20.7002L16.915 41.0281C15.0655 41.5206 13.4866 42.7258 12.5239 44.38C11.5612 46.0342 11.2933 48.0025 11.7788 49.8538L13.6597 57.0879L6.42551 58.9688C4.5069 59.2087 2.76213 60.2008 1.57505 61.7271C0.387968 63.2533 -0.144195 65.1886 0.0956319 67.1073C0.335459 69.0259 1.32763 70.7706 2.85388 71.9577C4.38013 73.1448 6.31543 73.677 8.23405 73.4371C8.85877 73.5122 9.49022 73.5122 10.1149 73.4371L17.3491 71.4839L19.23 78.7181C19.7285 80.5446 20.9232 82.1029 22.5577 83.0585C23.6532 83.7087 24.9009 84.0581 26.1747 84.0713C26.7969 84.1808 27.4334 84.1808 28.0556 84.0713L51.7113 76.6202V79.6585C51.7163 82.8705 52.4588 86.0385 53.8815 88.9182L17.7108 125.089C16.3486 126.442 15.5795 128.28 15.5727 130.2C15.5659 132.119 16.322 133.963 17.6746 135.325C19.0272 136.688 20.8656 137.457 22.7853 137.463C24.705 137.47 26.5487 136.714 27.9109 135.361L64.0817 99.1907L66.1073 99.9865V144.766C66.1073 146.684 66.8694 148.525 68.2261 149.881C69.5828 151.238 71.4228 152 73.3414 152C75.26 152 77.1001 151.238 78.4567 149.881C79.8134 148.525 80.5756 146.684 80.5756 144.766V100.059C81.2922 99.8133 81.9929 99.5234 82.6735 99.1907L118.844 135.361C120.206 136.714 122.05 137.47 123.97 137.463C125.89 137.457 127.728 136.688 129.081 135.325C130.433 133.963 131.189 132.119 131.182 130.2C131.176 128.28 130.407 126.442 129.044 125.089L92.8736 88.9182C94.2779 86.0287 95.0428 82.8704 95.1162 79.6585V65.1902L104.882 62.5859L106.691 69.8201C107.115 71.3983 108.061 72.7865 109.374 73.7585C110.688 74.7306 112.292 75.2293 113.925 75.1733H115.806L129.768 71.4116C132.59 70.6709 135.233 69.3689 137.541 67.5833C139.848 65.7977 141.771 63.5653 143.196 61.0194C144.621 58.4735 145.518 55.6665 145.834 52.7661C146.149 49.8657 145.876 46.9315 145.032 44.1388Z" fill="white"/>
</svg>
