<?xml version="1.0" encoding="UTF-8" standalone="no"?>
<svg
   width="101.00001"
   height="101"
   viewBox="0 0 101.00001 101"
   fill="none"
   version="1.1"
   id="svg4"
   xmlns="http://www.w3.org/2000/svg"
   xmlns:svg="http://www.w3.org/2000/svg">
  <defs
     id="defs8" />
  <path
     d="m 7.5768,34.84501 c 1.1991,0.5954 2.5855,0.6904 3.8547,0.2643 1.2692,-0.4261 2.3172,-1.3385 2.9139,-2.5368 3.197,-6.4549 8.0621,-11.938 14.0914,-15.8811 6.0292,-3.9432 13.0032,-6.2031 20.1997,-6.5456 7.1965,-0.3425993 14.3538,1.2446 20.7304,4.5973 6.3767,3.3526 11.7409,8.3487 15.5369,14.4707 3.796,6.1221 5.8859,13.1475 6.0531,20.3485 0.16727,7.201 -1.5942,14.3158 -5.102,20.6074 -3.5077,6.2916 -8.6342,11.5312 -14.8484,15.1761 -6.2141,3.6448 -13.29,5.5624 -20.4946,5.5542 -7.532,0.0326 -14.9205,-2.0586 -21.3176,-6.0335 -6.3971,-3.975 -11.5437,-9.6726 -14.8489,-16.439 -0.6029,-1.2054 -1.66,-2.122 -2.9388,-2.5482 -1.2789,-0.4262 -2.6746,-0.327 -3.8803,0.2757 -1.2057,0.6027 -2.1226,1.6595 -2.5488,2.9381 -0.4263,1.2785 -0.3271,2.674 0.2757,3.8794 5.0684,10.1972 13.435,18.3827 23.742,23.2278 10.307,4.8447 21.9493,6.0657 33.0374,3.463 11.088,-2.6024 20.9709,-8.8749 28.0446,-17.7994 C 97.1508,72.93941 101,61.88681 101,50.50001 101,39.11321 97.1508,28.06061 90.0772,19.13611 83.0035,10.21161 73.1206,3.9391107 62.0326,1.3366607 50.9445,-1.2657893 39.3022,-0.04541017 28.9952,4.7997107 18.6882,9.6448307 10.3216,17.83031 5.2532,28.02751 c -0.301,0.5991 -0.4797,1.2521 -0.5256,1.9209 -0.0459,0.6689 0.0418,1.3402 0.2581,1.9748 0.2162,0.6346 0.5568,1.2198 1.0016,1.7214 0.4449,0.5017 0.9852,0.9097 1.5895,1.2004 z m -2.5256,20.705 h 48.4409 l -11.6178,11.5645 c -0.4709,0.4708 -0.8445,1.0298 -1.0994,1.645 -0.2549,0.6152 -0.3861,1.2746 -0.3861,1.9405 0,0.6659 0.1312,1.3252 0.3861,1.9404 0.2549,0.6152 0.6285,1.1742 1.0994,1.6451 0.471,0.4708 1.0301,0.8443 1.6455,1.0992 0.6153,0.2548 1.2748,0.3859 1.9409,0.3859 0.666,0 1.3255,-0.1311 1.9409,-0.3859 0.6153,-0.2549 1.1744,-0.6284 1.6454,-1.0992 l 20.2048,-20.2 c 0.4598,-0.4803 0.8203,-1.0466 1.0607,-1.6665 0.5052,-1.2295 0.5052,-2.6085 0,-3.838 -0.2404,-0.6199 -0.6009,-1.1862 -1.0607,-1.6665 l -20.2048,-20.2 c -0.4696,-0.4733 -1.0282,-0.849 -1.6438,-1.1054 -0.6155,-0.2564 -1.2757,-0.3884 -1.9425,-0.3884 -0.6668,0 -1.3271,0.132 -1.9426,0.3884 -0.6155,0.2564 -1.1742,0.6321 -1.6438,1.1054 -0.4734,0.4695 -0.8492,1.028 -1.1056,1.6434 -0.2565,0.6154 -0.3885,1.2755 -0.3885,1.9421 0,0.6667 0.132,1.3267 0.3885,1.9421 0.2564,0.6154 0.6322,1.1739 1.1056,1.6434 l 11.6178,11.5645 H 5.0512 c -1.3397,0 -2.6245,0.5321 -3.5717,1.4791 C 0.532,47.87621 0,49.16071 0,50.50001 c 0,1.3393 0.532,2.6238 1.4795,3.5709 0.9472,0.947 2.232,1.4791 3.5717,1.4791 z"
     fill="#7fa0ad"
     id="path2"
     style="fill:#ffffff" />
</svg>
