<svg width="315" height="156" viewBox="0 0 315 156" fill="none" xmlns="http://www.w3.org/2000/svg">
<path d="M167.584 50.9996C165.58 52.1377 162.586 53.1643 158.603 54.0797C154.62 54.9703 150.823 55.4156 147.211 55.4156C137.884 55.4156 130.685 53.0901 125.613 48.4391C120.541 43.7633 118.006 37.2197 118.006 28.8082C118.006 23.1676 119.28 18.1578 121.828 13.7789C124.401 9.40002 128.013 6.07255 132.664 3.79651C137.315 1.52047 142.795 0.382446 149.103 0.382446C153.73 0.382446 158.665 1.03805 163.91 2.34924V16.3395C161.461 15.2262 159.11 14.4593 156.859 14.0387C154.608 13.5934 152.146 13.3707 149.474 13.3707C145.071 13.3707 141.558 14.6943 138.935 17.3414C136.338 19.9886 135.039 23.6253 135.039 28.2516C135.039 32.68 136.127 36.1435 138.304 38.6422C140.506 41.1409 143.574 42.3903 147.508 42.3903C149.338 42.3903 150.687 42.2913 151.553 42.0934V34.486H141.347V22.3512H167.584V50.9996Z" fill="white"/>
<path d="M202.357 54.4879L198.386 43.0211C197.619 40.7698 196.617 39.0009 195.38 37.7145C194.168 36.428 192.844 35.7848 191.409 35.7848H190.779V54.4879H174.747V1.27307H196.048C203.495 1.27307 208.987 2.49768 212.525 4.9469C216.087 7.37138 217.868 11.0205 217.868 15.8942C217.868 19.5556 216.829 22.6233 214.751 25.0973C212.698 27.5712 209.63 29.3649 205.548 30.4781V30.6266C207.799 31.3193 209.667 32.4449 211.152 34.0035C212.661 35.5621 214.009 37.8753 215.197 40.943L220.429 54.4879H202.357ZM200.835 18.1578C200.835 16.3766 200.291 14.9664 199.202 13.9274C198.114 12.8883 196.407 12.3688 194.081 12.3688H190.779V24.5406H193.673C195.826 24.5406 197.557 23.9345 198.868 22.7223C200.18 21.5101 200.835 19.9886 200.835 18.1578Z" fill="white"/>
<path d="M226.626 54.4879V1.27307H259.765V13.816H242.658V21.5719H258.726V34.1149H242.658V41.9449H260.99V54.4879H226.626Z" fill="white"/>
<path d="M298.041 36.0074V54.4879H282.01V36.2301L273.809 18.7516L265.607 1.27307H284.014L289.766 18.0094C290.161 19.1474 290.434 20.137 290.582 20.9781C290.755 21.8193 290.941 22.6728 291.139 23.5387H291.287C291.609 21.2874 291.967 19.5433 292.363 18.3063L298.041 1.27307H315L298.041 36.0074Z" fill="white"/>
<path d="M49.4521 124.488V95.3199C49.4521 92.5739 49.5387 89.5556 49.7119 86.2653L49.8232 83.816H49.3779C48.5863 87.997 47.9801 90.8916 47.5596 92.4996L39.7295 124.488H24.6631L16.4619 92.8707C16.2393 92.0791 15.6579 89.0608 14.7178 83.816H14.2725C14.6188 92.1285 14.792 97.3239 14.792 99.402V124.488H0.727539V71.2731H24.7373L32.0479 100.181C32.221 100.775 32.4437 101.987 32.7158 103.818C33.0127 105.624 33.1982 107.022 33.2725 108.011H33.4951C33.7673 105.76 34.2002 103.101 34.7939 100.033L41.6221 71.2731H65.2607V124.488H49.4521Z" fill="white"/>
<path d="M109.124 124.488L106.786 114.691H90.9033L88.3799 124.488H71.0498L89.3818 71.2731H109.272L126.528 124.488H109.124ZM99.0303 82.8512H98.6592C98.6097 83.4449 98.4365 84.4222 98.1396 85.7828C97.8428 87.1435 96.346 92.9821 93.6494 103.298H103.817L100.106 88.8258C99.5869 86.6982 99.2282 84.7067 99.0303 82.8512Z" fill="white"/>
<path d="M154.347 83.816V124.488H138.242V83.816H123.361V71.2731H169.413V83.816H154.347Z" fill="white"/>
<path d="M206.538 83.816V124.488H190.432V83.816H175.551V71.2731H221.604V83.816H206.538Z" fill="white"/>
<path d="M228.024 124.488V71.2731H261.163V83.816H244.055V91.5719H260.124V104.115H244.055V111.945H262.387V124.488H228.024Z" fill="white"/>
<path d="M296.047 124.488L292.076 113.021C291.309 110.77 290.307 109.001 289.07 107.714C287.858 106.428 286.535 105.785 285.1 105.785H284.469V124.488H268.438V71.2731H289.738C297.185 71.2731 302.677 72.4977 306.215 74.9469C309.777 77.3714 311.559 81.0205 311.559 85.8942C311.559 89.5556 310.52 92.6233 308.441 95.0973C306.388 97.5712 303.32 99.3649 299.238 100.478V100.627C301.49 101.319 303.357 102.445 304.842 104.004C306.351 105.562 307.699 107.875 308.887 110.943L314.119 124.488H296.047ZM294.525 88.1578C294.525 86.3766 293.981 84.9664 292.893 83.9274C291.804 82.8883 290.097 82.3688 287.771 82.3688H284.469V94.5406H287.363C289.516 94.5406 291.247 93.9345 292.559 92.7223C293.87 91.5101 294.525 89.9886 294.525 88.1578Z" fill="white"/>
<path d="M72.3751 143.253C73.5404 141.505 74.5524 140.317 75.4111 139.688C76.2697 139.044 77.0211 138.722 77.6651 138.722C78.3091 138.722 78.8074 138.921 79.1601 139.32C79.5127 139.703 79.6891 140.194 79.6891 140.792C79.6891 142.448 79.0911 143.981 77.8951 145.392C76.7144 146.787 75.3804 147.485 73.8931 147.485C73.2337 147.485 72.7124 147.37 72.3291 147.14L72.8811 146.151C73.6784 146.258 74.1767 146.312 74.3761 146.312C75.2041 146.312 75.9784 145.829 76.6991 144.863C77.4197 143.897 77.7801 142.908 77.7801 141.896C77.7801 141.513 77.6651 141.198 77.4351 140.953C77.2204 140.692 76.9367 140.562 76.5841 140.562C75.7407 140.562 74.7824 141.306 73.7091 142.793C72.6511 144.28 71.6544 146.12 70.7191 148.313C69.7991 150.521 68.9941 152.867 68.3041 155.351L66.9241 154.868C66.9547 154.776 67.2461 153.979 67.7981 152.476C68.3347 150.989 68.8637 149.509 69.3851 148.037C70.8264 143.989 71.5471 141.773 71.5471 141.39C71.5471 140.409 71.3477 139.519 70.9491 138.722L72.0991 138.147C72.5744 138.806 72.8121 139.504 72.8121 140.24C72.8121 140.961 72.6664 141.965 72.3751 143.253Z" fill="white"/>
<path d="M86.8908 140.654C87.2894 141.313 87.4888 142.042 87.4888 142.839C87.4888 144.081 87.0594 145.193 86.2008 146.174C85.3421 147.14 84.3301 147.623 83.1648 147.623C82.2754 147.623 81.5778 147.37 81.0718 146.864C80.5811 146.343 80.3358 145.63 80.3358 144.725C80.3358 143.268 80.9031 141.965 82.0378 140.815C83.1724 139.65 84.4451 139.067 85.8558 139.067C86.1164 139.067 86.3004 139.075 86.4078 139.09L86.4768 139.849C85.2501 139.849 84.2304 140.202 83.4178 140.907C82.6051 141.612 82.1988 142.517 82.1988 143.621C82.1988 144.28 82.3598 144.817 82.6818 145.231C83.0038 145.63 83.4714 145.829 84.0848 145.829C84.7134 145.829 85.2118 145.553 85.5798 145.001C85.9478 144.449 86.1318 143.805 86.1318 143.069C86.1318 142.318 85.9861 141.635 85.6948 141.022L86.8908 140.654Z" fill="white"/>
<path d="M101.014 138.538L101.658 139.136L100.278 140.815C98.6527 142.824 97.449 144.817 96.667 146.795C96.4677 147.209 96.2607 147.416 96.046 147.416C95.8467 147.416 95.678 147.393 95.54 147.347C95.4174 147.286 95.2717 147.086 95.103 146.749C94.9497 146.412 94.8424 146.005 94.781 145.53C94.7197 145.055 94.666 144.648 94.62 144.311C94.574 143.974 94.5434 143.728 94.528 143.575C94.5127 143.406 94.4897 143.238 94.459 143.069C94.4437 142.885 94.4284 142.747 94.413 142.655C94.3977 142.563 94.3824 142.471 94.367 142.379C94.3517 142.287 94.3287 142.203 94.298 142.126C94.2674 142.034 94.2444 141.957 94.229 141.896C94.2137 141.819 94.1754 141.697 94.114 141.528C94.068 141.359 94.0297 141.214 93.999 141.091C93.2017 141.95 92.5194 142.962 91.952 144.127C91.7374 144.572 91.3157 145.461 90.687 146.795C90.549 147.086 90.3574 147.232 90.112 147.232C89.882 147.232 89.6904 147.209 89.537 147.163C89.399 147.102 89.2534 146.918 89.1 146.611C88.9467 146.304 88.8317 145.844 88.755 145.231C88.387 142.149 88.0344 140.048 87.697 138.929C88.1417 138.806 88.5864 138.745 89.031 138.745C89.1077 138.883 89.2074 139.305 89.33 140.01C89.5907 141.375 89.9204 142.977 90.319 144.817C91.0704 143.376 91.8984 142.049 92.803 140.838C93.723 139.611 94.3287 138.998 94.62 138.998C94.9574 138.998 95.1874 139.236 95.31 139.711C95.448 140.171 95.563 140.953 95.655 142.057C95.7624 143.146 95.9004 144.058 96.069 144.794C97.5104 142.325 99.1587 140.24 101.014 138.538Z" fill="white"/>
<path d="M108.114 144.771L108.643 145.185C108.167 145.844 107.516 146.396 106.688 146.841C105.86 147.27 105.055 147.485 104.273 147.485C103.491 147.485 102.862 147.255 102.387 146.795C101.911 146.335 101.674 145.729 101.674 144.978C101.674 143.567 102.417 142.18 103.905 140.815C105.407 139.45 106.925 138.768 108.459 138.768C109.471 138.768 109.977 139.167 109.977 139.964C109.977 140.792 109.44 141.628 108.367 142.471C107.309 143.314 105.814 144.081 103.882 144.771C104.02 145.124 104.234 145.4 104.526 145.599C104.817 145.798 105.116 145.898 105.423 145.898C106.082 145.898 106.979 145.522 108.114 144.771ZM103.767 144.081C105.009 143.652 106.074 143.115 106.964 142.471C107.853 141.827 108.298 141.237 108.298 140.7C108.298 140.501 108.221 140.324 108.068 140.171C107.914 140.018 107.738 139.941 107.539 139.941C106.818 139.941 106.036 140.393 105.193 141.298C104.365 142.187 103.889 143.115 103.767 144.081Z" fill="white"/>
<path d="M116.873 139.343C117.257 139.343 117.571 139.473 117.816 139.734C118.062 139.995 118.184 140.332 118.184 140.746C118.184 141.574 117.709 142.448 116.758 143.368L116.206 142.931C116.421 142.456 116.528 142.111 116.528 141.896C116.528 141.482 116.298 141.275 115.838 141.275C115.378 141.275 114.941 141.566 114.527 142.149C114.113 142.732 113.623 143.636 113.055 144.863C112.503 146.074 112.082 146.933 111.79 147.439L110.479 146.864C111.323 144.947 111.806 143.82 111.928 143.483C112.342 142.287 112.549 140.769 112.549 138.929L113.837 138.584C113.791 139.581 113.722 140.355 113.63 140.907C113.538 141.444 113.316 142.325 112.963 143.552C114.512 140.746 115.815 139.343 116.873 139.343Z" fill="white"/>
<path d="M125.049 144.771L125.578 145.185C125.103 145.844 124.451 146.396 123.623 146.841C122.795 147.27 121.99 147.485 121.208 147.485C120.426 147.485 119.798 147.255 119.322 146.795C118.847 146.335 118.609 145.729 118.609 144.978C118.609 143.567 119.353 142.18 120.84 140.815C122.343 139.45 123.861 138.768 125.394 138.768C126.406 138.768 126.912 139.167 126.912 139.964C126.912 140.792 126.376 141.628 125.302 142.471C124.244 143.314 122.749 144.081 120.817 144.771C120.955 145.124 121.17 145.4 121.461 145.599C121.753 145.798 122.052 145.898 122.358 145.898C123.018 145.898 123.915 145.522 125.049 144.771ZM120.702 144.081C121.944 143.652 123.01 143.115 123.899 142.471C124.789 141.827 125.233 141.237 125.233 140.7C125.233 140.501 125.157 140.324 125.003 140.171C124.85 140.018 124.674 139.941 124.474 139.941C123.754 139.941 122.972 140.393 122.128 141.298C121.3 142.187 120.825 143.115 120.702 144.081Z" fill="white"/>
<path d="M140.341 130.488L141.514 130.902L141.192 131.5C139.505 134.643 138.072 137.687 136.891 140.631C136.109 142.563 135.718 144.012 135.718 144.978C135.718 145.223 135.779 145.423 135.902 145.576C136.025 145.714 136.216 145.783 136.477 145.783C136.753 145.783 137.067 145.607 137.42 145.254L137.834 145.645C137.635 146.09 137.29 146.504 136.799 146.887C136.308 147.255 135.833 147.439 135.373 147.439C134.484 147.439 134.039 146.918 134.039 145.875C134.039 145.262 134.208 144.319 134.545 143.046C132.736 146.205 130.965 147.784 129.232 147.784C128.634 147.784 128.159 147.6 127.806 147.232C127.453 146.864 127.277 146.366 127.277 145.737C127.277 144.74 127.676 143.705 128.473 142.632C129.27 141.559 130.252 140.685 131.417 140.01C132.582 139.32 133.671 138.975 134.683 138.975L134.752 139.78C133.433 139.949 132.199 140.524 131.049 141.505C129.914 142.471 129.347 143.46 129.347 144.472C129.347 144.901 129.462 145.246 129.692 145.507C129.922 145.752 130.221 145.875 130.589 145.875C131.34 145.875 132.322 145.07 133.533 143.46C133.978 142.877 134.484 142.026 135.051 140.907C135.634 139.788 136.094 138.891 136.431 138.216C136.784 137.526 137.121 136.859 137.443 136.215C137.78 135.556 138.217 134.697 138.754 133.639C139.291 132.566 139.82 131.515 140.341 130.488Z" fill="white"/>
<path d="M155.315 141.16C156.051 140.409 156.695 139.895 157.247 139.619C157.815 139.328 158.344 139.182 158.834 139.182C159.34 139.182 159.754 139.358 160.076 139.711C160.414 140.048 160.582 140.493 160.582 141.045C160.582 142.471 159.984 143.974 158.788 145.553C157.592 147.117 156.304 147.899 154.924 147.899C154.51 147.899 154.119 147.822 153.751 147.669L154.303 146.657C154.549 146.718 154.74 146.749 154.878 146.749C155.814 146.749 156.665 146.228 157.431 145.185C158.198 144.142 158.581 143.115 158.581 142.103C158.581 141.781 158.474 141.52 158.259 141.321C158.06 141.106 157.799 140.999 157.477 140.999C156.772 140.999 155.944 141.566 154.993 142.701C154.058 143.836 153.238 145.315 152.532 147.14L151.129 146.565C151.589 144.219 152.509 141.359 153.889 137.986C155.269 134.613 156.419 132.228 157.339 130.833L158.512 131.247C157.5 133.133 156.419 135.471 155.269 138.262C154.135 141.053 153.468 142.946 153.268 143.943C153.897 142.839 154.579 141.911 155.315 141.16Z" fill="white"/>
<path d="M170.626 146.036L170.695 146.634C170.633 146.68 169.92 146.956 168.556 147.462C168.372 148.474 168.134 149.471 167.843 150.452C167.567 151.449 167.283 152.2 166.992 152.706C166.716 153.227 166.386 153.741 166.003 154.247C165.236 155.259 164.201 155.765 162.898 155.765C162.254 155.765 161.74 155.566 161.357 155.167C160.973 154.768 160.782 154.224 160.782 153.534C160.782 150.881 163.005 148.75 167.452 147.14L168.694 142.77C167.375 144.748 166.187 145.967 165.129 146.427C164.607 146.672 164.055 146.795 163.473 146.795C162.905 146.795 162.445 146.611 162.093 146.243C161.755 145.875 161.587 145.338 161.587 144.633C161.587 143.928 161.824 142.946 162.3 141.689C162.79 140.416 163.335 139.351 163.933 138.492L165.06 138.975C165.014 139.021 164.799 139.427 164.416 140.194C163.741 141.589 163.404 142.624 163.404 143.299C163.404 143.974 163.534 144.426 163.795 144.656C164.055 144.886 164.439 145.001 164.945 145.001C165.451 145.001 166.018 144.702 166.647 144.104C167.291 143.491 168.28 142.287 169.614 140.493L170.442 140.976C170.319 141.482 170.043 142.402 169.614 143.736C169.2 145.055 168.916 146.067 168.763 146.772L170.626 146.036ZM167.314 147.83C166.348 148.275 165.497 148.781 164.761 149.348C163.381 150.391 162.691 151.403 162.691 152.384C162.691 152.752 162.798 153.051 163.013 153.281C163.227 153.511 163.496 153.626 163.818 153.626C165.351 153.626 166.516 151.694 167.314 147.83Z" fill="white"/>
<path d="M194.997 133.409L195.664 134.398C194.085 135.441 192.383 137.104 190.558 139.389C188.734 141.658 187.308 144.004 186.28 146.427C186.066 146.933 185.874 147.27 185.705 147.439C185.552 147.608 185.322 147.692 185.015 147.692C184.724 147.692 184.456 147.592 184.21 147.393C183.98 147.178 183.865 146.864 183.865 146.45C183.865 146.021 183.919 145.216 184.026 144.035C184.149 142.839 184.21 141.996 184.21 141.505C184.21 138.055 183.827 135.272 183.06 133.156L184.739 132.696C185.613 134.214 186.05 136.951 186.05 140.907C186.05 142.195 186.027 143.222 185.981 143.989C188.435 138.96 191.44 135.433 194.997 133.409Z" fill="white"/>
<path d="M197.198 137.733C196.339 137.733 195.91 137.388 195.91 136.698C195.91 136.315 196.017 135.993 196.232 135.732C196.446 135.471 196.722 135.341 197.06 135.341C197.397 135.341 197.673 135.441 197.888 135.64C198.102 135.839 198.21 136.1 198.21 136.422C198.21 136.744 198.118 137.043 197.934 137.319C197.75 137.595 197.504 137.733 197.198 137.733ZM196.899 144.518L197.359 144.909C196.991 145.614 196.5 146.22 195.887 146.726C195.289 147.217 194.744 147.462 194.254 147.462C193.395 147.462 192.966 146.864 192.966 145.668C192.966 144.181 193.579 142.241 194.806 139.849C195.082 139.328 195.243 139.021 195.289 138.929L196.278 139.527C195.956 140.11 195.557 141.037 195.082 142.31C194.622 143.583 194.392 144.403 194.392 144.771C194.392 145.124 194.468 145.377 194.622 145.53C194.775 145.683 194.959 145.76 195.174 145.76C195.588 145.76 196.163 145.346 196.899 144.518Z" fill="white"/>
<path d="M205.1 144.771L205.629 145.185C205.154 145.844 204.502 146.396 203.674 146.841C202.846 147.27 202.041 147.485 201.259 147.485C200.477 147.485 199.848 147.255 199.373 146.795C198.898 146.335 198.66 145.729 198.66 144.978C198.66 143.567 199.404 142.18 200.891 140.815C202.394 139.45 203.912 138.768 205.445 138.768C206.457 138.768 206.963 139.167 206.963 139.964C206.963 140.792 206.426 141.628 205.353 142.471C204.295 143.314 202.8 144.081 200.868 144.771C201.006 145.124 201.221 145.4 201.512 145.599C201.803 145.798 202.102 145.898 202.409 145.898C203.068 145.898 203.965 145.522 205.1 144.771ZM200.753 144.081C201.995 143.652 203.061 143.115 203.95 142.471C204.839 141.827 205.284 141.237 205.284 140.7C205.284 140.501 205.207 140.324 205.054 140.171C204.901 140.018 204.724 139.941 204.525 139.941C203.804 139.941 203.022 140.393 202.179 141.298C201.351 142.187 200.876 143.115 200.753 144.081Z" fill="white"/>
<path d="M212.112 137.733C211.253 137.733 210.824 137.388 210.824 136.698C210.824 136.315 210.931 135.993 211.146 135.732C211.36 135.471 211.636 135.341 211.974 135.341C212.311 135.341 212.587 135.441 212.802 135.64C213.016 135.839 213.124 136.1 213.124 136.422C213.124 136.744 213.032 137.043 212.848 137.319C212.664 137.595 212.418 137.733 212.112 137.733ZM211.813 144.518L212.273 144.909C211.905 145.614 211.414 146.22 210.801 146.726C210.203 147.217 209.658 147.462 209.168 147.462C208.309 147.462 207.88 146.864 207.88 145.668C207.88 144.181 208.493 142.241 209.72 139.849C209.996 139.328 210.157 139.021 210.203 138.929L211.192 139.527C210.87 140.11 210.471 141.037 209.996 142.31C209.536 143.583 209.306 144.403 209.306 144.771C209.306 145.124 209.382 145.377 209.536 145.53C209.689 145.683 209.873 145.76 210.088 145.76C210.502 145.76 211.077 145.346 211.813 144.518Z" fill="white"/>
<path d="M220.014 139.343C220.397 139.343 220.712 139.473 220.957 139.734C221.202 139.995 221.325 140.332 221.325 140.746C221.325 141.574 220.85 142.448 219.899 143.368L219.347 142.931C219.562 142.456 219.669 142.111 219.669 141.896C219.669 141.482 219.439 141.275 218.979 141.275C218.519 141.275 218.082 141.566 217.668 142.149C217.254 142.732 216.763 143.636 216.196 144.863C215.644 146.074 215.222 146.933 214.931 147.439L213.62 146.864C214.463 144.947 214.946 143.82 215.069 143.483C215.483 142.287 215.69 140.769 215.69 138.929L216.978 138.584C216.932 139.581 216.863 140.355 216.771 140.907C216.679 141.444 216.457 142.325 216.104 143.552C217.653 140.746 218.956 139.343 220.014 139.343Z" fill="white"/>
<path d="M231.617 145.162L232.146 145.553C231.931 146.013 231.532 146.45 230.95 146.864C230.382 147.278 229.861 147.485 229.386 147.485C228.481 147.485 228.029 147.01 228.029 146.059C228.029 145.614 228.144 145.085 228.374 144.472L227.523 145.346C226.695 146.189 225.974 146.757 225.361 147.048C224.763 147.339 224.172 147.485 223.59 147.485C223.007 147.485 222.562 147.324 222.256 147.002C221.964 146.665 221.819 146.205 221.819 145.622C221.819 144.549 222.233 143.491 223.061 142.448C223.889 141.39 224.947 140.531 226.235 139.872C227.523 139.213 228.811 138.875 230.099 138.86L230.145 139.619L229.179 139.826C227.783 140.133 226.549 140.746 225.476 141.666C224.418 142.586 223.889 143.506 223.889 144.426C223.889 145.331 224.257 145.783 224.993 145.783C225.683 145.783 226.534 145.3 227.546 144.334C228.558 143.368 229.401 142.233 230.076 140.93L231.042 141.505C230.091 143.422 229.616 144.641 229.616 145.162C229.616 145.377 229.685 145.561 229.823 145.714C229.976 145.852 230.122 145.921 230.26 145.921C230.413 145.921 230.513 145.913 230.559 145.898C230.605 145.883 230.651 145.867 230.697 145.852C230.743 145.821 230.797 145.783 230.858 145.737C230.935 145.691 230.996 145.645 231.042 145.599C231.103 145.553 231.195 145.484 231.318 145.392C231.44 145.3 231.54 145.223 231.617 145.162Z" fill="white"/>
<path d="M254.852 148.98L254.967 150.061C254.538 150.138 254.162 150.176 253.84 150.176C253.119 150.176 252.429 149.693 251.77 148.727C251.111 147.776 250.589 146.657 250.206 145.369C249.838 144.081 249.608 142.839 249.516 141.643C248.749 143.636 248.021 145.085 247.331 145.99C246.656 146.879 245.959 147.324 245.238 147.324C244.87 147.324 244.579 147.178 244.364 146.887C244.149 146.58 244.042 146.182 244.042 145.691C244.042 144.556 244.563 143.115 245.606 141.367C246.664 139.619 247.898 138.185 249.309 137.066C249.34 136.974 249.47 136.414 249.7 135.387C249.945 134.36 250.091 133.792 250.137 133.685L251.471 133.57C251.471 133.831 251.402 134.375 251.264 135.203C253.334 133.624 255.036 132.834 256.37 132.834C256.999 132.834 257.497 133.01 257.865 133.363C258.233 133.7 258.417 134.16 258.417 134.743C258.417 136.2 257.681 137.672 256.209 139.159C254.737 140.631 253.165 141.497 251.494 141.758C251.617 143.981 252 145.722 252.644 146.979C253.303 148.236 254.039 148.903 254.852 148.98ZM248.159 141.298C248.573 140.194 248.857 139.312 249.01 138.653C248.167 139.435 247.385 140.478 246.664 141.781C245.959 143.084 245.606 144.05 245.606 144.679C245.606 145.001 245.736 145.162 245.997 145.162C246.457 145.162 247.178 143.874 248.159 141.298ZM249.723 140.976C251.348 140.976 252.805 140.409 254.093 139.274C255.381 138.139 256.025 137.012 256.025 135.893C256.025 135.479 255.918 135.157 255.703 134.927C255.504 134.697 255.182 134.582 254.737 134.582C254.292 134.582 253.648 134.835 252.805 135.341C251.962 135.832 251.356 136.238 250.988 136.56C250.513 138.446 250.091 139.918 249.723 140.976Z" fill="white"/>
<path d="M263.251 144.771L263.78 145.185C263.305 145.844 262.653 146.396 261.825 146.841C260.997 147.27 260.192 147.485 259.41 147.485C258.628 147.485 258 147.255 257.524 146.795C257.049 146.335 256.811 145.729 256.811 144.978C256.811 143.567 257.555 142.18 259.042 140.815C260.545 139.45 262.063 138.768 263.596 138.768C264.608 138.768 265.114 139.167 265.114 139.964C265.114 140.792 264.578 141.628 263.504 142.471C262.446 143.314 260.951 144.081 259.019 144.771C259.157 145.124 259.372 145.4 259.663 145.599C259.955 145.798 260.254 145.898 260.56 145.898C261.22 145.898 262.117 145.522 263.251 144.771ZM258.904 144.081C260.146 143.652 261.212 143.115 262.101 142.471C262.991 141.827 263.435 141.237 263.435 140.7C263.435 140.501 263.359 140.324 263.205 140.171C263.052 140.018 262.876 139.941 262.676 139.941C261.956 139.941 261.174 140.393 260.33 141.298C259.502 142.187 259.027 143.115 258.904 144.081Z" fill="white"/>
<path d="M272.72 145.783L272.697 146.749C272.344 146.764 271.861 146.78 271.248 146.795C270.635 146.81 270.205 146.826 269.96 146.841C269.73 146.841 269.408 146.856 268.994 146.887C268.289 146.933 267.637 147.025 267.039 147.163C266.288 147.332 265.881 147.416 265.82 147.416C265.529 147.416 265.23 147.24 264.923 146.887C264.632 146.534 264.486 146.189 264.486 145.852C264.486 145.208 266.786 143.268 271.386 140.033C271.187 140.018 270.727 140.01 270.006 140.01C269.301 140.01 268.066 140.163 266.303 140.47L266.165 139.688C267.208 139.059 269.155 138.745 272.007 138.745C272.605 138.745 273.027 138.791 273.272 138.883C273.533 138.975 273.663 139.182 273.663 139.504C273.663 139.857 273.464 140.179 273.065 140.47C272.988 140.531 272.858 140.616 272.674 140.723C272.505 140.83 272.191 141.045 271.731 141.367C271.271 141.689 270.803 142.026 270.328 142.379C269.868 142.716 269.278 143.23 268.557 143.92C267.836 144.61 267.146 145.369 266.487 146.197C268.603 145.86 270.029 145.691 270.765 145.691C271.516 145.691 272.168 145.722 272.72 145.783Z" fill="white"/>
<path d="M280.861 144.771L281.39 145.185C280.914 145.844 280.263 146.396 279.435 146.841C278.607 147.27 277.802 147.485 277.02 147.485C276.238 147.485 275.609 147.255 275.134 146.795C274.658 146.335 274.421 145.729 274.421 144.978C274.421 143.567 275.164 142.18 276.652 140.815C278.154 139.45 279.672 138.768 281.206 138.768C282.218 138.768 282.724 139.167 282.724 139.964C282.724 140.792 282.187 141.628 281.114 142.471C280.056 143.314 278.561 144.081 276.629 144.771C276.767 145.124 276.981 145.4 277.273 145.599C277.564 145.798 277.863 145.898 278.17 145.898C278.829 145.898 279.726 145.522 280.861 144.771ZM276.514 144.081C277.756 143.652 278.821 143.115 279.711 142.471C280.6 141.827 281.045 141.237 281.045 140.7C281.045 140.501 280.968 140.324 280.815 140.171C280.661 140.018 280.485 139.941 280.286 139.941C279.565 139.941 278.783 140.393 277.94 141.298C277.112 142.187 276.636 143.115 276.514 144.081Z" fill="white"/>
<path d="M292.817 144.702L293.3 145.07C292.963 145.745 292.495 146.312 291.897 146.772C291.315 147.232 290.786 147.462 290.311 147.462C289.835 147.462 289.46 147.324 289.184 147.048C288.908 146.772 288.77 146.427 288.77 146.013C288.77 145.599 289.03 144.878 289.551 143.851C290.088 142.808 290.356 142.042 290.356 141.551C290.356 141.336 290.264 141.145 290.08 140.976C289.912 140.792 289.705 140.7 289.459 140.7C288.677 140.7 287.888 141.298 287.09 142.494C286.293 143.675 285.404 145.384 284.423 147.623L283.042 147.14C283.334 145.361 283.748 143.629 284.285 141.942C284.837 140.24 285.342 139.021 285.802 138.285L286.745 138.584C286.316 139.673 285.772 141.551 285.112 144.219C287.228 140.6 289.176 138.791 290.954 138.791C291.338 138.791 291.652 138.921 291.897 139.182C292.158 139.443 292.288 139.749 292.288 140.102C292.288 140.455 292.242 140.777 292.15 141.068C292.058 141.344 291.767 142.003 291.276 143.046C290.801 144.073 290.563 144.717 290.563 144.978C290.563 145.239 290.64 145.446 290.793 145.599C290.947 145.737 291.092 145.806 291.23 145.806C291.368 145.806 291.484 145.783 291.576 145.737C291.668 145.691 291.767 145.622 291.874 145.53C291.997 145.438 292.104 145.354 292.196 145.277C292.288 145.2 292.396 145.101 292.518 144.978C292.656 144.84 292.756 144.748 292.817 144.702Z" fill="white"/>
<path d="M306.821 130.488L307.994 130.902L307.672 131.5C305.986 134.643 304.552 137.687 303.371 140.631C302.589 142.563 302.198 144.012 302.198 144.978C302.198 145.223 302.26 145.423 302.382 145.576C302.505 145.714 302.697 145.783 302.957 145.783C303.233 145.783 303.548 145.607 303.9 145.254L304.314 145.645C304.115 146.09 303.77 146.504 303.279 146.887C302.789 147.255 302.313 147.439 301.853 147.439C300.964 147.439 300.519 146.918 300.519 145.875C300.519 145.262 300.688 144.319 301.025 143.046C299.216 146.205 297.445 147.784 295.712 147.784C295.114 147.784 294.639 147.6 294.286 147.232C293.934 146.864 293.757 146.366 293.757 145.737C293.757 144.74 294.156 143.705 294.953 142.632C295.751 141.559 296.732 140.685 297.897 140.01C299.063 139.32 300.151 138.975 301.163 138.975L301.232 139.78C299.914 139.949 298.679 140.524 297.529 141.505C296.395 142.471 295.827 143.46 295.827 144.472C295.827 144.901 295.942 145.246 296.172 145.507C296.402 145.752 296.701 145.875 297.069 145.875C297.821 145.875 298.802 145.07 300.013 143.46C300.458 142.877 300.964 142.026 301.531 140.907C302.114 139.788 302.574 138.891 302.911 138.216C303.264 137.526 303.601 136.859 303.923 136.215C304.261 135.556 304.698 134.697 305.234 133.639C305.771 132.566 306.3 131.515 306.821 130.488Z" fill="white"/>
<path d="M313.137 144.771L313.666 145.185C313.191 145.844 312.539 146.396 311.711 146.841C310.883 147.27 310.078 147.485 309.296 147.485C308.514 147.485 307.885 147.255 307.41 146.795C306.935 146.335 306.697 145.729 306.697 144.978C306.697 143.567 307.441 142.18 308.928 140.815C310.431 139.45 311.949 138.768 313.482 138.768C314.494 138.768 315 139.167 315 139.964C315 140.792 314.463 141.628 313.39 142.471C312.332 143.314 310.837 144.081 308.905 144.771C309.043 145.124 309.258 145.4 309.549 145.599C309.84 145.798 310.139 145.898 310.446 145.898C311.105 145.898 312.002 145.522 313.137 144.771ZM308.79 144.081C310.032 143.652 311.098 143.115 311.987 142.471C312.876 141.827 313.321 141.237 313.321 140.7C313.321 140.501 313.244 140.324 313.091 140.171C312.938 140.018 312.761 139.941 312.562 139.941C311.841 139.941 311.059 140.393 310.216 141.298C309.388 142.187 308.913 143.115 308.79 144.081Z" fill="white"/>
</svg>
