<svg width="101" height="101" viewBox="0 0 101 101" fill="none" xmlns="http://www.w3.org/2000/svg">
<path d="M80.8066 60.6652C77.8239 60.6849 74.8826 61.3643 72.1941 62.6545C69.5056 63.9447 67.1367 65.8137 65.2576 68.1272L39.511 56.2788C40.7215 52.5768 40.7215 48.5862 39.511 44.8842L65.2576 33.0359C68.2948 36.6961 72.529 39.1672 77.2129 40.013C81.8968 40.8588 86.7293 40.025 90.8576 37.6588C94.9859 35.2925 98.1445 31.5459 99.776 27.0802C101.408 22.6144 101.407 17.7167 99.7748 13.2512C98.1424 8.78578 94.9831 5.03975 90.8544 2.67424C86.7257 0.308735 81.893 -0.524178 77.2093 0.3225C72.5255 1.16918 68.2918 3.64102 65.2553 7.30178C62.2187 10.9625 60.5746 15.5769 60.6131 20.3304C60.6283 21.5316 60.7465 22.7292 60.9665 23.9102L34.3112 36.1618C31.4693 33.3867 27.8707 31.5108 23.9661 30.7692C20.0615 30.0276 16.0246 30.4533 12.3611 31.9929C8.69771 33.5325 5.57066 36.1176 3.37179 39.4242C1.17291 42.7309 0 46.6121 0 50.5815C0 54.551 1.17291 58.4322 3.37179 61.7388C5.57066 65.0455 8.69771 67.6305 12.3611 69.1702C16.0246 70.7098 20.0615 71.1354 23.9661 70.3938C27.8707 69.6522 31.4693 67.7763 34.3112 65.0012L60.9665 77.2529C60.7465 78.4339 60.6283 79.6315 60.6131 80.8326C60.6131 84.8213 61.7974 88.7205 64.0163 92.037C66.2352 95.3535 69.389 97.9384 73.0789 99.4648C76.7687 100.991 80.829 101.391 84.7461 100.612C88.6632 99.8343 92.2614 97.9136 95.0855 95.0931C97.9096 92.2726 99.8328 88.6792 100.612 84.7671C101.391 80.855 100.991 76.8 99.4629 73.1149C97.9345 69.4298 95.3462 66.2801 92.0254 64.064C88.7046 61.848 84.8004 60.6652 80.8066 60.6652ZM80.8066 10.2468C82.8035 10.2468 84.7556 10.8382 86.416 11.9462C88.0764 13.0542 89.3705 14.629 90.1347 16.4716C90.8989 18.3141 91.0989 20.3416 90.7093 22.2977C90.3197 24.2537 89.3581 26.0505 87.946 27.4607C86.534 28.8709 84.7349 29.8313 82.7763 30.2204C80.8178 30.6095 78.7876 30.4098 76.9427 29.6466C75.0978 28.8834 73.5209 27.5909 72.4114 25.9326C71.302 24.2744 70.7098 22.3248 70.7098 20.3304C70.7098 17.6561 71.7736 15.0913 73.6671 13.2002C75.5606 11.3091 78.1287 10.2468 80.8066 10.2468ZM20.2262 60.6652C18.2293 60.6652 16.2772 60.0738 14.6168 58.9658C12.9564 57.8578 11.6623 56.2829 10.8981 54.4404C10.1339 52.5978 9.93394 50.5703 10.3235 48.6143C10.7131 46.6582 11.6747 44.8615 13.0868 43.4513C14.4988 42.041 16.2979 41.0807 18.2565 40.6916C20.215 40.3025 22.2452 40.5022 24.0901 41.2654C25.935 42.0286 27.5119 43.3211 28.6214 44.9793C29.7308 46.6376 30.323 48.5872 30.323 50.5815C30.323 53.2559 29.2592 55.8207 27.3657 57.7118C25.4722 59.6028 22.9041 60.6652 20.2262 60.6652ZM80.8066 90.9163C78.8096 90.9163 76.8575 90.3249 75.1971 89.2169C73.5367 88.1089 72.2426 86.534 71.4784 84.6915C70.7142 82.8489 70.5143 80.8214 70.9038 78.8654C71.2934 76.9093 72.2551 75.1126 73.6671 73.7024C75.0792 72.2921 76.8782 71.3317 78.8368 70.9427C80.7954 70.5536 82.8255 70.7533 84.6704 71.5165C86.5153 72.2797 88.0922 73.5722 89.2017 75.2304C90.3111 76.8887 90.9033 78.8382 90.9033 80.8326C90.9033 83.507 89.8395 86.0718 87.946 87.9629C86.0525 89.8539 83.4844 90.9163 80.8066 90.9163Z" fill="#7FA0AD"/>
</svg>
