<svg id="svg2" xmlns="http://www.w3.org/2000/svg" xmlns:xlink="http://www.w3.org/1999/xlink" viewBox="0 0 457.31 313.71"><defs><style>.cls-1{fill:none;}.cls-2{clip-path:url(#clip-path);}.cls-3{fill:#fff;}</style><clipPath id="clip-path" transform="translate(0 0)"><rect class="cls-1" x="-51.69" y="-65.52" width="560.69" height="490.49"/></clipPath></defs><g id="g180"><g id="g182"><g class="cls-2"><g id="g184"><g id="g190"><path id="path192" class="cls-3" d="M267.88,134.92H228.05v57.16h39.83c18.55,0,30.71-11.86,30.71-28.58s-12.16-28.58-30.71-28.58m32.84,178.79-42.26-86.35H228.05v86.35H185.78V97.21h84.84c44.09,0,70.24,30.11,70.24,66.29,0,30.41-18.55,49.26-39.53,56.86l48.35,93.35Z" transform="translate(0 0)"/></g><g id="g194"><path id="path196" class="cls-3" d="M396.81,313.71V139.78l-44.1,38.32V135.53l44.1-38.32h39.52v216.5Z" transform="translate(0 0)"/></g><g id="g198"><path id="path200" class="cls-3" d="M130.82,97.3l30.5,39.12,12.84-37.15.65-2Z" transform="translate(0 0)"/></g><g id="g202"><path id="path204" class="cls-3" d="M158.59,138.55l-29.08-37.32L87.27,238.3,43.78,97.21H0l71.45,216.5h31.63l57.3-172.87Z" transform="translate(0 0)"/></g><g id="g206"><path id="path208" class="cls-3" d="M396.81,139.78l-44.1,38.32V135.53l44.1-38.32" transform="translate(0 0)"/></g><path id="path304" class="cls-3" d="M419,18.6h-7V0h7Z" transform="translate(0 0)"/><g id="g306"><path id="path308" class="cls-3" d="M406.85,20l-6,3.48-9.3-16.1,6-3.49Z" transform="translate(0 0)"/></g><g id="g310"><path id="path312" class="cls-3" d="M397.07,27.2l-3.49,6-16.11-9.3,3.48-6Z" transform="translate(0 0)"/></g><path id="path314" class="cls-3" d="M392.21,45.33h-18.6v-7h18.6Z" transform="translate(0 0)"/><g id="g316"><path id="path318" class="cls-3" d="M393.58,50.45l3.49,6L381,65.79l-3.48-6Z" transform="translate(0 0)"/></g><g id="g320"><path id="path322" class="cls-3" d="M400.81,60.24l6,3.49-9.3,16.11-6-3.49Z" transform="translate(0 0)"/></g><path id="path324" class="cls-3" d="M412,65.1h7V83.7h-7Z" transform="translate(0 0)"/><g id="g326"><path id="path328" class="cls-3" d="M424.06,63.73l6-3.49,9.3,16.11-6,3.49Z" transform="translate(0 0)"/></g><g id="g330"><path id="path332" class="cls-3" d="M433.85,56.5l3.49-6,16.11,9.31-3.49,6Z" transform="translate(0 0)"/></g><g id="g334"><path id="path336" class="cls-3" d="M438.71,45.34v-7h18.6v7Z" transform="translate(0 0)"/></g><g id="g338"><path id="path340" class="cls-3" d="M437.34,33.25l-3.49-6.05L450,17.91l3.49,6Z" transform="translate(0 0)"/></g><g id="g342"><path id="path344" class="cls-3" d="M430.11,23.45,424.06,20l9.31-16.11,6,3.49Z" transform="translate(0 0)"/></g></g></g></g></g></svg>