<svg width="140" height="152" viewBox="0 0 140 152" fill="none" xmlns="http://www.w3.org/2000/svg">
<path d="M14.9999 75.0565V104.368C14.9999 110.451 19.9133 115.36 25.9999 115.36C32.0866 115.36 36.9999 110.451 36.9999 104.368V75.0565C36.9999 68.9743 32.0866 64.0646 25.9999 64.0646C19.9133 64.0646 14.9999 68.9743 14.9999 75.0565ZM58.9999 75.0565V104.368C58.9999 110.451 63.9133 115.36 69.9999 115.36C76.0866 115.36 80.9999 110.451 80.9999 104.368V75.0565C80.9999 68.9743 76.0866 64.0646 69.9999 64.0646C63.9133 64.0646 58.9999 68.9743 58.9999 75.0565ZM11.3333 152H128.667C134.753 152 139.667 147.09 139.667 141.008C139.667 134.926 134.753 130.016 128.667 130.016H11.3333C5.24658 130.016 0.333252 134.926 0.333252 141.008C0.333252 147.09 5.24658 152 11.3333 152ZM103 75.0565V104.368C103 110.451 107.913 115.36 114 115.36C120.087 115.36 125 110.451 125 104.368V75.0565C125 68.9743 120.087 64.0646 114 64.0646C107.913 64.0646 103 68.9743 103 75.0565ZM63.1799 1.70375L5.24659 32.188C2.23992 33.7269 0.333252 36.8779 0.333252 40.2488C0.333252 45.305 4.43992 49.4087 9.49992 49.4087H130.573C135.56 49.4087 139.667 45.305 139.667 40.2488C139.667 36.8779 137.76 33.7269 134.753 32.188L76.8199 1.70375C72.5666 -0.567916 67.4332 -0.567916 63.1799 1.70375Z" fill="white"/>
</svg>
