<?xml version="1.0" encoding="utf-8"?>
<!-- Generator: Adobe Illustrator 26.1.0, SVG Export Plug-In . SVG Version: 6.00 Build 0)  -->
<svg version="1.1" id="Layer_1" xmlns="http://www.w3.org/2000/svg" xmlns:xlink="http://www.w3.org/1999/xlink" x="0px" y="0px"
	 viewBox="0 0 198 99" style="enable-background:new 0 0 198 99;" xml:space="preserve">
<style type="text/css">
	.st0{fill:#FFFFFF;}
</style>
<path class="st0" d="M99,55.4c13.4,0,25.2,3.2,34.8,7.4c8.9,3.9,14.4,12.8,14.4,22.4v5.1c0,4.5-3.7,8.2-8.2,8.2H58
	c-4.5,0-8.2-3.7-8.2-8.2v-5c0-9.7,5.6-18.6,14.4-22.4C73.8,58.6,85.6,55.4,99,55.4z M33.3,57.5c9,0,16.4-7.4,16.4-16.4
	c0-9-7.4-16.4-16.4-16.4c-9,0-16.4,7.4-16.4,16.4C16.9,50.1,24.3,57.5,33.3,57.5z M42.6,66.5c-3-0.5-6.1-0.8-9.3-0.8
	c-8.1,0-15.8,1.7-22.8,4.8c-6.1,2.6-10,8.5-10,15.2v4.7c0,4.5,3.7,8.2,8.2,8.2h28.7V85.3C37.4,78.5,39.3,72.1,42.6,66.5z
	 M164.7,57.5c9,0,16.4-7.4,16.4-16.4c0-9-7.4-16.4-16.4-16.4c-9,0-16.4,7.4-16.4,16.4C148.2,50.1,155.6,57.5,164.7,57.5z
	 M197.5,85.6c0-6.6-3.9-12.6-10-15.2c-7-3-14.7-4.8-22.8-4.8c-3.2,0-6.2,0.3-9.3,0.8c3.3,5.6,5.2,12,5.2,18.8v13.2h28.7
	c4.5,0,8.2-3.7,8.2-8.2V85.6z M99,0c13.6,0,24.6,11,24.6,24.6s-11,24.6-24.6,24.6c-13.6,0-24.6-11-24.6-24.6S85.4,0,99,0z"/>
</svg>
